<svg width="62" height="42" viewBox="0 0 62 42" fill="none" xmlns="http://www.w3.org/2000/svg">
<path d="M25.216 18.7C25.216 18.7 30.892 18.259 30.892 11.323C30.892 4.378 26.248 1 20.362 1H1V39.778H20.362C20.362 39.778 32.185 40.165 32.185 28.33C32.182 28.327 32.698 18.7 25.216 18.7ZM9.532 7.888H20.362C20.362 7.888 22.996 7.888 22.996 11.92C22.996 15.958 21.448 16.543 19.69 16.543H9.532V7.888ZM19.813 32.884H9.532V22.519H20.362C20.362 22.519 24.286 22.465 24.286 27.844C24.286 32.38 21.355 32.851 19.813 32.884ZM47.947 10.861C33.634 10.861 33.646 25.762 33.646 25.762C33.646 25.762 32.668 40.585 47.947 40.585C47.947 40.585 60.676 41.347 60.676 30.274H54.13C54.13 30.274 54.346 34.447 48.166 34.447C48.166 34.447 41.614 34.903 41.614 27.697H60.883C60.886 27.694 63.01 10.861 47.947 10.861ZM53.77 22.519H41.548C41.548 22.519 42.346 16.543 48.094 16.543C53.842 16.543 53.77 22.519 53.77 22.519ZM55.291 3.277H39.94V8.059H55.291V3.277Z" stroke="white" stroke-width="2"/>
</svg>
