<svg width="887" height="243" viewBox="0 0 887 243" fill="none" xmlns="http://www.w3.org/2000/svg">
<path d="M130.49 64.431C130.49 79.4328 118.329 91.594 103.327 91.594C88.3257 91.594 76.1644 79.4328 76.1644 64.431C76.1644 49.4293 88.3257 37.268 103.327 37.268C118.329 37.268 130.49 49.4293 130.49 64.431Z" stroke="#151515" stroke-width="16.5359"/>
<path d="M117.083 170.533C80.901 165.854 80.9304 118.035 59.2024 113.406C30.6064 107.315 17.0675 148.168 45.9996 181.957C71.1495 211.329 109.982 239.457 164.606 174.425C208.351 122.345 121.083 97.8568 113.467 141.65" stroke="#151515" stroke-width="16.5359" stroke-linecap="round" stroke-linejoin="round"/>
<path d="M426.01 192L414.594 160.654H358.869L347.453 192H319.203L371.833 54.8149H402.792L455.034 192H426.01ZM386.732 84.419L367.77 136.275H405.694L386.732 84.419ZM496.379 192H470.645V96.8025H496.379V192ZM467.549 65.6504C467.549 56.7498 474.708 49.5907 483.415 49.5907C492.316 49.5907 499.282 56.7498 499.282 65.6504C499.282 74.164 492.316 81.3232 483.415 81.3232C474.708 81.3232 467.549 74.164 467.549 65.6504ZM549.665 192H523.93V96.8025H548.504V108.412C553.728 99.1244 565.918 94.0936 576.366 94.0936C589.33 94.0936 599.779 99.7048 604.616 109.96C612.162 98.3504 622.224 94.0936 634.801 94.0936C652.408 94.0936 669.242 104.736 669.242 130.276V192H644.282V135.501C644.282 125.246 639.251 117.506 627.448 117.506C616.419 117.506 609.84 126.02 609.84 136.275V192H584.3V135.501C584.3 125.246 579.075 117.506 567.466 117.506C556.243 117.506 549.665 125.826 549.665 136.275V192ZM738.075 171.49C750.652 171.49 762.261 162.396 762.261 144.401C762.261 126.407 750.652 117.313 738.075 117.313C725.498 117.313 713.889 126.407 713.889 144.401C713.889 162.202 725.498 171.49 738.075 171.49ZM738.075 93.9001C766.518 93.9001 787.996 114.991 787.996 144.401C787.996 173.618 766.518 194.902 738.075 194.902C709.632 194.902 688.154 173.618 688.154 144.401C688.154 114.991 709.632 93.9001 738.075 93.9001ZM840.096 54.8149L833.904 150.206H815.136L808.944 54.8149H840.096ZM809.331 178.262C809.331 169.749 816.103 162.783 824.423 162.783C832.937 162.783 839.903 169.749 839.903 178.262C839.903 186.776 832.937 193.548 824.423 193.548C816.103 193.548 809.331 186.776 809.331 178.262Z" fill="#151515"/>
</svg>
