<svg width="973" height="174" viewBox="0 0 973 174" fill="none" xmlns="http://www.w3.org/2000/svg">
<path d="M88.616 118.743C68.0811 100.337 39.3323 52.856 88.616 10.1836C109.401 27.4629 138.501 73.3658 88.616 118.743Z" fill="#151515"/>
<path d="M97.7011 162.733C95.7156 135.228 108.018 81.103 173.113 84.6423C176.061 111.511 165.107 164.745 97.7011 162.733Z" fill="#151515"/>
<path d="M79.4354 162.733C81.4209 135.228 69.1182 81.103 4.0238 84.6423C1.07535 111.511 12.0298 164.745 79.4354 162.733Z" fill="#151515"/>
<path d="M230.308 143V40.488H273.514C280.303 40.488 286.082 41.6805 290.852 44.0656C295.714 46.3589 299.429 49.6613 301.998 53.9728C304.658 58.1925 305.988 63.3296 305.988 69.384C305.988 74.0624 304.704 78.4656 302.135 82.5936C299.658 86.6299 295.668 89.9781 290.164 92.6384V83.9696C295.209 85.896 299.2 88.2811 302.135 91.1248C305.071 93.9685 307.135 97.1333 308.327 100.619C309.52 104.105 310.116 107.774 310.116 111.627C310.116 121.443 306.859 129.148 300.346 134.744C293.925 140.248 284.981 143 273.514 143H230.308ZM249.022 126.488H275.441C280.303 126.488 284.155 125.158 286.999 122.498C289.935 119.746 291.402 116.122 291.402 111.627C291.402 107.132 289.935 103.509 286.999 100.757C284.155 98.0048 280.303 96.6288 275.441 96.6288H249.022V126.488ZM249.022 80.2544H274.478C278.33 80.2544 281.403 79.1536 283.697 76.952C285.99 74.6587 287.137 71.7232 287.137 68.1456C287.137 64.568 285.99 61.7243 283.697 59.6144C281.403 57.5045 278.33 56.4496 274.478 56.4496H249.022V80.2544ZM350.626 144.651C344.847 144.651 339.802 143.367 335.49 140.798C331.271 138.23 328.014 134.652 325.721 130.066C323.519 125.479 322.418 120.113 322.418 113.966V68.1456H340.444V112.453C340.444 115.572 341.04 118.324 342.233 120.709C343.517 123.002 345.306 124.837 347.599 126.213C349.984 127.497 352.644 128.139 355.58 128.139C358.515 128.139 361.13 127.497 363.423 126.213C365.716 124.837 367.505 122.956 368.789 120.571C370.074 118.186 370.716 115.342 370.716 112.04V68.1456H388.741V143H371.679V128.277L373.193 130.891C371.45 135.478 368.56 138.918 364.524 141.211C360.579 143.505 355.947 144.651 350.626 144.651ZM428.201 144.651C422.973 144.651 418.432 143.78 414.579 142.037C410.726 140.294 407.745 137.817 405.635 134.606C403.525 131.304 402.47 127.497 402.47 123.186C402.47 119.058 403.388 115.388 405.222 112.178C407.057 108.875 409.901 106.123 413.753 103.922C417.606 101.72 422.468 100.161 428.339 99.2432L452.832 95.2528V109.013L431.779 112.59C428.201 113.233 425.541 114.379 423.798 116.03C422.055 117.682 421.184 119.837 421.184 122.498C421.184 125.066 422.147 127.13 424.073 128.69C426.092 130.157 428.568 130.891 431.504 130.891C435.265 130.891 438.567 130.111 441.411 128.552C444.347 126.901 446.594 124.653 448.153 121.81C449.805 118.966 450.63 115.847 450.63 112.453V93.1888C450.63 89.9781 449.346 87.3179 446.777 85.208C444.301 83.0064 440.998 81.9056 436.87 81.9056C433.017 81.9056 429.577 82.9605 426.55 85.0704C423.615 87.0885 421.459 89.7947 420.083 93.1888L405.36 86.0336C406.828 82.0891 409.121 78.6949 412.24 75.8512C415.451 72.9157 419.212 70.6224 423.523 68.9712C427.835 67.32 432.513 66.4944 437.558 66.4944C443.704 66.4944 449.117 67.6411 453.795 69.9344C458.473 72.136 462.097 75.2549 464.665 79.2912C467.326 83.2357 468.656 87.8683 468.656 93.1888V143H451.593V130.203L455.446 129.928C453.52 133.139 451.227 135.845 448.566 138.046C445.906 140.156 442.879 141.807 439.485 143C436.091 144.101 432.329 144.651 428.201 144.651ZM485.316 143V68.1456H502.241V82.8688L500.865 80.2544C502.608 75.7595 505.452 72.3653 509.396 70.072C513.433 67.6869 518.111 66.4944 523.431 66.4944C528.935 66.4944 533.797 67.6869 538.017 70.072C542.329 72.4571 545.677 75.8053 548.062 80.1168C550.447 84.3365 551.639 89.2443 551.639 94.84V143H533.614V99.1056C533.614 95.8032 532.972 92.9595 531.687 90.5744C530.403 88.1893 528.614 86.3547 526.321 85.0704C524.119 83.6944 521.505 83.0064 518.478 83.0064C515.542 83.0064 512.928 83.6944 510.635 85.0704C508.341 86.3547 506.553 88.1893 505.268 90.5744C503.984 92.9595 503.342 95.8032 503.342 99.1056V143H485.316ZM603.208 173.272C597.613 173.272 592.43 172.355 587.659 170.52C582.889 168.685 578.761 166.117 575.275 162.814C571.881 159.604 569.405 155.797 567.845 151.394L584.632 145.064C585.733 148.55 587.889 151.348 591.099 153.458C594.402 155.659 598.438 156.76 603.208 156.76C606.878 156.76 610.088 156.072 612.84 154.696C615.684 153.32 617.886 151.302 619.445 148.642C621.005 146.073 621.784 142.954 621.784 139.285V122.222L625.224 126.35C622.656 130.845 619.216 134.239 614.904 136.533C610.593 138.826 605.685 139.973 600.181 139.973C593.209 139.973 586.971 138.367 581.467 135.157C575.963 131.946 571.652 127.543 568.533 121.947C565.414 116.351 563.855 110.068 563.855 103.096C563.855 96.0325 565.414 89.7488 568.533 84.2448C571.652 78.7408 575.918 74.4293 581.33 71.3104C586.742 68.0997 592.888 66.4944 599.768 66.4944C605.364 66.4944 610.272 67.6869 614.491 70.072C618.803 72.3653 622.381 75.7136 625.224 80.1168L622.747 84.6576V68.1456H639.81V139.285C639.81 145.798 638.205 151.623 634.994 156.76C631.875 161.897 627.563 165.933 622.059 168.869C616.647 171.804 610.363 173.272 603.208 173.272ZM602.383 123.323C606.235 123.323 609.584 122.498 612.427 120.846C615.363 119.103 617.656 116.718 619.307 113.691C620.959 110.664 621.784 107.178 621.784 103.234C621.784 99.3808 620.913 95.9408 619.17 92.9136C617.519 89.7947 615.225 87.3637 612.29 85.6208C609.446 83.8779 606.144 83.0064 602.383 83.0064C598.622 83.0064 595.227 83.8779 592.2 85.6208C589.173 87.3637 586.788 89.7947 585.045 92.9136C583.394 95.9408 582.568 99.3808 582.568 103.234C582.568 107.086 583.394 110.526 585.045 113.554C586.788 116.581 589.127 118.966 592.063 120.709C595.09 122.452 598.53 123.323 602.383 123.323ZM658.158 143V40.488H701.364C708.153 40.488 713.932 41.6805 718.702 44.0656C723.564 46.3589 727.279 49.6613 729.848 53.9728C732.508 58.1925 733.838 63.3296 733.838 69.384C733.838 74.0624 732.554 78.4656 729.985 82.5936C727.508 86.6299 723.518 89.9781 718.014 92.6384V83.9696C723.059 85.896 727.05 88.2811 729.985 91.1248C732.921 93.9685 734.985 97.1333 736.177 100.619C737.37 104.105 737.966 107.774 737.966 111.627C737.966 121.443 734.709 129.148 728.196 134.744C721.775 140.248 712.831 143 701.364 143H658.158ZM676.872 126.488H703.291C708.153 126.488 712.005 125.158 714.849 122.498C717.785 119.746 719.252 116.122 719.252 111.627C719.252 107.132 717.785 103.509 714.849 100.757C712.005 98.0048 708.153 96.6288 703.291 96.6288H676.872V126.488ZM676.872 80.2544H702.328C706.18 80.2544 709.253 79.1536 711.547 76.952C713.84 74.6587 714.987 71.7232 714.987 68.1456C714.987 64.568 713.84 61.7243 711.547 59.6144C709.253 57.5045 706.18 56.4496 702.328 56.4496H676.872V80.2544ZM751.782 143V68.1456H769.808V143H751.782ZM751.782 59.752V40.488H769.808V59.752H751.782ZM776.131 173.41C774.938 173.41 773.7 173.364 772.415 173.272C771.131 173.18 770.076 173.043 769.251 172.859V157.173C770.902 157.448 772.553 157.586 774.204 157.586C778.057 157.586 781.038 156.668 783.148 154.834C785.35 153.091 786.451 150.385 786.451 146.715V68.1456H804.476V146.715C804.476 152.403 803.33 157.219 801.036 161.163C798.743 165.199 795.44 168.227 791.129 170.245C786.909 172.355 781.91 173.41 776.131 173.41ZM786.451 59.752V40.488H804.476V59.752H786.451ZM843.823 144.651C838.595 144.651 834.054 143.78 830.201 142.037C826.348 140.294 823.367 137.817 821.257 134.606C819.147 131.304 818.092 127.497 818.092 123.186C818.092 119.058 819.01 115.388 820.844 112.178C822.679 108.875 825.523 106.123 829.375 103.922C833.228 101.72 838.09 100.161 843.961 99.2432L868.454 95.2528V109.013L847.401 112.59C843.823 113.233 841.163 114.379 839.42 116.03C837.677 117.682 836.806 119.837 836.806 122.498C836.806 125.066 837.769 127.13 839.695 128.69C841.714 130.157 844.19 130.891 847.126 130.891C850.887 130.891 854.189 130.111 857.033 128.552C859.968 126.901 862.216 124.653 863.775 121.81C865.427 118.966 866.252 115.847 866.252 112.453V93.1888C866.252 89.9781 864.968 87.3179 862.399 85.208C859.923 83.0064 856.62 81.9056 852.492 81.9056C848.639 81.9056 845.199 82.9605 842.172 85.0704C839.237 87.0885 837.081 89.7947 835.705 93.1888L820.982 86.0336C822.45 82.0891 824.743 78.6949 827.862 75.8512C831.072 72.9157 834.834 70.6224 839.145 68.9712C843.456 67.32 848.135 66.4944 853.18 66.4944C859.326 66.4944 864.739 67.6411 869.417 69.9344C874.095 72.136 877.719 75.2549 880.287 79.2912C882.948 83.2357 884.278 87.8683 884.278 93.1888V143H867.215V130.203L871.068 129.928C869.142 133.139 866.848 135.845 864.188 138.046C861.528 140.156 858.501 141.807 855.107 143C851.712 144.101 847.951 144.651 843.823 144.651ZM900.938 143V38.8368H918.964V107.086L912.084 105.022L947.309 68.1456H969.738L942.081 98.28L970.289 143H949.649L925.156 104.197L935.889 101.995L913.322 126.213L918.964 115.205V143H900.938Z" fill="#151515"/>
</svg>
