<svg width="418" height="124" viewBox="0 0 418 124" fill="none" xmlns="http://www.w3.org/2000/svg">
<path d="M330.514 21.1215L338.097 24.6855" stroke="#151515" stroke-width="8.37707" stroke-linecap="round" stroke-linejoin="round"/>
<path d="M350.243 29.7353L361.618 35.0813C376.292 41.9776 382.583 59.4232 375.686 74.097L370.34 85.472" stroke="#151515" stroke-width="8.37707" stroke-linecap="round" stroke-linejoin="round"/>
<path d="M405.98 9.63843L400.634 21.0135C393.738 35.6873 376.292 41.9776 361.618 35.0813L357.827 33.2993L350.243 29.7353" stroke="#151515" stroke-width="8.37707" stroke-linecap="round" stroke-linejoin="round"/>
<path d="M409.925 20.5834L405.905 9.43608L394.758 13.4555" stroke="#151515" stroke-width="8.37707" stroke-linecap="round" stroke-linejoin="round"/>
<path d="M381.49 81.5446L370.343 85.564L366.323 74.4167" stroke="#151515" stroke-width="8.37707" stroke-linecap="round" stroke-linejoin="round"/>
<mask id="path-6-outside-1_572_847" maskUnits="userSpaceOnUse" x="4" y="23.0001" width="331" height="96" fill="black">
<rect fill="white" x="4" y="23.0001" width="331" height="96"/>
<path d="M40.576 117.536C34.0053 117.536 28.032 116.213 22.656 113.568C17.28 110.923 13.0133 106.955 9.856 101.664C6.69867 96.3734 5.12 89.6321 5.12 81.4401V26.4001H22.4V81.5681C22.4 86.0054 23.1253 89.7601 24.576 92.8321C26.0267 95.8187 28.16 98.0374 30.976 99.4881C33.792 100.939 37.12 101.664 40.96 101.664C44.8853 101.664 48.2133 100.939 50.944 99.4881C53.6747 98.0374 55.7653 95.8187 57.216 92.8321C58.752 89.7601 59.52 86.0054 59.52 81.5681V26.4001H76.8V81.4401C76.8 89.6321 75.136 96.3734 71.808 101.664C68.5653 106.955 64.2133 110.923 58.752 113.568C53.2907 116.213 47.232 117.536 40.576 117.536ZM87.635 116V26.4001H121.171C128.339 26.4001 134.27 27.6374 138.963 30.1121C143.742 32.5867 147.283 35.9147 149.587 40.0961C151.891 44.1921 153.043 48.7574 153.043 53.7921C153.043 58.5707 151.891 63.0507 149.587 67.2321C147.368 71.3281 143.87 74.6561 139.091 77.2161C134.398 79.6907 128.339 80.9281 120.915 80.9281H104.915V116H87.635ZM134.099 116L115.667 76.5761H134.355L153.811 116H134.099ZM104.915 68.3841H120.019C125.31 68.3841 129.192 67.1041 131.667 64.5441C134.142 61.9841 135.379 58.6134 135.379 54.4321C135.379 50.2507 134.142 46.9654 131.667 44.5761C129.192 42.1014 125.31 40.8641 120.019 40.8641H104.915V68.3841ZM162.918 116V52.5121H180.198V116H162.918ZM171.622 44.4481C168.465 44.4481 165.862 43.5521 163.814 41.7601C161.851 39.8827 160.87 37.5361 160.87 34.7201C160.87 31.9041 161.851 29.5574 163.814 27.6801C165.862 25.8027 168.465 24.8641 171.622 24.8641C174.779 24.8641 177.339 25.8027 179.302 27.6801C181.265 29.5574 182.246 31.9041 182.246 34.7201C182.246 37.4507 181.265 39.7547 179.302 41.6321C177.339 43.5094 174.779 44.4481 171.622 44.4481ZM220.271 117.536C214.298 117.536 209.092 116.128 204.655 113.312C200.218 110.411 196.762 106.443 194.287 101.408C191.812 96.3734 190.575 90.6561 190.575 84.2561C190.575 77.8561 191.812 72.1387 194.287 67.1041C196.762 62.0694 200.26 58.1441 204.783 55.3281C209.306 52.4267 214.682 50.9761 220.911 50.9761C225.86 50.9761 230.127 51.9574 233.711 53.9201C237.38 55.7974 240.282 58.0587 242.415 60.7041V26.4001H259.695V116H245.103L244.207 104.864H243.695C242.074 107.509 240.111 109.771 237.807 111.648C235.503 113.525 232.9 114.976 229.999 116C227.098 117.024 223.855 117.536 220.271 117.536ZM225.391 103.328C228.89 103.328 231.919 102.517 234.479 100.896C237.124 99.2747 239.13 97.0561 240.495 94.2401C241.946 91.3387 242.671 87.9681 242.671 84.1281C242.671 80.3734 241.946 77.0881 240.495 74.2721C239.13 71.3707 237.124 69.1094 234.479 67.4881C231.834 65.8667 228.762 65.0561 225.263 65.0561C221.85 65.0561 218.82 65.8667 216.175 67.4881C213.615 69.1094 211.61 71.3707 210.159 74.2721C208.794 77.0881 208.111 80.3734 208.111 84.1281C208.111 87.9681 208.794 91.3387 210.159 94.2401C211.61 97.0561 213.615 99.2747 216.175 100.896C218.82 102.517 221.892 103.328 225.391 103.328ZM301.852 117.536C295.367 117.536 289.607 116.171 284.572 113.44C279.623 110.709 275.74 106.869 272.924 101.92C270.108 96.9707 268.7 91.2961 268.7 84.8961C268.7 78.2401 270.065 72.3947 272.796 67.3601C275.612 62.2401 279.495 58.2294 284.444 55.3281C289.479 52.4267 295.281 50.9761 301.852 50.9761C308.252 50.9761 313.841 52.3414 318.62 55.0721C323.399 57.8027 327.153 61.5574 329.884 66.3361C332.615 71.0294 333.98 76.3627 333.98 82.3361C333.98 83.1894 333.937 84.1707 333.852 85.2801C333.852 86.3041 333.809 87.3707 333.724 88.4801H280.988V77.8561H316.444C316.188 73.8454 314.695 70.6454 311.964 68.2561C309.319 65.8667 305.991 64.6721 301.98 64.6721C298.993 64.6721 296.263 65.3547 293.788 66.7201C291.313 68.0001 289.351 70.0054 287.9 72.7361C286.449 75.3814 285.724 78.7521 285.724 82.8481V86.5601C285.724 90.0587 286.407 93.0881 287.772 95.6481C289.137 98.1227 291.015 100.043 293.404 101.408C295.879 102.773 298.652 103.456 301.724 103.456C304.881 103.456 307.527 102.773 309.66 101.408C311.793 99.9574 313.415 98.1227 314.524 95.9041H332.06C330.865 99.9147 328.86 103.584 326.044 106.912C323.228 110.155 319.772 112.757 315.676 114.72C311.58 116.597 306.972 117.536 301.852 117.536Z"/>
</mask>
<path d="M40.576 117.536C34.0053 117.536 28.032 116.213 22.656 113.568C17.28 110.923 13.0133 106.955 9.856 101.664C6.69867 96.3734 5.12 89.6321 5.12 81.4401V26.4001H22.4V81.5681C22.4 86.0054 23.1253 89.7601 24.576 92.8321C26.0267 95.8187 28.16 98.0374 30.976 99.4881C33.792 100.939 37.12 101.664 40.96 101.664C44.8853 101.664 48.2133 100.939 50.944 99.4881C53.6747 98.0374 55.7653 95.8187 57.216 92.8321C58.752 89.7601 59.52 86.0054 59.52 81.5681V26.4001H76.8V81.4401C76.8 89.6321 75.136 96.3734 71.808 101.664C68.5653 106.955 64.2133 110.923 58.752 113.568C53.2907 116.213 47.232 117.536 40.576 117.536ZM87.635 116V26.4001H121.171C128.339 26.4001 134.27 27.6374 138.963 30.1121C143.742 32.5867 147.283 35.9147 149.587 40.0961C151.891 44.1921 153.043 48.7574 153.043 53.7921C153.043 58.5707 151.891 63.0507 149.587 67.2321C147.368 71.3281 143.87 74.6561 139.091 77.2161C134.398 79.6907 128.339 80.9281 120.915 80.9281H104.915V116H87.635ZM134.099 116L115.667 76.5761H134.355L153.811 116H134.099ZM104.915 68.3841H120.019C125.31 68.3841 129.192 67.1041 131.667 64.5441C134.142 61.9841 135.379 58.6134 135.379 54.4321C135.379 50.2507 134.142 46.9654 131.667 44.5761C129.192 42.1014 125.31 40.8641 120.019 40.8641H104.915V68.3841ZM162.918 116V52.5121H180.198V116H162.918ZM171.622 44.4481C168.465 44.4481 165.862 43.5521 163.814 41.7601C161.851 39.8827 160.87 37.5361 160.87 34.7201C160.87 31.9041 161.851 29.5574 163.814 27.6801C165.862 25.8027 168.465 24.8641 171.622 24.8641C174.779 24.8641 177.339 25.8027 179.302 27.6801C181.265 29.5574 182.246 31.9041 182.246 34.7201C182.246 37.4507 181.265 39.7547 179.302 41.6321C177.339 43.5094 174.779 44.4481 171.622 44.4481ZM220.271 117.536C214.298 117.536 209.092 116.128 204.655 113.312C200.218 110.411 196.762 106.443 194.287 101.408C191.812 96.3734 190.575 90.6561 190.575 84.2561C190.575 77.8561 191.812 72.1387 194.287 67.1041C196.762 62.0694 200.26 58.1441 204.783 55.3281C209.306 52.4267 214.682 50.9761 220.911 50.9761C225.86 50.9761 230.127 51.9574 233.711 53.9201C237.38 55.7974 240.282 58.0587 242.415 60.7041V26.4001H259.695V116H245.103L244.207 104.864H243.695C242.074 107.509 240.111 109.771 237.807 111.648C235.503 113.525 232.9 114.976 229.999 116C227.098 117.024 223.855 117.536 220.271 117.536ZM225.391 103.328C228.89 103.328 231.919 102.517 234.479 100.896C237.124 99.2747 239.13 97.0561 240.495 94.2401C241.946 91.3387 242.671 87.9681 242.671 84.1281C242.671 80.3734 241.946 77.0881 240.495 74.2721C239.13 71.3707 237.124 69.1094 234.479 67.4881C231.834 65.8667 228.762 65.0561 225.263 65.0561C221.85 65.0561 218.82 65.8667 216.175 67.4881C213.615 69.1094 211.61 71.3707 210.159 74.2721C208.794 77.0881 208.111 80.3734 208.111 84.1281C208.111 87.9681 208.794 91.3387 210.159 94.2401C211.61 97.0561 213.615 99.2747 216.175 100.896C218.82 102.517 221.892 103.328 225.391 103.328ZM301.852 117.536C295.367 117.536 289.607 116.171 284.572 113.44C279.623 110.709 275.74 106.869 272.924 101.92C270.108 96.9707 268.7 91.2961 268.7 84.8961C268.7 78.2401 270.065 72.3947 272.796 67.3601C275.612 62.2401 279.495 58.2294 284.444 55.3281C289.479 52.4267 295.281 50.9761 301.852 50.9761C308.252 50.9761 313.841 52.3414 318.62 55.0721C323.399 57.8027 327.153 61.5574 329.884 66.3361C332.615 71.0294 333.98 76.3627 333.98 82.3361C333.98 83.1894 333.937 84.1707 333.852 85.2801C333.852 86.3041 333.809 87.3707 333.724 88.4801H280.988V77.8561H316.444C316.188 73.8454 314.695 70.6454 311.964 68.2561C309.319 65.8667 305.991 64.6721 301.98 64.6721C298.993 64.6721 296.263 65.3547 293.788 66.7201C291.313 68.0001 289.351 70.0054 287.9 72.7361C286.449 75.3814 285.724 78.7521 285.724 82.8481V86.5601C285.724 90.0587 286.407 93.0881 287.772 95.6481C289.137 98.1227 291.015 100.043 293.404 101.408C295.879 102.773 298.652 103.456 301.724 103.456C304.881 103.456 307.527 102.773 309.66 101.408C311.793 99.9574 313.415 98.1227 314.524 95.9041H332.06C330.865 99.9147 328.86 103.584 326.044 106.912C323.228 110.155 319.772 112.757 315.676 114.72C311.58 116.597 306.972 117.536 301.852 117.536Z" fill="#151515"/>
<path d="M22.656 113.568L22.2145 114.465L22.2145 114.465L22.656 113.568ZM9.856 101.664L10.7147 101.152L9.856 101.664ZM5.12 26.4001V25.4001H4.12V26.4001H5.12ZM22.4 26.4001H23.4V25.4001H22.4V26.4001ZM24.576 92.8321L23.6717 93.2591L23.6765 93.269L24.576 92.8321ZM30.976 99.4881L31.434 98.5991L31.434 98.5991L30.976 99.4881ZM50.944 99.4881L51.4132 100.371L51.4132 100.371L50.944 99.4881ZM57.216 92.8321L56.3215 92.3848L56.3165 92.3952L57.216 92.8321ZM59.52 26.4001V25.4001H58.52V26.4001H59.52ZM76.8 26.4001H77.8V25.4001H76.8V26.4001ZM71.808 101.664L70.9615 101.132L70.9554 101.141L71.808 101.664ZM58.752 113.568L59.1879 114.468L59.1879 114.468L58.752 113.568ZM40.576 116.536C34.1434 116.536 28.3233 115.242 23.0975 112.671L22.2145 114.465C27.7407 117.185 33.8673 118.536 40.576 118.536V116.536ZM23.0975 112.671C17.8999 110.113 13.776 106.281 10.7147 101.152L8.99729 102.177C12.2506 107.628 16.6601 111.732 22.2145 114.465L23.0975 112.671ZM10.7147 101.152C7.67552 96.0589 6.12 89.5093 6.12 81.4401H4.12C4.12 89.7548 5.72181 96.6879 8.99729 102.177L10.7147 101.152ZM6.12 81.4401V26.4001H4.12V81.4401H6.12ZM5.12 27.4001H22.4V25.4001H5.12V27.4001ZM21.4 26.4001V81.5681H23.4V26.4001H21.4ZM21.4 81.5681C21.4 86.1097 22.1418 90.0192 23.6718 93.2591L25.4802 92.4051C24.1088 89.5009 23.4 85.9011 23.4 81.5681H21.4ZM23.6765 93.269C25.2167 96.4401 27.5002 98.8224 30.518 100.377L31.434 98.5991C28.8198 97.2524 26.8366 95.1974 25.4755 92.3952L23.6765 93.269ZM30.518 100.377C33.5027 101.915 36.9941 102.664 40.96 102.664V100.664C37.2459 100.664 34.0813 99.9629 31.434 98.5991L30.518 100.377ZM40.96 102.664C45.0059 102.664 48.5043 101.917 51.4132 100.371L50.4748 98.6049C47.9224 99.9609 44.7648 100.664 40.96 100.664V102.664ZM51.4132 100.371C54.345 98.8136 56.5795 96.4313 58.1155 93.269L56.3165 92.3952C54.9512 95.2062 53.0043 97.2612 50.4748 98.6049L51.4132 100.371ZM58.1104 93.2793C59.7331 90.0339 60.52 86.1168 60.52 81.5681H58.52C58.52 85.8939 57.7709 89.4862 56.3216 92.3848L58.1104 93.2793ZM60.52 81.5681V26.4001H58.52V81.5681H60.52ZM59.52 27.4001H76.8V25.4001H59.52V27.4001ZM75.8 26.4001V81.4401H77.8V26.4001H75.8ZM75.8 81.4401C75.8 89.501 74.1625 96.0429 70.9615 101.132L72.6545 102.197C76.1095 96.7039 77.8 89.7631 77.8 81.4401H75.8ZM70.9554 101.141C67.8103 106.273 63.6012 110.108 58.3161 112.668L59.1879 114.468C64.8255 111.737 69.3204 107.636 72.6606 102.187L70.9554 101.141ZM58.3161 112.668C53.0034 115.241 47.0958 116.536 40.576 116.536V118.536C47.3682 118.536 53.578 117.185 59.1879 114.468L58.3161 112.668ZM87.635 116H86.635V117H87.635V116ZM87.635 26.4001V25.4001H86.635V26.4001H87.635ZM138.963 30.1121L138.497 30.9967L138.503 31.0001L138.963 30.1121ZM149.587 40.0961L148.711 40.5787L148.715 40.5863L149.587 40.0961ZM149.587 67.2321L148.711 66.7494L148.708 66.7558L149.587 67.2321ZM139.091 77.2161L139.557 78.1006L139.563 78.0975L139.091 77.2161ZM104.915 80.9281V79.9281H103.915V80.9281H104.915ZM104.915 116V117H105.915V116H104.915ZM134.099 116L133.193 116.424L133.463 117H134.099V116ZM115.667 76.5761V75.5761H114.096L114.761 76.9996L115.667 76.5761ZM134.355 76.5761L135.252 76.1335L134.977 75.5761H134.355V76.5761ZM153.811 116V117H155.42L154.708 115.558L153.811 116ZM104.915 68.3841H103.915V69.3841H104.915V68.3841ZM131.667 64.5441L132.386 65.2391L132.386 65.2391L131.667 64.5441ZM131.667 44.5761L130.96 45.2832L130.966 45.2894L130.972 45.2955L131.667 44.5761ZM104.915 40.8641V39.8641H103.915V40.8641H104.915ZM88.635 116V26.4001H86.635V116H88.635ZM87.635 27.4001H121.171V25.4001H87.635V27.4001ZM121.171 27.4001C128.231 27.4001 133.989 28.6197 138.497 30.9966L139.429 29.2275C134.551 26.6551 128.447 25.4001 121.171 25.4001V27.4001ZM138.503 31.0001C143.129 33.3957 146.515 36.5921 148.711 40.5787L150.463 39.6134C148.052 35.2373 144.354 31.7778 139.423 29.2241L138.503 31.0001ZM148.715 40.5863C150.929 44.522 152.043 48.9165 152.043 53.7921H154.043C154.043 48.5983 152.853 43.8621 150.459 39.6058L148.715 40.5863ZM152.043 53.7921C152.043 58.4021 150.934 62.7161 148.711 66.7495L150.463 67.7147C152.848 63.3854 154.043 58.7393 154.043 53.7921H152.043ZM148.708 66.7558C146.597 70.6531 143.254 73.8515 138.619 76.3346L139.563 78.0975C144.485 75.4607 148.14 72.003 150.466 67.7083L148.708 66.7558ZM138.625 76.3315C134.121 78.7062 128.238 79.9281 120.915 79.9281V81.9281C128.44 81.9281 134.674 80.6753 139.557 78.1006L138.625 76.3315ZM120.915 79.9281H104.915V81.9281H120.915V79.9281ZM103.915 80.9281V116H105.915V80.9281H103.915ZM104.915 115H87.635V117H104.915V115ZM135.005 115.577L116.573 76.1525L114.761 76.9996L133.193 116.424L135.005 115.577ZM115.667 77.5761H134.355V75.5761H115.667V77.5761ZM133.458 77.0186L152.914 116.443L154.708 115.558L135.252 76.1335L133.458 77.0186ZM153.811 115H134.099V117H153.811V115ZM104.915 69.3841H120.019V67.3841H104.915V69.3841ZM120.019 69.3841C125.449 69.3841 129.648 68.0716 132.386 65.2391L130.948 63.849C128.737 66.1365 125.17 67.3841 120.019 67.3841V69.3841ZM132.386 65.2391C135.072 62.4604 136.379 58.8243 136.379 54.4321H134.379C134.379 58.4025 133.211 61.5077 130.948 63.849L132.386 65.2391ZM136.379 54.4321C136.379 50.0421 135.072 46.4739 132.362 43.8567L130.972 45.2955C133.211 47.4568 134.379 50.4593 134.379 54.4321H136.379ZM132.374 43.869C129.635 41.1297 125.441 39.8641 120.019 39.8641V41.8641C125.178 41.8641 128.75 43.0731 130.96 45.2832L132.374 43.869ZM120.019 39.8641H104.915V41.8641H120.019V39.8641ZM103.915 40.8641V68.3841H105.915V40.8641H103.915ZM162.918 116H161.918V117H162.918V116ZM162.918 52.5121V51.5121H161.918V52.5121H162.918ZM180.198 52.5121H181.198V51.5121H180.198V52.5121ZM180.198 116V117H181.198V116H180.198ZM163.814 41.7601L163.123 42.4827L163.139 42.498L163.155 42.5126L163.814 41.7601ZM163.814 27.6801L163.138 26.9429L163.13 26.9501L163.123 26.9574L163.814 27.6801ZM179.302 27.6801L179.993 26.9574L179.993 26.9574L179.302 27.6801ZM163.918 116V52.5121H161.918V116H163.918ZM162.918 53.5121H180.198V51.5121H162.918V53.5121ZM179.198 52.5121V116H181.198V52.5121H179.198ZM180.198 115H162.918V117H180.198V115ZM171.622 43.4481C168.666 43.4481 166.309 42.6148 164.473 41.0075L163.155 42.5126C165.415 44.4893 168.264 45.4481 171.622 45.4481V43.4481ZM164.505 41.0374C162.748 39.3564 161.87 37.2744 161.87 34.7201H159.87C159.87 37.7977 160.955 40.409 163.123 42.4827L164.505 41.0374ZM161.87 34.7201C161.87 32.1657 162.748 30.0837 164.505 28.4027L163.123 26.9574C160.955 29.0311 159.87 31.6424 159.87 34.7201H161.87ZM164.49 28.4172C166.328 26.7322 168.678 25.8641 171.622 25.8641V23.8641C168.251 23.8641 165.396 24.8733 163.138 26.9429L164.49 28.4172ZM171.622 25.8641C174.567 25.8641 176.864 26.7322 178.611 28.4027L179.993 26.9574C177.814 24.8733 174.992 23.8641 171.622 23.8641V25.8641ZM178.611 28.4027C180.368 30.0837 181.246 32.1657 181.246 34.7201H183.246C183.246 31.6424 182.161 29.0311 179.993 26.9574L178.611 28.4027ZM181.246 34.7201C181.246 37.1795 180.375 39.2219 178.611 40.9094L179.993 42.3547C182.154 40.2876 183.246 37.722 183.246 34.7201H181.246ZM178.611 40.9094C176.864 42.5799 174.567 43.4481 171.622 43.4481V45.4481C174.992 45.4481 177.814 44.4388 179.993 42.3547L178.611 40.9094ZM204.655 113.312L204.108 114.149L204.119 114.156L204.655 113.312ZM194.287 101.408L193.39 101.849L194.287 101.408ZM194.287 67.1041L193.39 66.6629L193.39 66.6629L194.287 67.1041ZM204.783 55.3281L205.312 56.177L205.323 56.1698L204.783 55.3281ZM233.711 53.9201L233.231 54.7972L233.243 54.8039L233.256 54.8103L233.711 53.9201ZM242.415 60.7041L241.637 61.3318L243.415 63.537V60.7041H242.415ZM242.415 26.4001V25.4001H241.415V26.4001H242.415ZM259.695 26.4001H260.695V25.4001H259.695V26.4001ZM259.695 116V117H260.695V116H259.695ZM245.103 116L244.106 116.08L244.18 117H245.103V116ZM244.207 104.864L245.204 104.784L245.13 103.864H244.207V104.864ZM243.695 104.864V103.864H243.135L242.842 104.341L243.695 104.864ZM237.807 111.648L237.175 110.873L237.175 110.873L237.807 111.648ZM229.999 116L229.666 115.057L229.666 115.057L229.999 116ZM234.479 100.896L233.956 100.043L233.95 100.047L233.944 100.051L234.479 100.896ZM240.495 94.2401L239.601 93.7928L239.595 93.8038L240.495 94.2401ZM240.495 74.2721L239.59 74.6979L239.598 74.7141L239.606 74.73L240.495 74.2721ZM234.479 67.4881L233.956 68.3407L233.956 68.3407L234.479 67.4881ZM216.175 67.4881L215.652 66.6355L215.646 66.6393L215.64 66.6432L216.175 67.4881ZM210.159 74.2721L209.265 73.8248L209.259 73.8358L210.159 74.2721ZM210.159 94.2401L209.254 94.6659L209.262 94.6821L209.27 94.698L210.159 94.2401ZM216.175 100.896L215.64 101.741L215.646 101.745L215.652 101.749L216.175 100.896ZM220.271 116.536C214.461 116.536 209.447 115.169 205.191 112.468L204.119 114.156C208.738 117.087 214.135 118.536 220.271 118.536V116.536ZM205.202 112.475C200.924 109.678 197.585 105.85 195.184 100.967L193.39 101.849C195.939 107.035 199.511 111.144 204.108 114.149L205.202 112.475ZM195.184 100.967C192.786 96.0877 191.575 90.5247 191.575 84.2561H189.575C189.575 90.7874 190.838 96.6591 193.39 101.849L195.184 100.967ZM191.575 84.2561C191.575 77.9874 192.786 72.4244 195.184 67.5452L193.39 66.6629C190.838 71.853 189.575 77.7247 189.575 84.2561H191.575ZM195.184 67.5452C197.581 62.6689 200.956 58.8888 205.312 56.177L204.254 54.4792C199.565 57.3993 195.942 61.4698 193.39 66.6629L195.184 67.5452ZM205.323 56.1698C209.66 53.3874 214.842 51.9761 220.911 51.9761V49.9761C214.521 49.9761 208.951 51.466 204.243 54.4864L205.323 56.1698ZM220.911 51.9761C225.728 51.9761 229.822 52.9305 233.231 54.7972L234.191 53.043C230.432 50.9843 225.993 49.9761 220.911 49.9761V51.9761ZM233.256 54.8103C236.826 56.6371 239.608 58.8163 241.637 61.3318L243.193 60.0763C240.955 57.3011 237.935 54.9577 234.166 53.0298L233.256 54.8103ZM243.415 60.7041V26.4001H241.415V60.7041H243.415ZM242.415 27.4001H259.695V25.4001H242.415V27.4001ZM258.695 26.4001V116H260.695V26.4001H258.695ZM259.695 115H245.103V117H259.695V115ZM246.1 115.92L245.204 104.784L243.21 104.944L244.106 116.08L246.1 115.92ZM244.207 103.864H243.695V105.864H244.207V103.864ZM242.842 104.341C241.277 106.895 239.388 109.07 237.175 110.873L238.439 112.423C240.834 110.472 242.87 108.124 244.548 105.387L242.842 104.341ZM237.175 110.873C234.964 112.675 232.463 114.07 229.666 115.057L230.332 116.943C233.338 115.882 236.042 114.376 238.439 112.423L237.175 110.873ZM229.666 115.057C226.888 116.038 223.76 116.536 220.271 116.536V118.536C223.95 118.536 227.308 118.01 230.332 116.943L229.666 115.057ZM225.391 104.328C229.049 104.328 232.27 103.478 235.014 101.741L233.944 100.051C231.568 101.556 228.73 102.328 225.391 102.328V104.328ZM235.002 101.749C237.811 100.027 239.947 97.6627 241.395 94.6763L239.595 93.8038C238.312 96.4494 236.437 98.5229 233.956 100.043L235.002 101.749ZM241.389 94.6873C242.921 91.6238 243.671 88.0949 243.671 84.1281H241.671C241.671 87.8412 240.97 91.0537 239.601 93.7928L241.389 94.6873ZM243.671 84.1281C243.671 80.2435 242.92 76.7957 241.384 73.8141L239.606 74.73C240.971 77.3804 241.671 80.5033 241.671 84.1281H243.671ZM241.4 73.8463C239.954 70.7747 237.819 68.3623 235.002 66.6355L233.956 68.3407C236.43 69.8565 238.305 71.9668 239.59 74.6979L241.4 73.8463ZM235.002 66.6355C232.18 64.9059 228.922 64.0561 225.263 64.0561V66.0561C228.601 66.0561 231.488 66.8276 233.956 68.3407L235.002 66.6355ZM225.263 64.0561C221.684 64.0561 218.471 64.9082 215.652 66.6355L216.698 68.3407C219.17 66.8252 222.015 66.0561 225.263 66.0561V64.0561ZM215.64 66.6432C212.915 68.3688 210.791 70.7727 209.265 73.8248L211.053 74.7193C212.429 71.9688 214.315 69.85 216.71 68.3329L215.64 66.6432ZM209.259 73.8358C207.816 76.8123 207.111 80.2521 207.111 84.1281H209.111C209.111 80.4947 209.771 77.3638 211.059 74.7083L209.259 73.8358ZM207.111 84.1281C207.111 88.0866 207.815 91.6076 209.254 94.6659L211.064 93.8143C209.772 91.0698 209.111 87.8495 209.111 84.1281H207.111ZM209.27 94.698C210.798 97.6647 212.923 100.02 215.64 101.741L216.71 100.051C214.307 98.5295 212.421 96.4474 211.048 93.7821L209.27 94.698ZM215.652 101.749C218.474 103.478 221.732 104.328 225.391 104.328V102.328C222.053 102.328 219.166 101.557 216.698 100.043L215.652 101.749ZM284.572 113.44L284.089 114.316L284.095 114.319L284.572 113.44ZM272.924 101.92L272.055 102.415L272.055 102.415L272.924 101.92ZM272.796 67.3601L271.92 66.8781L271.917 66.8833L272.796 67.3601ZM284.444 55.3281L283.945 54.4616L283.938 54.4654L284.444 55.3281ZM318.62 55.0721L318.124 55.9403L318.124 55.9403L318.62 55.0721ZM329.884 66.3361L329.016 66.8322L329.02 66.839L329.884 66.3361ZM333.852 85.2801L332.855 85.2034L332.852 85.2417V85.2801H333.852ZM333.724 88.4801V89.4801H334.65L334.721 88.5568L333.724 88.4801ZM280.988 88.4801H279.988V89.4801H280.988V88.4801ZM280.988 77.8561V76.8561H279.988V77.8561H280.988ZM316.444 77.8561V78.8561H317.51L317.442 77.7924L316.444 77.8561ZM311.964 68.2561L311.294 68.9982L311.3 69.0034L311.305 69.0086L311.964 68.2561ZM293.788 66.7201L294.247 67.6083L294.259 67.6021L294.271 67.5956L293.788 66.7201ZM287.9 72.7361L288.777 73.2169L288.783 73.2052L287.9 72.7361ZM287.772 95.6481L286.89 96.1186L286.893 96.1249L286.896 96.1311L287.772 95.6481ZM293.404 101.408L292.908 102.276L292.914 102.28L292.921 102.284L293.404 101.408ZM309.66 101.408L310.199 102.25L310.211 102.243L310.222 102.235L309.66 101.408ZM314.524 95.9041V94.9041H313.906L313.63 95.4568L314.524 95.9041ZM332.06 95.9041L333.018 96.1895L333.401 94.9041H332.06V95.9041ZM326.044 106.912L326.799 107.568L326.807 107.558L326.044 106.912ZM315.676 114.72L316.093 115.629L316.1 115.626L316.108 115.622L315.676 114.72ZM301.852 116.536C295.511 116.536 289.919 115.202 285.049 112.561L284.095 114.319C289.295 117.139 295.222 118.536 301.852 118.536V116.536ZM285.055 112.564C280.268 109.924 276.519 106.216 273.793 101.426L272.055 102.415C274.961 107.523 278.977 111.495 284.089 114.316L285.055 112.564ZM273.793 101.426C271.073 96.6449 269.7 91.1446 269.7 84.8961H267.7C267.7 91.4475 269.143 97.2966 272.055 102.415L273.793 101.426ZM269.7 84.8961C269.7 78.3794 271.036 72.703 273.675 67.8368L271.917 66.8833C269.095 72.0865 267.7 78.1007 267.7 84.8961H269.7ZM273.672 67.842C276.403 62.8769 280.159 58.9991 284.95 56.1908L283.938 54.4654C278.83 57.4597 274.821 61.6032 271.92 66.8781L273.672 67.842ZM284.943 56.1945C289.807 53.3916 295.433 51.9761 301.852 51.9761V49.9761C295.129 49.9761 289.15 51.4618 283.945 54.4616L284.943 56.1945ZM301.852 51.9761C308.107 51.9761 313.519 53.3091 318.124 55.9403L319.116 54.2038C314.163 51.3736 308.397 49.9761 301.852 49.9761V51.9761ZM318.124 55.9403C322.747 58.5824 326.374 62.2086 329.016 66.8322L330.752 65.8399C327.933 60.9062 324.05 57.0231 319.116 54.2038L318.124 55.9403ZM329.02 66.839C331.653 71.3646 332.98 76.5212 332.98 82.3361H334.98C334.98 76.2042 333.577 70.6942 330.748 65.8332L329.02 66.839ZM332.98 82.3361C332.98 83.1575 332.939 84.1124 332.855 85.2034L334.849 85.3568C334.936 84.2291 334.98 83.2213 334.98 82.3361H332.98ZM332.852 85.2801C332.852 86.2764 332.81 87.3174 332.727 88.4034L334.721 88.5568C334.808 87.4241 334.852 86.3317 334.852 85.2801H332.852ZM333.724 87.4801H280.988V89.4801H333.724V87.4801ZM281.988 88.4801V77.8561H279.988V88.4801H281.988ZM280.988 78.8561H316.444V76.8561H280.988V78.8561ZM317.442 77.7924C317.171 73.5474 315.576 70.0878 312.623 67.5035L311.305 69.0086C313.813 71.203 315.205 74.1434 315.446 77.9198L317.442 77.7924ZM312.634 67.514C309.782 64.9376 306.205 63.6721 301.98 63.6721V65.6721C305.776 65.6721 308.855 66.7959 311.294 68.9982L312.634 67.514ZM301.98 63.6721C298.834 63.6721 295.936 64.3929 293.305 65.8445L294.271 67.5956C296.589 66.3166 299.152 65.6721 301.98 65.6721V63.6721ZM293.329 65.8318C290.654 67.2154 288.552 69.3773 287.017 72.2669L288.783 73.2052C290.149 70.6335 291.973 68.7847 294.247 67.6083L293.329 65.8318ZM287.023 72.2552C285.468 75.0913 284.724 78.6415 284.724 82.8481H286.724C286.724 78.8626 287.431 75.6715 288.777 73.2169L287.023 72.2552ZM284.724 82.8481V86.5601H286.724V82.8481H284.724ZM284.724 86.5601C284.724 90.1893 285.433 93.3868 286.89 96.1186L288.654 95.1775C287.381 92.7893 286.724 89.9281 286.724 86.5601H284.724ZM286.896 96.1311C288.348 98.762 290.355 100.817 292.908 102.276L293.9 100.54C291.675 99.2682 289.927 97.4834 288.648 95.165L286.896 96.1311ZM292.921 102.284C295.556 103.738 298.498 104.456 301.724 104.456V102.456C298.806 102.456 296.201 101.809 293.887 100.532L292.921 102.284ZM301.724 104.456C305.025 104.456 307.869 103.741 310.199 102.25L309.121 100.566C307.184 101.805 304.737 102.456 301.724 102.456V104.456ZM310.222 102.235C312.491 100.692 314.23 98.7291 315.418 96.3513L313.63 95.4568C312.6 97.5164 311.096 99.2226 309.098 100.581L310.222 102.235ZM314.524 96.9041H332.06V94.9041H314.524V96.9041ZM331.102 95.6186C329.948 99.4914 328.011 103.039 325.281 106.266L326.807 107.558C329.709 104.129 331.783 100.338 333.018 96.1895L331.102 95.6186ZM325.289 106.256C322.568 109.39 319.224 111.911 315.244 113.818L316.108 115.622C320.32 113.604 323.888 110.92 326.799 107.568L325.289 106.256ZM315.259 113.811C311.311 115.621 306.848 116.536 301.852 116.536V118.536C307.096 118.536 311.849 117.574 316.093 115.629L315.259 113.811Z" fill="#151515" mask="url(#path-6-outside-1_572_847)"/>
</svg>
