<svg width="63" height="77" viewBox="0 0 63 77" fill="none" xmlns="http://www.w3.org/2000/svg">
<path d="M2.60089 17.3441C13.1972 21.8716 31.7312 35.8973 21.0963 55.7799C8.82231 78.7269 1.61167 48.5982 13.2936 23.1239M16.1835 16.9215C16.1835 16.9215 20.1178 9.31441 21.9372 4.09894C22.1539 3.47776 21.707 3.34369 21.4591 3.95309L16.1835 16.9215ZM16.1835 16.9215C14.4495 20.523 13.3167 23.0734 13.2936 23.1239M13.2936 23.1239C19.2893 18.9757 37.8 6.59362 52.5963 14.4542" stroke="white" stroke-width="4.62385" stroke-linecap="round"/>
<path d="M27.7431 26.5918C32.5354 22.3319 42.4786 20.2796 53.0533 25.1802C54.0203 25.6283 53.8312 27.0538 52.8246 27.4041C45.9639 29.7916 38.4192 35.9258 35.8349 47.3322C35.5935 48.3977 36.8536 49.0614 37.6684 48.3336C43.9658 42.7081 50.7006 38.9739 60.6881 45.3762" stroke="white" stroke-width="4.62385" stroke-linecap="round"/>
<path d="M29.477 55.7799C31.4147 56.9909 34.2863 59.1764 34.8929 63.119C35.0425 64.0917 35.2362 64.1713 35.7775 63.3494C39.9103 57.0735 56.977 41.7839 60.399 63.2936" stroke="white" stroke-width="4.62385" stroke-linecap="round"/>
<path d="M60.1101 73.092V73.092C60.1101 72.6236 59.7628 72.2303 59.2961 72.1902C48.5507 71.2673 27.0916 73.3714 16.3244 74.7056C15.6328 74.7913 15.6261 74.7484 16.3217 74.7047C22.1004 74.342 45.8457 74.0977 59.2097 74.0081C59.7133 74.0047 60.1101 73.5956 60.1101 73.092Z" stroke="white" stroke-width="2.31193" stroke-linecap="round"/>
<circle cx="11.2706" cy="75.1422" r="1.44495" fill="white"/>
</svg>
