<svg width="93" height="21" viewBox="0 0 93 21" fill="none" xmlns="http://www.w3.org/2000/svg">
<path d="M7.78407 10.097C7.37292 10.3026 6.80024 10.4934 6.06603 10.6697C5.39056 10.8165 5.05282 10.8899 5.05282 10.8899C4.52419 11.0368 4.14241 11.2277 3.90746 11.4626C3.70188 11.7857 3.59909 12.1087 3.59909 12.4318C3.59909 12.8723 3.73125 13.2247 3.99556 13.489C4.25988 13.724 4.64167 13.8414 5.14093 13.8414C5.96324 13.8414 6.60934 13.6065 7.07923 13.1366C7.54913 12.6667 7.78407 12.0206 7.78407 11.1983V10.097ZM8.48891 15.5154C7.87218 15.8385 7.21139 16.0294 6.50655 16.0881C5.83108 16.1762 5.22903 16.2203 4.7004 16.2203C3.64315 16.2203 2.71804 15.9413 1.9251 15.3833C1.13216 14.7959 0.735685 13.8414 0.735685 12.5199C0.735685 11.2864 1.0881 10.4053 1.79294 9.87671C2.52715 9.34808 3.45225 8.99566 4.56825 8.81946C4.71509 8.81946 4.8913 8.80477 5.09688 8.7754C5.30245 8.71667 5.5374 8.67261 5.80171 8.64325C7.09392 8.46704 7.74002 8.08525 7.74002 7.49788C7.74002 7.05736 7.50507 6.77836 7.03518 6.66089C6.59466 6.51405 6.1835 6.44062 5.80171 6.44062C5.39056 6.44062 5.02345 6.49936 4.7004 6.61683C4.37735 6.73431 4.14241 6.95457 3.99556 7.27762H1.04405C1.16153 6.3672 1.57268 5.61831 2.27752 5.03095C3.07046 4.35548 4.20114 4.01774 5.66956 4.01774C7.31418 4.01774 8.54765 4.29674 9.36996 4.85474C10.2216 5.4421 10.6475 6.26441 10.6475 7.32167V11.3304C10.6475 12.5052 10.4272 13.4303 9.98669 14.1057C9.57554 14.7518 9.07628 15.2217 8.48891 15.5154ZM10.8642 20.8898V18.3348H11.4369C11.7012 18.3348 11.8774 18.2614 11.9655 18.1145C12.083 18.0264 12.1417 17.8355 12.1417 17.5418V16V7.14546V4.28206H13.7276C14.1388 4.28206 14.4912 4.4289 14.7849 4.72258C15.0786 5.01626 15.2254 5.36868 15.2254 5.77984V16V18.0264C15.2254 19.0249 14.9317 19.7591 14.3444 20.229C13.757 20.6696 12.7878 20.8898 11.4369 20.8898H10.8642ZM12.1417 0.845967H13.7276C14.1388 0.845967 14.4912 0.992808 14.7849 1.28649C15.0786 1.58017 15.2254 1.93259 15.2254 2.34375V3.26885H12.1417V0.845967ZM23.4597 10.097C23.0485 10.3026 22.4758 10.4934 21.7416 10.6697C21.0662 10.8165 20.7284 10.8899 20.7284 10.8899C20.1998 11.0368 19.818 11.2277 19.5831 11.4626C19.3775 11.7857 19.2747 12.1087 19.2747 12.4318C19.2747 12.8723 19.4069 13.2247 19.6712 13.489C19.9355 13.724 20.3173 13.8414 20.8165 13.8414C21.6389 13.8414 22.285 13.6065 22.7548 13.1366C23.2247 12.6667 23.4597 12.0206 23.4597 11.1983V10.097ZM24.1645 15.5154C23.5478 15.8385 22.887 16.0294 22.1822 16.0881C21.5067 16.1762 20.9046 16.2203 20.376 16.2203C19.3188 16.2203 18.3937 15.9413 17.6007 15.3833C16.8078 14.7959 16.4113 13.8414 16.4113 12.5199C16.4113 11.2864 16.7637 10.4053 17.4686 9.87671C18.2028 9.34808 19.1279 8.99566 20.2439 8.81946C20.3907 8.81946 20.5669 8.80477 20.7725 8.7754C20.9781 8.71667 21.213 8.67261 21.4773 8.64325C22.7695 8.46704 23.4156 8.08525 23.4156 7.49788C23.4156 7.05736 23.1807 6.77836 22.7108 6.66089C22.2703 6.51405 21.8591 6.44062 21.4773 6.44062C21.0662 6.44062 20.6991 6.49936 20.376 6.61683C20.053 6.73431 19.818 6.95457 19.6712 7.27762H16.7197C16.8371 6.3672 17.2483 5.61831 17.9531 5.03095C18.7461 4.35548 19.8768 4.01774 21.3452 4.01774C22.9898 4.01774 24.2233 4.29674 25.0456 4.85474C25.8973 5.4421 26.3231 6.26441 26.3231 7.32167V11.3304C26.3231 12.5052 26.1028 13.4303 25.6623 14.1057C25.2512 14.7518 24.7519 15.2217 24.1645 15.5154ZM30.6367 4.28206V8.59919L34.3812 4.28206H38.0816L33.8966 8.7754L38.1256 16H34.4252L32.2666 12.0353C31.8261 11.2423 31.4443 10.9046 31.1213 11.0221C30.7982 11.1395 30.6367 11.3158 30.6367 11.5507V13.1806V16H27.553V0.845967H29.1389C29.5501 0.845967 29.9025 0.992808 30.1962 1.28649C30.4899 1.58017 30.6367 1.91791 30.6367 2.2997V4.28206Z" fill="#444144"/>
<path d="M47.1969 15.2952V14.5463C46.6683 15.3686 45.9487 15.8825 45.0383 16.0881C44.1573 16.2937 43.2762 16.2203 42.3952 15.8678C41.5141 15.5154 40.7506 14.8693 40.1045 13.9295C39.4877 12.9604 39.1794 11.6975 39.1794 10.141C39.1794 8.32019 39.5905 6.85178 40.4128 5.73579C41.2645 4.59042 42.6154 4.01774 44.4656 4.01774C45.8753 4.01774 47.1822 4.39953 48.3863 5.1631C49.5904 5.92668 50.1925 7.33636 50.1925 9.39214V15.6035C50.1925 17.6593 49.5904 19.0543 48.3863 19.7885C47.1822 20.5521 45.8753 20.9339 44.4656 20.9339C41.7638 20.9339 40.0898 19.671 39.4437 17.1454H42.6595C42.8944 17.5565 43.2469 17.8649 43.7168 18.0705C44.216 18.3054 44.7006 18.3641 45.1705 18.2467C45.6697 18.1586 46.1103 17.8796 46.4921 17.4097C46.9032 16.9398 47.1382 16.2349 47.1969 15.2952ZM42.1749 10.2291C42.1749 12.2555 42.7623 13.3862 43.937 13.6212C45.1117 13.8267 45.9781 13.5477 46.5361 12.7842C46.8004 12.4611 46.9913 11.9619 47.1088 11.2864C47.2263 10.5816 47.2263 9.8914 47.1088 9.21593C47.0207 8.54046 46.7857 7.93841 46.404 7.40978C46.0222 6.88115 45.4642 6.61683 44.73 6.61683C43.7314 6.61683 43.056 6.98394 42.7035 7.71814C42.3511 8.45235 42.1749 9.28935 42.1749 10.2291ZM59.6602 12.3877H61.8628C61.5398 13.6212 60.923 14.561 60.0126 15.2071C59.1022 15.8825 57.9568 16.2203 56.5765 16.2203C54.9025 16.2203 53.5957 15.6769 52.6559 14.5903C51.7161 13.5331 51.2462 12.0206 51.2462 10.0529C51.2462 8.17335 51.7014 6.70494 52.6118 5.64768C53.5516 4.56105 54.8585 4.01774 56.5325 4.01774C58.2946 4.01774 59.6602 4.54637 60.6294 5.60363C61.5691 6.69025 62.039 8.20272 62.039 10.141C62.039 10.2585 62.039 10.3613 62.039 10.4494C62.039 10.5375 62.039 10.5962 62.039 10.6256C62.039 10.7724 62.0244 10.8752 61.995 10.934H54.3739C54.4033 11.8444 54.6235 12.5199 55.0347 12.9604C55.4165 13.4303 55.9892 13.6652 56.7527 13.6652C57.252 13.6652 57.6778 13.5624 58.0303 13.3569C58.1184 13.3275 58.1918 13.2834 58.2505 13.2247C58.3386 13.1366 58.4267 13.0485 58.5148 12.9604C58.5442 12.8723 58.647 12.7548 58.8232 12.608C59.0288 12.4611 59.3078 12.3877 59.6602 12.3877ZM54.3739 8.95161H58.8673C58.8085 8.15867 58.6029 7.5713 58.2505 7.18952C57.8687 6.77836 57.3254 6.57278 56.6206 6.57278C55.9745 6.57278 55.4459 6.77836 55.0347 7.18952C54.6235 7.60067 54.4033 8.18804 54.3739 8.95161ZM63.313 16V10.3172C63.313 9.17187 63.4746 8.21741 63.7976 7.45383C64.15 6.66089 64.6199 6.02947 65.2073 5.55958C65.7653 5.11905 66.4114 4.796 67.1456 4.59042C67.9092 4.38484 68.6874 4.28206 69.4804 4.28206C69.5391 4.28206 69.6125 4.28206 69.7006 4.28206C69.7887 4.28206 69.8622 4.28206 69.9209 4.28206V7.40978H68.9077C68.056 7.40978 67.4246 7.61536 67.0134 8.02651C66.6023 8.43767 66.3967 9.08377 66.3967 9.96482V16H63.313ZM77.8028 10.097C77.3916 10.3026 76.8189 10.4934 76.0847 10.6697C75.4092 10.8165 75.0715 10.8899 75.0715 10.8899C74.5429 11.0368 74.1611 11.2277 73.9261 11.4626C73.7206 11.7857 73.6178 12.1087 73.6178 12.4318C73.6178 12.8723 73.7499 13.2247 74.0142 13.489C74.2786 13.724 74.6604 13.8414 75.1596 13.8414C75.9819 13.8414 76.628 13.6065 77.0979 13.1366C77.5678 12.6667 77.8028 12.0206 77.8028 11.1983V10.097ZM78.5076 15.5154C77.8909 15.8385 77.2301 16.0294 76.5252 16.0881C75.8498 16.1762 75.2477 16.2203 74.7191 16.2203C73.6618 16.2203 72.7367 15.9413 71.9438 15.3833C71.1508 14.7959 70.7544 13.8414 70.7544 12.5199C70.7544 11.2864 71.1068 10.4053 71.8116 9.87671C72.5458 9.34808 73.4709 8.99566 74.5869 8.81946C74.7338 8.81946 74.91 8.80477 75.1156 8.7754C75.3211 8.71667 75.5561 8.67261 75.8204 8.64325C77.1126 8.46704 77.7587 8.08525 77.7587 7.49788C77.7587 7.05736 77.5238 6.77836 77.0539 6.66089C76.6133 6.51405 76.2022 6.44062 75.8204 6.44062C75.4092 6.44062 75.0421 6.49936 74.7191 6.61683C74.396 6.73431 74.1611 6.95457 74.0142 7.27762H71.0627C71.1802 6.3672 71.5914 5.61831 72.2962 5.03095C73.0891 4.35548 74.2198 4.01774 75.6882 4.01774C77.3329 4.01774 78.5663 4.29674 79.3886 4.85474C80.2403 5.4421 80.6662 6.26441 80.6662 7.32167V11.3304C80.6662 12.5052 80.4459 13.4303 80.0054 14.1057C79.5942 14.7518 79.095 15.2217 78.5076 15.5154ZM84.9798 4.28206V8.59919L88.7242 4.28206H92.4246L88.2397 8.7754L92.4687 16H88.7683L86.6097 12.0353C86.1692 11.2423 85.7874 10.9046 85.4644 11.0221C85.1413 11.1395 84.9798 11.3158 84.9798 11.5507V13.1806V16H81.8961V0.845967H83.482C83.8932 0.845967 84.2456 0.992808 84.5393 1.28649C84.8329 1.58017 84.9798 1.91791 84.9798 2.2997V4.28206Z" fill="#32B281"/>
</svg>
