<svg width="3000" height="3000" viewBox="0 0 3000 3000" fill="none" xmlns="http://www.w3.org/2000/svg">
<path d="M1224.44 1178.03L1385.01 955.423C1391.23 946.797 1404.59 948.767 1408.06 958.822L1470.1 1138.7C1472.7 1146.26 1468.01 1154.36 1460.17 1155.87L1237.56 1198.59C1225.9 1200.83 1217.5 1187.66 1224.44 1178.03Z" fill="#141414"/>
<path d="M1701.68 1095.09L1595.81 950.401C1589.6 941.914 1576.43 943.811 1572.87 953.705L1509.35 1130.15C1505.91 1139.7 1514.15 1149.37 1524.12 1147.5L1693.51 1115.74C1703 1113.96 1707.38 1102.88 1701.68 1095.09Z" fill="#141414"/>
<circle cx="2161.1" cy="1801.06" r="60.6874" fill="#141414"/>
<ellipse cx="1490.52" cy="1038.89" rx="33.1868" ry="33.1868" fill="#141414"/>
<path d="M2071.27 1852.14V1742.1C2071.27 1736.13 2065.88 1731.61 2060.01 1732.65L1436.43 1842.69C1424.88 1844.73 1426.37 1861.74 1438.1 1861.74H2061.67C2066.98 1861.74 2071.27 1857.45 2071.27 1852.14Z" fill="#141414"/>
<path d="M1484.59 844.916C1487.51 837.53 1497.96 837.53 1500.87 844.916L1515.95 883.135C1516.84 885.39 1518.62 887.175 1520.88 888.065L1559.1 903.138C1566.48 906.051 1566.48 916.504 1559.1 919.417L1520.88 934.49C1518.62 935.379 1516.84 937.164 1515.95 939.419L1500.87 977.638C1497.96 985.024 1487.51 985.024 1484.59 977.638L1469.52 939.419C1468.63 937.164 1466.85 935.379 1464.59 934.49L1426.37 919.417C1418.99 916.504 1418.99 906.051 1426.37 903.138L1464.59 888.065C1466.85 887.175 1468.63 885.39 1469.52 883.135L1484.59 844.916Z" fill="#141414"/>
<path fill-rule="evenodd" clip-rule="evenodd" d="M2138.36 1504.19C2101.69 1510.65 2074.93 1542.48 2074.87 1579.71L2074.87 1583.84C2074.79 1631.63 2117.92 1667.88 2164.99 1659.59L2174.34 1657.94C2211.05 1651.48 2237.81 1619.58 2237.81 1582.31V1578.19C2237.81 1530.45 2194.72 1494.28 2147.7 1502.55L2138.36 1504.19Z" fill="#141414"/>
<path fill-rule="evenodd" clip-rule="evenodd" d="M2225.4 1155.65V1155.65C2225.82 1114.8 2189.05 1083.6 2148.82 1090.67L2119.83 1095.77C2083.1 1102.23 2056.32 1134.13 2056.32 1171.41V1179.02C2056.32 1183.28 2056.68 1187.53 2057.38 1191.72L2095.67 1420.07C2100.92 1451.32 2130.76 1472.22 2161.92 1466.45V1466.45C2187.42 1461.74 2206.48 1440.32 2208.2 1414.45L2225.4 1155.65Z" fill="#141414"/>
<path fill-rule="evenodd" clip-rule="evenodd" d="M1595.38 1668.34C1595.36 1716.1 1638.46 1752.3 1685.49 1744.02L1952.56 1697.01C1984.3 1691.42 2007.45 1663.85 2007.45 1631.61V1615.95C2007.45 1583.15 1978 1558.18 1945.64 1563.55V1563.55L1818.38 1586.74C1788.41 1592.21 1760.81 1569.18 1760.81 1538.71V1538.71C1760.81 1515.03 1777.81 1494.76 1801.13 1490.64L1902.72 1472.68C1932.34 1467.44 1953.93 1441.7 1953.93 1411.62V1411.62C1953.94 1373.2 1919.35 1344.01 1881.47 1350.49L1842.84 1357.09L1805.13 1363.74C1782.02 1367.81 1760.82 1350.08 1760.72 1326.62V1326.62V1326.62C1760.77 1300.63 1779.45 1278.41 1805.05 1273.9L1939.32 1250.25C1968.19 1245.16 1989.24 1220.08 1989.24 1190.76V1190.76C1989.24 1153.21 1955.35 1124.76 1918.37 1131.27L1659.08 1176.9C1622.37 1183.36 1595.6 1215.23 1595.59 1252.5L1595.38 1668.34Z" fill="#141414"/>
<path fill-rule="evenodd" clip-rule="evenodd" d="M1301.67 1607.26C1301.67 1607.26 1301.67 1607.27 1301.68 1607.27C1319.24 1609.12 1349.05 1611.06 1362.27 1623.4C1382.76 1642.76 1364.78 1673.86 1342.07 1685.31C1302.49 1705.35 1260.04 1692.65 1222.52 1672.1V1672.1C1205.46 1660 1182.56 1656.22 1163.5 1664.83L1105.75 1690.93C1071.82 1706.27 1055.86 1745.17 1085.75 1767.36C1116.09 1789.88 1157.14 1805.36 1185.42 1810.73C1284.88 1829.71 1435.2 1807.63 1499.28 1725.91C1526.67 1690.94 1544.73 1635.72 1538.24 1589.61C1535.19 1568.54 1534.17 1559.92 1527.21 1542.72C1517.47 1518.47 1497.46 1499.1 1476.03 1484.88C1465.98 1478.11 1455.12 1472.57 1443.72 1468.38C1417.77 1458.43 1390.6 1452.01 1362.92 1449.24C1329.89 1445.73 1241.3 1440.18 1244.43 1396.17C1245.32 1383.94 1257.42 1376.08 1266.49 1369.66C1289.01 1353.6 1316.88 1358.33 1339.81 1369.06C1368.65 1382.55 1401.26 1393.42 1430.23 1380.24C1439.39 1376.07 1449.03 1371.63 1458.45 1367.29C1492.95 1351.37 1507.76 1313.88 1478.49 1289.65C1466.41 1279.64 1454.32 1271.17 1446.57 1266.58C1429.08 1256.17 1415.66 1250.49 1395.23 1243.54C1380.64 1238.63 1347.39 1236.29 1328.14 1236.34C1237.66 1236.64 1123.6 1265.83 1083.7 1356.57C1059.32 1412.08 1059.89 1477.77 1090.75 1520.96C1118.89 1560.56 1174 1583.77 1220.62 1595.47C1248.99 1602.54 1274.5 1604.35 1301.67 1607.25C1301.68 1607.25 1301.68 1607.26 1301.67 1607.26V1607.26Z" fill="#141414"/>
<path fill-rule="evenodd" clip-rule="evenodd" d="M835.794 1801.22C835.722 1849.27 879.294 1885.59 926.546 1876.86L934.971 1875.31C971.422 1868.57 997.862 1836.76 997.82 1799.7L997.359 1385.16C997.306 1337.58 954.451 1301.5 907.562 1309.55L900.226 1310.81C863.408 1317.13 836.48 1349.03 836.423 1386.39L835.794 1801.22Z" fill="#141414"/>
<path d="M1102.7 1194.19L1480.42 669.579C1488.07 658.955 1503.87 658.934 1511.55 669.537L1801.82 1070.38" stroke="#141414" stroke-width="86.4002" stroke-linecap="round"/>
<path d="M738.58 1699.11L579.275 1913.64C569.868 1926.3 578.91 1944.28 594.69 1944.28H1396.01" stroke="#141414" stroke-width="86.4002" stroke-linecap="round"/>
<path d="M2258.85 1699.11L2418.15 1913.64C2427.56 1926.3 2418.52 1944.28 2402.74 1944.28H1601.42" stroke="#141414" stroke-width="86.4002" stroke-linecap="round"/>
<path d="M523 2205.53V2121.41H546.756V2205.53H523Z" fill="#141414"/>
<path d="M563.668 2205.53V2121.41H583.216L629.514 2177.4H620.274V2121.41H643.544V2205.53H623.996L577.698 2149.53H586.938V2205.53H563.668Z" fill="#141414"/>
<path d="M684.098 2205.53H660.342V2121.41H726.188V2139.79H684.081V2205.51L684.098 2205.53ZM682.415 2158.3H721.155V2176.69H682.415V2158.3Z" fill="#141414"/>
<path d="M778.976 2207.23C772.26 2207.23 766.063 2206.14 760.383 2203.99C754.703 2201.83 749.767 2198.77 745.576 2194.79C741.384 2190.82 738.116 2186.2 735.801 2180.92C733.487 2175.63 732.322 2169.83 732.322 2163.49C732.322 2157.15 733.487 2151.35 735.801 2146.06C738.116 2140.78 741.384 2136.14 745.576 2132.19C749.767 2128.22 754.703 2125.15 760.383 2123C766.063 2120.84 772.26 2119.75 778.976 2119.75C785.692 2119.75 791.987 2120.84 797.634 2123C803.266 2125.15 808.169 2128.22 812.328 2132.19C816.487 2136.16 819.74 2140.78 822.102 2146.06C824.465 2151.35 825.646 2157.15 825.646 2163.49C825.646 2169.83 824.465 2175.65 822.102 2180.98C819.74 2186.32 816.487 2190.94 812.328 2194.86C808.169 2198.78 803.266 2201.83 797.634 2203.99C792.003 2206.14 785.773 2207.23 778.976 2207.23ZM778.976 2187.52C782.18 2187.52 785.158 2186.95 787.909 2185.83C790.676 2184.71 793.071 2183.09 795.11 2180.97C797.149 2178.84 798.751 2176.3 799.9 2173.33C801.065 2170.36 801.648 2167.09 801.648 2163.47C801.648 2159.86 801.065 2156.49 799.9 2153.55C798.735 2150.64 797.149 2148.11 795.11 2145.98C793.071 2143.86 790.676 2142.24 787.909 2141.12C785.142 2140 782.164 2139.43 778.976 2139.43C775.788 2139.43 772.794 2140 770.043 2141.12C767.276 2142.24 764.881 2143.86 762.842 2145.98C760.803 2148.11 759.201 2150.64 758.052 2153.55C756.887 2156.47 756.305 2159.78 756.305 2163.47C756.305 2167.17 756.887 2170.36 758.052 2173.33C759.217 2176.3 760.803 2178.84 762.842 2180.97C764.881 2183.09 767.276 2184.71 770.043 2185.83C772.811 2186.95 775.772 2187.52 778.976 2187.52Z" fill="#141414"/>
<path d="M838.094 2205.53V2121.41H876.479C884.149 2121.41 890.768 2122.66 896.335 2125.14C901.885 2127.62 906.19 2131.2 909.232 2135.88C912.274 2140.57 913.796 2146.11 913.796 2152.53C913.796 2158.95 912.274 2164.34 909.232 2168.94C906.19 2173.54 901.902 2177.08 896.335 2179.51C890.768 2181.96 884.166 2183.17 876.479 2183.17H851.283L861.834 2173.2V2205.53H838.078H838.094ZM861.85 2175.73L851.299 2164.79H875.055C880.007 2164.79 883.713 2163.7 886.156 2161.55C888.6 2159.39 889.813 2156.38 889.813 2152.53C889.813 2148.69 888.6 2145.56 886.156 2143.41C883.713 2141.25 880.023 2140.16 875.055 2140.16H851.299L861.85 2129.22V2175.73ZM890.04 2205.53L869.165 2174.89H894.474L915.462 2205.53H890.04Z" fill="#141414"/>
<path d="M926.869 2205.53V2121.41H946.417L981.21 2178.6H970.885L1004.71 2121.41H1024.25L1024.5 2205.53H1002.67L1002.42 2154.71H1006.15L980.837 2197.24H970.287L944.265 2154.71H948.829V2205.53H926.885H926.869Z" fill="#141414"/>
<path d="M1031.23 2205.53L1068.29 2121.41H1091.67L1128.86 2205.53H1104.15L1075.12 2133.06H1084.47L1055.44 2205.53H1031.21H1031.23ZM1051.51 2189.19L1057.62 2171.65H1098.65L1104.76 2189.19H1051.51Z" fill="#141414"/>
<path d="M1149.25 2205.53V2140.28H1123.46V2121.41H1198.65V2140.28H1172.99V2205.53H1149.23H1149.25Z" fill="#141414"/>
<path d="M1207.55 2205.53V2121.41H1231.3V2205.53H1207.55Z" fill="#141414"/>
<path d="M1290.55 2207.23C1283.83 2207.23 1277.63 2206.14 1271.95 2203.99C1266.27 2201.83 1261.34 2198.77 1257.15 2194.79C1252.96 2190.82 1249.69 2186.2 1247.37 2180.92C1245.06 2175.63 1243.89 2169.83 1243.89 2163.49C1243.89 2157.15 1245.06 2151.35 1247.37 2146.06C1249.69 2140.78 1252.96 2136.14 1257.15 2132.19C1261.34 2128.22 1266.27 2125.15 1271.95 2123C1277.63 2120.84 1283.83 2119.75 1290.55 2119.75C1297.26 2119.75 1303.56 2120.84 1309.21 2123C1314.84 2125.15 1319.74 2128.22 1323.9 2132.19C1328.06 2136.16 1331.31 2140.78 1333.67 2146.06C1336.04 2151.35 1337.22 2157.15 1337.22 2163.49C1337.22 2169.83 1336.04 2175.65 1333.67 2180.98C1331.31 2186.32 1328.06 2190.94 1323.9 2194.86C1319.74 2198.78 1314.84 2201.83 1309.21 2203.99C1303.58 2206.14 1297.35 2207.23 1290.55 2207.23ZM1290.55 2187.52C1293.75 2187.52 1296.73 2186.95 1299.48 2185.83C1302.25 2184.71 1304.64 2183.09 1306.68 2180.97C1308.72 2178.84 1310.32 2176.3 1311.47 2173.33C1312.64 2170.36 1313.22 2167.09 1313.22 2163.47C1313.22 2159.86 1312.64 2156.49 1311.47 2153.55C1310.31 2150.64 1308.72 2148.11 1306.68 2145.98C1304.64 2143.86 1302.25 2142.24 1299.48 2141.12C1296.71 2140 1293.74 2139.43 1290.55 2139.43C1287.36 2139.43 1284.37 2140 1281.62 2141.12C1278.85 2142.24 1276.45 2143.86 1274.41 2145.98C1272.38 2148.11 1270.77 2150.64 1269.62 2153.55C1268.46 2156.47 1267.88 2159.78 1267.88 2163.47C1267.88 2167.17 1268.46 2170.36 1269.62 2173.33C1270.79 2176.3 1272.38 2178.84 1274.41 2180.97C1276.45 2183.09 1278.85 2184.71 1281.62 2185.83C1284.38 2186.95 1287.34 2187.52 1290.55 2187.52Z" fill="#141414"/>
<path d="M1349.67 2205.53V2121.41H1369.22L1415.52 2177.4H1406.28V2121.41H1429.55V2205.53H1410L1363.7 2149.53H1372.94V2205.53H1349.67Z" fill="#141414"/>
<path d="M1510.78 2207.22C1503.9 2207.22 1497.28 2206.36 1490.92 2204.64C1484.56 2202.92 1479.38 2200.7 1475.39 2197.98L1483.19 2180.44C1486.94 2182.84 1491.28 2184.83 1496.2 2186.39C1501.12 2187.94 1506.02 2188.74 1510.89 2188.74C1514.18 2188.74 1516.81 2188.43 1518.8 2187.83C1520.81 2187.23 1522.27 2186.44 1523.19 2185.43C1524.11 2184.43 1524.57 2183.24 1524.57 2181.88C1524.57 2179.95 1523.69 2178.44 1521.93 2177.31C1520.16 2176.19 1517.88 2175.27 1515.08 2174.54C1512.28 2173.82 1509.19 2173.09 1505.79 2172.38C1502.4 2171.67 1499 2170.74 1495.6 2169.61C1492.2 2168.49 1489.11 2167.03 1486.31 2165.21C1483.51 2163.42 1481.23 2161.05 1479.48 2158.13C1477.72 2155.21 1476.84 2151.5 1476.84 2147.01C1476.84 2141.97 1478.22 2137.4 1480.99 2133.31C1483.75 2129.23 1487.88 2125.94 1493.4 2123.46C1498.92 2120.97 1505.79 2119.73 1514.03 2119.73C1519.55 2119.73 1524.97 2120.34 1530.28 2121.59C1535.6 2122.84 1540.33 2124.65 1544.49 2127.05L1537.17 2144.72C1533.17 2142.57 1529.21 2140.95 1525.29 2139.86C1521.38 2138.77 1517.57 2138.24 1513.9 2138.24C1510.62 2138.24 1507.98 2138.58 1505.99 2139.26C1503.98 2139.94 1502.56 2140.85 1501.67 2141.97C1500.79 2143.09 1500.36 2144.37 1500.36 2145.81C1500.36 2147.66 1501.21 2149.12 1502.93 2150.2C1504.64 2151.29 1506.93 2152.16 1509.77 2152.85C1512.61 2153.53 1515.73 2154.22 1519.13 2154.95C1522.53 2155.68 1525.92 2156.57 1529.32 2157.66C1532.72 2158.75 1535.81 2160.19 1538.61 2161.99C1541.41 2163.79 1543.66 2166.16 1545.39 2169.07C1547.11 2171.99 1547.96 2175.67 1547.96 2180.06C1547.96 2184.94 1546.59 2189.45 1543.82 2193.58C1541.05 2197.72 1536.94 2201.01 1531.47 2203.51C1526.01 2205.99 1519.1 2207.23 1510.78 2207.23V2207.22Z" fill="#141414"/>
<path d="M1578.3 2205.53V2169.96L1583.82 2184.26L1546.28 2121.41H1571.35L1598.45 2166.95H1583.94L1611.17 2121.41H1634.2L1596.77 2184.26L1602.04 2169.96V2205.53H1578.29H1578.3Z" fill="#141414"/>
<path d="M1667.9 2207.22C1661.02 2207.22 1654.4 2206.36 1648.04 2204.64C1641.69 2202.92 1636.51 2200.7 1632.51 2197.98L1640.31 2180.44C1644.06 2182.84 1648.4 2184.83 1653.32 2186.39C1658.24 2187.94 1663.14 2188.74 1668.01 2188.74C1671.3 2188.74 1673.94 2188.43 1675.93 2187.83C1677.93 2187.23 1679.39 2186.44 1680.31 2185.43C1681.23 2184.43 1681.69 2183.24 1681.69 2181.88C1681.69 2179.95 1680.81 2178.44 1679.05 2177.31C1677.29 2176.19 1675 2175.27 1672.21 2174.54C1669.41 2173.82 1666.31 2173.09 1662.92 2172.38C1659.52 2171.67 1656.12 2170.74 1652.72 2169.61C1649.32 2168.49 1646.23 2167.03 1643.43 2165.21C1640.63 2163.42 1638.35 2161.05 1636.6 2158.13C1634.84 2155.21 1633.97 2151.5 1633.97 2147.01C1633.97 2141.97 1635.34 2137.4 1638.11 2133.31C1640.88 2129.23 1645 2125.94 1650.52 2123.46C1656.04 2120.97 1662.92 2119.73 1671.15 2119.73C1676.67 2119.73 1682.09 2120.34 1687.4 2121.59C1692.72 2122.84 1697.45 2124.65 1701.61 2127.05L1694.29 2144.72C1690.3 2142.57 1686.33 2140.95 1682.42 2139.86C1678.5 2138.77 1674.7 2138.24 1671.02 2138.24C1667.74 2138.24 1665.1 2138.58 1663.11 2139.26C1661.1 2139.94 1659.68 2140.85 1658.79 2141.97C1657.92 2143.09 1657.48 2144.37 1657.48 2145.81C1657.48 2147.66 1658.34 2149.12 1660.05 2150.2C1661.77 2151.29 1664.05 2152.16 1666.9 2152.85C1669.73 2153.53 1672.85 2154.22 1676.25 2154.95C1679.65 2155.68 1683.05 2156.57 1686.45 2157.66C1689.84 2158.75 1692.93 2160.19 1695.73 2161.99C1698.53 2163.79 1700.78 2166.16 1702.51 2169.07C1704.23 2171.99 1705.09 2175.67 1705.09 2180.06C1705.09 2184.94 1703.71 2189.45 1700.95 2193.58C1698.18 2197.72 1694.07 2201.01 1688.6 2203.51C1683.13 2205.99 1676.22 2207.23 1667.9 2207.23V2207.22Z" fill="#141414"/>
<path d="M1732.66 2205.53V2140.28H1706.87V2121.41H1782.06V2140.28H1756.4V2205.53H1732.64H1732.66Z" fill="#141414"/>
<path d="M1814.48 2187.14H1858.38V2205.53H1790.96V2121.41H1856.81V2139.79H1814.46V2187.13L1814.48 2187.14ZM1812.79 2153.98H1851.78V2171.76H1812.79V2153.98Z" fill="#141414"/>
<path d="M1871.58 2205.53V2121.41H1891.12L1925.92 2178.6H1915.59L1949.41 2121.41H1968.96L1969.2 2205.53H1947.37L1947.13 2154.71H1950.85L1925.54 2197.24H1914.99L1888.97 2154.71H1893.54V2205.53H1871.59H1871.58Z" fill="#141414"/>
<path d="M2015.5 2207.22C2008.62 2207.22 2002.01 2206.36 1995.65 2204.64C1989.29 2202.92 1984.11 2200.7 1980.11 2197.98L1987.91 2180.44C1991.67 2182.84 1996 2184.83 2000.92 2186.39C2005.84 2187.94 2010.74 2188.74 2015.62 2188.74C2018.9 2188.74 2021.54 2188.43 2023.53 2187.83C2025.54 2187.23 2026.99 2186.44 2027.91 2185.43C2028.84 2184.43 2029.29 2183.24 2029.29 2181.88C2029.29 2179.95 2028.42 2178.44 2026.65 2177.31C2024.89 2176.19 2022.61 2175.27 2019.81 2174.54C2017.01 2173.82 2013.92 2173.09 2010.52 2172.38C2007.12 2171.67 2003.72 2170.74 2000.32 2169.61C1996.92 2168.49 1993.83 2167.03 1991.03 2165.21C1988.23 2163.42 1985.95 2161.05 1984.21 2158.13C1982.44 2155.21 1981.57 2151.5 1981.57 2147.01C1981.57 2141.97 1982.94 2137.4 1985.71 2133.31C1988.48 2129.23 1992.6 2125.94 1998.12 2123.46C2003.64 2120.97 2010.52 2119.73 2018.75 2119.73C2024.27 2119.73 2029.69 2120.34 2035 2121.59C2040.33 2122.84 2045.05 2124.65 2049.21 2127.05L2041.9 2144.72C2037.9 2142.57 2033.93 2140.95 2030.02 2139.86C2026.1 2138.77 2022.3 2138.24 2018.63 2138.24C2015.34 2138.24 2012.7 2138.58 2010.71 2139.26C2008.71 2139.94 2007.28 2140.85 2006.39 2141.97C2005.52 2143.09 2005.08 2144.37 2005.08 2145.81C2005.08 2147.66 2005.94 2149.12 2007.65 2150.2C2009.37 2151.29 2011.65 2152.16 2014.5 2152.85C2017.33 2153.53 2020.45 2154.22 2023.85 2154.95C2027.25 2155.68 2030.65 2156.57 2034.05 2157.66C2037.45 2158.75 2040.54 2160.19 2043.34 2161.99C2046.14 2163.79 2048.38 2166.16 2050.12 2169.07C2051.83 2171.99 2052.69 2175.67 2052.69 2180.06C2052.69 2184.94 2051.31 2189.45 2048.55 2193.58C2045.78 2197.72 2041.67 2201.01 2036.2 2203.51C2030.73 2205.99 2023.82 2207.23 2015.5 2207.23V2207.22Z" fill="#141414"/>
<path d="M2122.01 2187.14H2165.91V2205.53H2098.5V2121.41H2164.34V2139.79H2121.99V2187.13L2122.01 2187.14ZM2120.33 2153.98H2159.31V2171.76H2120.33V2153.98Z" fill="#141414"/>
<path d="M2169.76 2205.53L2206.46 2154.47L2206.35 2171.41L2171.08 2121.43H2197.83L2220.39 2154L2209 2154.11L2231.19 2121.43H2256.85L2221.59 2170.45V2153.63L2258.78 2205.53H2231.43L2208.51 2171.3H2219.44L2196.88 2205.53H2169.77H2169.76Z" fill="#141414"/>
<path d="M2264.27 2205.53V2121.41H2302.65C2310.33 2121.41 2316.94 2122.66 2322.51 2125.14C2328.06 2127.62 2332.37 2131.2 2335.41 2135.88C2338.45 2140.57 2339.97 2146.11 2339.97 2152.53C2339.97 2158.95 2338.45 2164.35 2335.41 2169C2332.37 2173.66 2328.08 2177.24 2322.51 2179.75C2316.94 2182.28 2310.34 2183.53 2302.65 2183.53H2277.46L2288.01 2173.19V2205.51H2264.25L2264.27 2205.53ZM2288.03 2175.73L2277.47 2164.79H2301.23C2306.18 2164.79 2309.89 2163.7 2312.33 2161.55C2314.78 2159.39 2315.99 2156.38 2315.99 2152.53C2315.99 2148.69 2314.78 2145.56 2312.33 2143.41C2309.89 2141.25 2306.2 2140.16 2301.23 2140.16H2277.47L2288.03 2129.22V2175.73Z" fill="#141414"/>
<path d="M2395.04 2207.23C2388.32 2207.23 2382.12 2206.14 2376.44 2203.99C2370.76 2201.83 2365.83 2198.77 2361.64 2194.79C2357.45 2190.82 2354.18 2186.2 2351.86 2180.92C2349.55 2175.63 2348.38 2169.83 2348.38 2163.49C2348.38 2157.15 2349.55 2151.35 2351.86 2146.06C2354.18 2140.78 2357.45 2136.14 2361.64 2132.19C2365.83 2128.22 2370.76 2125.15 2376.44 2123C2382.12 2120.84 2388.32 2119.75 2395.04 2119.75C2401.75 2119.75 2408.05 2120.84 2413.7 2123C2419.33 2125.15 2424.23 2128.22 2428.39 2132.19C2432.55 2136.16 2435.8 2140.78 2438.16 2146.06C2440.53 2151.35 2441.71 2157.15 2441.71 2163.49C2441.71 2169.83 2440.53 2175.65 2438.16 2180.98C2435.8 2186.32 2432.55 2190.94 2428.39 2194.86C2424.23 2198.78 2419.33 2201.83 2413.7 2203.99C2408.06 2206.14 2401.83 2207.23 2395.04 2207.23ZM2395.04 2187.52C2398.24 2187.52 2401.22 2186.95 2403.97 2185.83C2406.74 2184.71 2409.13 2183.09 2411.17 2180.97C2413.21 2178.84 2414.81 2176.3 2415.96 2173.33C2417.13 2170.36 2417.71 2167.09 2417.71 2163.47C2417.71 2159.86 2417.13 2156.49 2415.96 2153.55C2414.8 2150.64 2413.21 2148.11 2411.17 2145.98C2409.13 2143.86 2406.74 2142.24 2403.97 2141.12C2401.2 2140 2398.22 2139.43 2395.04 2139.43C2391.85 2139.43 2388.86 2140 2386.1 2141.12C2383.34 2142.24 2380.94 2143.86 2378.9 2145.98C2376.86 2148.11 2375.26 2150.64 2374.11 2153.55C2372.95 2156.47 2372.37 2159.78 2372.37 2163.47C2372.37 2167.17 2372.95 2170.36 2374.11 2173.33C2375.28 2176.3 2376.86 2178.84 2378.9 2180.97C2380.94 2183.09 2383.34 2184.71 2386.1 2185.83C2388.87 2186.95 2391.83 2187.52 2395.04 2187.52Z" fill="#141414"/>
<path d="M2463.87 2206.62C2459.87 2206.62 2456.58 2205.37 2454.03 2202.89C2451.47 2200.41 2450.19 2197.44 2450.19 2193.99C2450.19 2190.54 2451.47 2187.52 2454.03 2185.16C2456.58 2182.79 2459.87 2181.61 2463.87 2181.61C2467.86 2181.61 2471.12 2182.79 2473.64 2185.16C2476.16 2187.52 2477.41 2190.46 2477.41 2193.99C2477.41 2197.52 2476.15 2200.39 2473.64 2202.89C2471.12 2205.37 2467.86 2206.62 2463.87 2206.62ZM2454.75 2174.89L2450.32 2121.43H2477.43L2472.86 2174.89H2454.75Z" fill="#141414"/>
<path d="M1347.64 2349.72V2334.82L1379.07 2305.38C1381.3 2303.3 1382.97 2301.46 1384.05 2299.85C1385.13 2298.25 1385.85 2296.79 1386.2 2295.46C1386.56 2294.13 1386.74 2292.91 1386.74 2291.79C1386.74 2289.07 1385.83 2286.95 1384.03 2285.42C1382.24 2283.9 1379.53 2283.14 1375.94 2283.14C1372.9 2283.14 1370.07 2283.82 1367.43 2285.18C1364.79 2286.54 1362.64 2288.58 1360.96 2291.31L1343.32 2281.45C1346.44 2276.17 1350.96 2271.92 1356.88 2268.71C1362.8 2265.5 1369.87 2263.91 1378.11 2263.91C1384.58 2263.91 1390.26 2264.95 1395.15 2267.04C1400.02 2269.13 1403.84 2272.08 1406.61 2275.94C1409.37 2279.8 1410.75 2284.3 1410.75 2289.52C1410.75 2292.25 1410.39 2294.96 1409.67 2297.63C1408.95 2300.32 1407.56 2303.16 1405.52 2306.16C1403.48 2309.16 1400.46 2312.51 1396.46 2316.19L1371.51 2339.26L1367.54 2330.85H1413V2349.72H1347.62H1347.64Z" fill="#141414"/>
<path d="M1457.03 2351.43C1449.83 2351.43 1443.45 2349.71 1437.9 2346.26C1432.34 2342.82 1427.97 2337.84 1424.76 2331.36C1421.56 2324.87 1419.97 2316.98 1419.97 2307.69C1419.97 2298.4 1421.57 2290.51 1424.76 2284.02C1427.97 2277.54 1432.34 2272.56 1437.9 2269.12C1443.45 2265.69 1449.85 2263.95 1457.03 2263.95C1464.22 2263.95 1470.48 2265.67 1476.04 2269.12C1481.6 2272.56 1485.98 2277.54 1489.18 2284.02C1492.39 2290.51 1493.97 2298.4 1493.97 2307.69C1493.97 2316.98 1492.37 2324.87 1489.18 2331.36C1485.98 2337.84 1481.61 2342.82 1476.04 2346.26C1470.48 2349.69 1464.15 2351.43 1457.03 2351.43ZM1457.03 2331.96C1459.59 2331.96 1461.85 2331.16 1463.81 2329.56C1465.77 2327.95 1467.31 2325.38 1468.42 2321.81C1469.54 2318.24 1470.11 2313.54 1470.11 2307.69C1470.11 2301.84 1469.54 2297.04 1468.42 2293.5C1467.31 2289.99 1465.77 2287.43 1463.81 2285.82C1461.85 2284.22 1459.59 2283.42 1457.03 2283.42C1454.47 2283.42 1452.21 2284.23 1450.25 2285.82C1448.29 2287.43 1446.74 2289.99 1445.57 2293.5C1444.41 2297.02 1443.83 2301.76 1443.83 2307.69C1443.83 2313.62 1444.41 2318.24 1445.57 2321.81C1446.74 2325.38 1448.29 2327.95 1450.25 2329.56C1452.21 2331.16 1454.47 2331.96 1457.03 2331.96Z" fill="#141414"/>
<path d="M1500.81 2349.72V2334.82L1532.24 2305.38C1534.47 2303.3 1536.14 2301.46 1537.22 2299.85C1538.31 2298.25 1539.02 2296.79 1539.38 2295.46C1539.73 2294.13 1539.91 2292.91 1539.91 2291.79C1539.91 2289.07 1539 2286.95 1537.21 2285.42C1535.41 2283.9 1532.71 2283.14 1529.12 2283.14C1526.07 2283.14 1523.24 2283.82 1520.6 2285.18C1517.97 2286.54 1515.81 2288.58 1514.13 2291.31L1496.49 2281.45C1499.62 2276.17 1504.13 2271.92 1510.05 2268.71C1515.98 2265.5 1523.05 2263.91 1531.28 2263.91C1537.76 2263.91 1543.44 2264.95 1548.32 2267.04C1553.2 2269.13 1557.01 2272.08 1559.78 2275.94C1562.55 2279.8 1563.92 2284.3 1563.92 2289.52C1563.92 2292.25 1563.57 2294.96 1562.84 2297.63C1562.13 2300.32 1560.74 2303.16 1558.7 2306.16C1556.66 2309.16 1553.63 2312.51 1549.64 2316.19L1524.68 2339.26L1520.72 2330.85H1566.17V2349.72H1500.8H1500.81Z" fill="#141414"/>
<path d="M1571.7 2333.62V2318.13L1609.38 2265.62H1633.96L1597.37 2318.13L1586.09 2314.75H1651.69V2333.62H1571.69H1571.7ZM1616.09 2349.72V2333.62L1616.8 2314.75V2300.46H1639.23V2349.72H1616.08H1616.09Z" fill="#141414"/>
</svg>
