<svg width="3000" height="3000" viewBox="0 0 3000 3000" fill="none" xmlns="http://www.w3.org/2000/svg">
<rect width="3000" height="3000" fill="#141414"/>
<path d="M1249.66 1207.23L1396.38 1003.82C1402.15 995.828 1414.53 997.653 1417.74 1006.97L1474.43 1171.34C1476.84 1178.34 1472.49 1185.85 1465.22 1187.25L1261.81 1226.29C1251 1228.36 1243.22 1216.16 1249.66 1207.23Z" fill="#AAAAAA"/>
<path d="M1686.48 1131.36L1589.79 999.213C1584.03 991.351 1571.83 993.108 1568.53 1002.28L1510.51 1163.43C1507.33 1172.28 1514.96 1181.24 1524.2 1179.5L1678.91 1150.5C1687.7 1148.85 1691.76 1138.58 1686.48 1131.36Z" fill="#BBBBBB"/>
<circle cx="2107.44" cy="1778.22" r="55.5907" fill="#AAAAAA"/>
<circle cx="1493.18" cy="1080.06" r="30.3997" fill="#CCCCCC"/>
<path d="M2025.17 1824.92V1724.34C2025.17 1718.81 2020.17 1714.62 2014.73 1715.58L1444.78 1816.16C1434.07 1818.05 1435.46 1833.81 1446.32 1833.81H2016.27C2021.19 1833.81 2025.17 1829.83 2025.17 1824.92Z" fill="#CCCCCC"/>
<path d="M1487.67 902.595C1490.37 895.752 1500.06 895.752 1502.75 902.595L1516.46 937.351C1517.29 939.44 1518.94 941.094 1521.03 941.918L1555.78 955.625C1562.63 958.324 1562.63 968.009 1555.78 970.708L1521.03 984.415C1518.94 985.239 1517.29 986.893 1516.46 988.982L1502.75 1023.74C1500.06 1030.58 1490.37 1030.58 1487.67 1023.74L1473.96 988.982C1473.14 986.893 1471.49 985.239 1469.4 984.415L1434.64 970.708C1427.8 968.009 1427.8 958.324 1434.64 955.625L1469.4 941.918C1471.49 941.094 1473.14 939.44 1473.96 937.351L1487.67 902.595Z" fill="#BBBBBB"/>
<path fill-rule="evenodd" clip-rule="evenodd" d="M2087.29 1506.17C2053.31 1512.15 2028.52 1541.64 2028.46 1576.14L2028.46 1578.28C2028.39 1622.56 2068.35 1656.15 2111.96 1648.47L2118.91 1647.24C2152.92 1641.25 2177.72 1611.7 2177.72 1577.17V1575.03C2177.72 1530.8 2137.79 1497.29 2094.23 1504.95L2087.29 1506.17Z" fill="#FAFAFA"/>
<path fill-rule="evenodd" clip-rule="evenodd" d="M2166.34 1187.01C2166.73 1149.6 2133.05 1121.02 2096.19 1127.5L2070.3 1132.05C2036.28 1138.03 2011.47 1167.59 2011.47 1202.13V1208.36C2011.47 1212.3 2011.8 1216.24 2012.45 1220.13L2047.51 1429.23C2052.32 1457.86 2079.65 1477 2108.2 1471.72C2131.56 1467.4 2149.01 1447.78 2150.59 1424.08L2166.34 1187.01Z" fill="#FAFAFA"/>
<path fill-rule="evenodd" clip-rule="evenodd" d="M1589.24 1655.69C1589.22 1699.94 1629.16 1733.48 1672.73 1725.81L1916.42 1682.91C1945.5 1677.79 1966.7 1652.53 1966.7 1623.01V1608.66C1966.7 1578.61 1939.73 1555.74 1910.08 1560.66L1793.52 1581.91C1766.06 1586.91 1740.77 1565.82 1740.77 1537.91C1740.77 1516.21 1756.35 1497.65 1777.71 1493.87L1870.77 1477.42C1897.9 1472.62 1917.68 1449.04 1917.68 1421.49C1917.68 1386.29 1886 1359.56 1851.31 1365.49L1815.92 1371.54L1781.38 1377.63C1760.21 1381.36 1740.79 1365.12 1740.7 1343.63C1740.74 1319.82 1757.85 1299.47 1781.3 1295.34L1904.29 1273.67C1930.74 1269.01 1950.02 1246.03 1950.02 1219.18C1950.02 1184.78 1918.98 1158.72 1885.1 1164.69L1648.25 1206.37C1614.25 1212.35 1589.45 1241.88 1589.43 1276.41L1589.24 1655.69Z" fill="#FAFAFA"/>
<path fill-rule="evenodd" clip-rule="evenodd" d="M1320.2 1600.7C1320.19 1600.7 1320.19 1600.71 1320.2 1600.71C1336.28 1602.4 1363.59 1604.18 1375.7 1615.49C1394.47 1633.22 1378.01 1661.71 1357.21 1672.2C1320.95 1690.56 1282.06 1678.92 1247.69 1660.09C1232.07 1649.01 1211.09 1645.54 1193.63 1653.43L1141.34 1677.07C1109.91 1691.27 1095.17 1727.31 1122.95 1747.75C1150.68 1768.16 1187.97 1782.2 1213.71 1787.09C1304.82 1804.47 1442.51 1784.24 1501.21 1709.39C1526.3 1677.35 1542.84 1626.77 1536.9 1584.53C1534.1 1565.23 1533.17 1557.34 1526.79 1541.58C1517.87 1519.37 1499.54 1501.62 1479.91 1488.6C1470.7 1482.39 1460.76 1477.32 1450.31 1473.48C1426.55 1464.37 1401.65 1458.49 1376.3 1455.95C1346.04 1452.74 1264.89 1447.65 1267.76 1407.34C1268.57 1396.14 1279.66 1388.94 1287.97 1383.05C1308.43 1368.46 1333.72 1372.61 1354.63 1382.27C1381.4 1394.64 1411.62 1404.74 1438.46 1392.52C1446.5 1388.86 1454.92 1384.98 1463.18 1381.17C1495.14 1366.43 1508.8 1331.71 1481.63 1309.32C1470.74 1300.35 1459.91 1292.77 1452.93 1288.63C1436.9 1279.09 1424.61 1273.9 1405.9 1267.52C1392.53 1263.03 1362.08 1260.89 1344.44 1260.93C1261.56 1261.21 1157.08 1287.94 1120.53 1371.07C1098.2 1421.91 1098.72 1482.09 1126.99 1521.65C1152.77 1557.92 1203.25 1579.18 1245.95 1589.9C1271.94 1596.38 1295.31 1598.03 1320.2 1600.69C1320.2 1600.69 1320.2 1600.7 1320.2 1600.7Z" fill="#FAFAFA"/>
<path fill-rule="evenodd" clip-rule="evenodd" d="M893.446 1777.4C893.379 1821.92 933.749 1855.57 977.528 1847.48L983.632 1846.36C1017.4 1840.12 1041.9 1810.65 1041.86 1776.3L1041.44 1398.2C1041.39 1354.12 1001.69 1320.69 958.244 1328.15L953.134 1329.03C919.022 1334.89 894.072 1364.44 894.02 1399.05L893.446 1777.4Z" fill="#FAFAFA"/>
<path d="M1137.94 1222.32L1483.77 741.993C1490.86 732.15 1505.5 732.13 1512.62 741.954L1778.34 1108.91" stroke="#4280EF" stroke-width="80.0506" stroke-linecap="round"/>
<path d="M804.393 1684.83L658.706 1881.02C649.99 1892.76 658.368 1909.42 672.988 1909.42H1406.61" stroke="#F5B704" stroke-width="80.0506" stroke-linecap="round"/>
<path d="M2196.99 1684.83L2342.67 1881.02C2351.39 1892.76 2343.01 1909.42 2328.39 1909.42H1594.77" stroke="#00A86B" stroke-width="80.0506" stroke-linecap="round"/>
<path d="M615 2145.22V2068.99H636.526V2145.22H615Z" fill="#FAFAFA"/>
<path d="M651.852 2145.22V2068.99H669.565L711.518 2119.73H703.145V2068.99H724.232V2145.22H706.518L664.565 2094.48H672.938V2145.22H651.852Z" fill="#FAFAFA"/>
<path d="M760.983 2145.22H739.457V2068.99H799.124V2085.65H760.969V2145.2L760.983 2145.22ZM759.458 2102.43H794.564V2119.08H759.458V2102.43Z" fill="#FAFAFA"/>
<path d="M846.951 2146.76C840.866 2146.76 835.25 2145.77 830.103 2143.82C824.956 2141.87 820.483 2139.09 816.685 2135.49C812.888 2131.89 809.925 2127.7 807.829 2122.92C805.732 2118.13 804.676 2112.87 804.676 2107.12C804.676 2101.38 805.732 2096.12 807.829 2091.33C809.925 2086.54 812.888 2082.34 816.685 2078.76C820.483 2075.16 824.956 2072.38 830.103 2070.43C835.25 2068.48 840.866 2067.49 846.951 2067.49C853.037 2067.49 858.741 2068.48 863.859 2070.43C868.962 2072.38 873.405 2075.16 877.174 2078.76C880.942 2082.36 883.89 2086.54 886.03 2091.33C888.171 2096.12 889.242 2101.38 889.242 2107.12C889.242 2112.87 888.171 2118.14 886.03 2122.97C883.89 2127.81 880.942 2131.99 877.174 2135.55C873.405 2139.1 868.962 2141.87 863.859 2143.82C858.756 2145.77 853.11 2146.76 846.951 2146.76ZM846.951 2128.89C849.855 2128.89 852.553 2128.38 855.046 2127.37C857.553 2126.35 859.724 2124.88 861.571 2122.96C863.419 2121.04 864.871 2118.73 865.912 2116.04C866.968 2113.35 867.495 2110.39 867.495 2107.11C867.495 2103.83 866.968 2100.78 865.912 2098.12C864.856 2095.48 863.419 2093.18 861.571 2091.26C859.724 2089.34 857.553 2087.87 855.046 2086.85C852.538 2085.84 849.84 2085.33 846.951 2085.33C844.063 2085.33 841.35 2085.84 838.857 2086.85C836.35 2087.87 834.179 2089.34 832.332 2091.26C830.484 2093.18 829.032 2095.48 827.991 2098.12C826.935 2100.76 826.408 2103.76 826.408 2107.11C826.408 2110.46 826.935 2113.35 827.991 2116.04C829.047 2118.73 830.484 2121.04 832.332 2122.96C834.179 2124.88 836.35 2126.35 838.857 2127.37C841.365 2128.38 844.048 2128.89 846.951 2128.89Z" fill="#FAFAFA"/>
<path d="M900.526 2145.22V2068.99H935.309C942.26 2068.99 948.257 2070.12 953.301 2072.37C958.331 2074.62 962.232 2077.86 964.988 2082.11C967.745 2086.35 969.124 2091.38 969.124 2097.2C969.124 2103.01 967.745 2107.89 964.988 2112.06C962.232 2116.23 958.346 2119.44 953.301 2121.64C948.257 2123.86 942.274 2124.96 935.309 2124.96H912.477L922.038 2115.92V2145.22H900.512H900.526ZM922.053 2118.22L912.492 2108.3H934.018C938.506 2108.3 941.864 2107.32 944.078 2105.36C946.292 2103.41 947.392 2100.68 947.392 2097.2C947.392 2093.71 946.292 2090.88 944.078 2088.93C941.864 2086.97 938.52 2085.99 934.018 2085.99H912.492L922.053 2076.07V2118.22ZM947.597 2145.22L928.681 2117.45H951.615L970.634 2145.22H947.597Z" fill="#FAFAFA"/>
<path d="M980.963 2145.22V2068.99H998.677L1030.2 2120.82H1020.85L1051.5 2068.99H1069.21L1069.43 2145.22H1049.65L1049.43 2099.16H1052.8L1029.87 2137.71H1020.31L996.726 2099.16H1000.86V2145.22H980.978H980.963Z" fill="#FAFAFA"/>
<path d="M1075.54 2145.22L1109.12 2068.99H1130.31L1164 2145.22H1141.61L1115.31 2079.55H1123.78L1097.48 2145.22H1075.52H1075.54ZM1093.91 2130.41L1099.45 2114.51H1136.63L1142.17 2130.41H1093.91Z" fill="#FAFAFA"/>
<path d="M1182.48 2145.22V2086.09H1159.11V2068.99H1227.25V2086.09H1203.99V2145.22H1182.46H1182.48Z" fill="#FAFAFA"/>
<path d="M1235.3 2145.22V2068.99H1256.83V2145.22H1235.3Z" fill="#FAFAFA"/>
<path d="M1310.52 2146.76C1304.44 2146.76 1298.82 2145.77 1293.67 2143.82C1288.53 2141.87 1284.05 2139.09 1280.26 2135.49C1276.46 2131.89 1273.5 2127.7 1271.4 2122.92C1269.3 2118.13 1268.25 2112.87 1268.25 2107.12C1268.25 2101.38 1269.3 2096.12 1271.4 2091.33C1273.5 2086.54 1276.46 2082.34 1280.26 2078.76C1284.05 2075.16 1288.53 2072.38 1293.67 2070.43C1298.82 2068.48 1304.44 2067.49 1310.52 2067.49C1316.61 2067.49 1322.31 2068.48 1327.43 2070.43C1332.53 2072.38 1336.98 2075.16 1340.74 2078.76C1344.51 2082.36 1347.46 2086.54 1349.6 2091.33C1351.74 2096.12 1352.81 2101.38 1352.81 2107.12C1352.81 2112.87 1351.74 2118.14 1349.6 2122.97C1347.46 2127.81 1344.51 2131.99 1340.74 2135.55C1336.98 2139.1 1332.53 2141.87 1327.43 2143.82C1322.33 2145.77 1316.68 2146.76 1310.52 2146.76ZM1310.52 2128.89C1313.43 2128.89 1316.12 2128.38 1318.62 2127.37C1321.12 2126.35 1323.29 2124.88 1325.14 2122.96C1326.99 2121.04 1328.44 2118.73 1329.48 2116.04C1330.54 2113.35 1331.07 2110.39 1331.07 2107.11C1331.07 2103.83 1330.54 2100.78 1329.48 2098.12C1328.43 2095.48 1326.99 2093.18 1325.14 2091.26C1323.29 2089.34 1321.12 2087.87 1318.62 2086.85C1316.11 2085.84 1313.41 2085.33 1310.52 2085.33C1307.63 2085.33 1304.92 2085.84 1302.43 2086.85C1299.92 2087.87 1297.75 2089.34 1295.9 2091.26C1294.05 2093.18 1292.6 2095.48 1291.56 2098.12C1290.51 2100.76 1289.98 2103.76 1289.98 2107.11C1289.98 2110.46 1290.51 2113.35 1291.56 2116.04C1292.62 2118.73 1294.05 2121.04 1295.9 2122.96C1297.75 2124.88 1299.92 2126.35 1302.43 2127.37C1304.93 2128.38 1307.62 2128.89 1310.52 2128.89Z" fill="#FAFAFA"/>
<path d="M1364.09 2145.22V2068.99H1381.81L1423.76 2119.73H1415.39V2068.99H1436.47V2145.22H1418.76L1376.81 2094.48H1385.18V2145.22H1364.09Z" fill="#FAFAFA"/>
<path d="M1510.08 2146.75C1503.85 2146.75 1497.85 2145.97 1492.09 2144.41C1486.33 2142.86 1481.64 2140.84 1478.01 2138.37L1485.08 2122.48C1488.48 2124.65 1492.41 2126.46 1496.87 2127.87C1501.33 2129.28 1505.77 2130 1510.19 2130C1513.16 2130 1515.55 2129.72 1517.36 2129.18C1519.17 2128.64 1520.49 2127.92 1521.33 2127C1522.17 2126.09 1522.58 2125.02 1522.58 2123.79C1522.58 2122.04 1521.79 2120.67 1520.19 2119.65C1518.59 2118.63 1516.52 2117.79 1513.98 2117.13C1511.45 2116.49 1508.65 2115.83 1505.57 2115.18C1502.49 2114.53 1499.41 2113.7 1496.33 2112.67C1493.25 2111.65 1490.45 2110.33 1487.91 2108.69C1485.37 2107.06 1483.31 2104.91 1481.72 2102.27C1480.13 2099.62 1479.33 2096.26 1479.33 2092.19C1479.33 2087.62 1480.58 2083.48 1483.09 2079.78C1485.59 2076.08 1489.33 2073.09 1494.33 2070.85C1499.33 2068.6 1505.57 2067.47 1513.03 2067.47C1518.03 2067.47 1522.94 2068.03 1527.75 2069.16C1532.58 2070.29 1536.86 2071.93 1540.63 2074.11L1534 2090.12C1530.38 2088.17 1526.79 2086.7 1523.24 2085.71C1519.69 2084.73 1516.24 2084.24 1512.91 2084.24C1509.94 2084.24 1507.55 2084.55 1505.74 2085.17C1503.92 2085.79 1502.63 2086.61 1501.83 2087.62C1501.04 2088.64 1500.64 2089.8 1500.64 2091.1C1500.64 2092.78 1501.42 2094.1 1502.97 2095.08C1504.53 2096.07 1506.59 2096.86 1509.17 2097.48C1511.74 2098.1 1514.57 2098.73 1517.65 2099.39C1520.73 2100.05 1523.81 2100.86 1526.89 2101.84C1529.97 2102.83 1532.77 2104.13 1535.31 2105.76C1537.84 2107.39 1539.88 2109.54 1541.45 2112.18C1543 2114.83 1543.78 2118.16 1543.78 2122.14C1543.78 2126.56 1542.53 2130.65 1540.03 2134.39C1537.52 2138.14 1533.79 2141.12 1528.84 2143.38C1523.88 2145.63 1517.62 2146.76 1510.08 2146.76V2146.75Z" fill="#FAFAFA"/>
<path d="M1571.27 2145.22V2112.99L1576.27 2125.94L1542.25 2068.99H1564.96L1589.52 2110.25H1576.37L1601.05 2068.99H1621.91L1588 2125.94L1592.78 2112.99V2145.22H1571.25H1571.27Z" fill="#FAFAFA"/>
<path d="M1652.44 2146.75C1646.21 2146.75 1640.21 2145.97 1634.45 2144.41C1628.69 2142.86 1623.99 2140.84 1620.37 2138.37L1627.44 2122.48C1630.84 2124.65 1634.77 2126.46 1639.23 2127.87C1643.69 2129.28 1648.13 2130 1652.54 2130C1655.52 2130 1657.91 2129.72 1659.71 2129.18C1661.53 2128.64 1662.85 2127.92 1663.69 2127C1664.52 2126.09 1664.93 2125.02 1664.93 2123.79C1664.93 2122.04 1664.14 2120.67 1662.54 2119.65C1660.95 2118.63 1658.88 2117.79 1656.34 2117.13C1653.8 2116.49 1651 2115.83 1647.92 2115.18C1644.84 2114.53 1641.77 2113.7 1638.69 2112.67C1635.61 2111.65 1632.81 2110.33 1630.27 2108.69C1627.73 2107.06 1625.66 2104.91 1624.08 2102.27C1622.48 2099.62 1621.69 2096.26 1621.69 2092.19C1621.69 2087.62 1622.94 2083.48 1625.44 2079.78C1627.95 2076.08 1631.69 2073.09 1636.69 2070.85C1641.69 2068.6 1647.92 2067.47 1655.39 2067.47C1660.39 2067.47 1665.3 2068.03 1670.11 2069.16C1674.93 2070.29 1679.22 2071.93 1682.99 2074.11L1676.36 2090.12C1672.74 2088.17 1669.14 2086.7 1665.59 2085.71C1662.05 2084.73 1658.6 2084.24 1655.27 2084.24C1652.29 2084.24 1649.9 2084.55 1648.1 2085.17C1646.28 2085.79 1644.99 2086.61 1644.19 2087.62C1643.39 2088.64 1643 2089.8 1643 2091.1C1643 2092.78 1643.77 2094.1 1645.33 2095.08C1646.88 2096.07 1648.95 2096.86 1651.53 2097.48C1654.1 2098.1 1656.93 2098.73 1660.01 2099.39C1663.09 2100.05 1666.17 2100.86 1669.25 2101.84C1672.32 2102.83 1675.13 2104.13 1677.66 2105.76C1680.2 2107.39 1682.24 2109.54 1683.81 2112.18C1685.36 2114.83 1686.14 2118.16 1686.14 2122.14C1686.14 2126.56 1684.89 2130.65 1682.38 2134.39C1679.88 2138.14 1676.15 2141.12 1671.2 2143.38C1666.24 2145.63 1659.98 2146.76 1652.44 2146.76V2146.75Z" fill="#FAFAFA"/>
<path d="M1711.12 2145.22V2086.09H1687.75V2068.99H1755.89V2086.09H1732.63V2145.22H1711.11H1711.12Z" fill="#FAFAFA"/>
<path d="M1785.26 2128.56H1825.04V2145.22H1763.96V2068.99H1823.62V2085.65H1785.25V2128.54L1785.26 2128.56ZM1783.74 2098.5H1819.06V2114.62H1783.74V2098.5Z" fill="#FAFAFA"/>
<path d="M1837 2145.22V2068.99H1854.72L1886.24 2120.82H1876.89L1907.54 2068.99H1925.25L1925.47 2145.22H1905.69L1905.47 2099.16H1908.84L1885.91 2137.71H1876.35L1852.77 2099.16H1856.9V2145.22H1837.02H1837Z" fill="#FAFAFA"/>
<path d="M1967.42 2146.75C1961.19 2146.75 1955.19 2145.97 1949.43 2144.41C1943.67 2142.86 1938.98 2140.84 1935.35 2138.37L1942.42 2122.48C1945.82 2124.65 1949.75 2126.46 1954.21 2127.87C1958.67 2129.28 1963.11 2130 1967.53 2130C1970.5 2130 1972.89 2129.72 1974.7 2129.18C1976.51 2128.64 1977.83 2127.92 1978.67 2127C1979.51 2126.09 1979.92 2125.02 1979.92 2123.79C1979.92 2122.04 1979.12 2120.67 1977.53 2119.65C1975.93 2118.63 1973.86 2117.79 1971.32 2117.13C1968.79 2116.49 1965.99 2115.83 1962.91 2115.18C1959.83 2114.53 1956.75 2113.7 1953.67 2112.67C1950.59 2111.65 1947.79 2110.33 1945.25 2108.69C1942.71 2107.06 1940.65 2104.91 1939.06 2102.27C1937.47 2099.62 1936.67 2096.26 1936.67 2092.19C1936.67 2087.62 1937.92 2083.48 1940.43 2079.78C1942.93 2076.08 1946.67 2073.09 1951.67 2070.85C1956.67 2068.6 1962.91 2067.47 1970.37 2067.47C1975.37 2067.47 1980.28 2068.03 1985.09 2069.16C1989.92 2070.29 1994.2 2071.93 1997.97 2074.11L1991.34 2090.12C1987.72 2088.17 1984.13 2086.7 1980.58 2085.71C1977.03 2084.73 1973.58 2084.24 1970.25 2084.24C1967.28 2084.24 1964.89 2084.55 1963.08 2085.17C1961.26 2085.79 1959.97 2086.61 1959.17 2087.62C1958.38 2088.64 1957.98 2089.8 1957.98 2091.1C1957.98 2092.78 1958.76 2094.1 1960.31 2095.08C1961.87 2096.07 1963.93 2096.86 1966.51 2097.48C1969.08 2098.1 1971.91 2098.73 1974.99 2099.39C1978.07 2100.05 1981.15 2100.86 1984.23 2101.84C1987.31 2102.83 1990.11 2104.13 1992.64 2105.76C1995.18 2107.39 1997.22 2109.54 1998.79 2112.18C2000.34 2114.83 2001.12 2118.16 2001.12 2122.14C2001.12 2126.56 1999.87 2130.65 1997.37 2134.39C1994.86 2138.14 1991.13 2141.12 1986.18 2143.38C1981.22 2145.63 1974.96 2146.76 1967.42 2146.76V2146.75Z" fill="#FAFAFA"/>
<path d="M2063.94 2128.56H2103.72V2145.22H2042.63V2068.99H2102.3V2085.65H2063.92V2128.54L2063.94 2128.56ZM2062.41 2098.5H2097.74V2114.62H2062.41V2098.5Z" fill="#FAFAFA"/>
<path d="M2107.2 2145.22L2140.46 2098.95L2140.36 2114.3L2108.4 2069.01H2132.64L2153.08 2098.52L2142.76 2098.62L2162.86 2069.01H2186.12L2154.17 2113.43V2098.18L2187.87 2145.22H2163.08L2142.32 2114.2H2152.22L2131.78 2145.22H2107.22H2107.2Z" fill="#FAFAFA"/>
<path d="M2192.84 2145.22V2068.99H2227.62C2234.57 2068.99 2240.57 2070.12 2245.62 2072.37C2250.65 2074.62 2254.55 2077.86 2257.3 2082.11C2260.06 2086.35 2261.44 2091.38 2261.44 2097.2C2261.44 2103.01 2260.06 2107.9 2257.3 2112.12C2254.55 2116.34 2250.66 2119.58 2245.62 2121.86C2240.57 2124.15 2234.59 2125.28 2227.62 2125.28H2204.79L2214.35 2115.91V2145.2H2192.83L2192.84 2145.22ZM2214.37 2118.22L2204.81 2108.3H2226.33C2230.82 2108.3 2234.18 2107.32 2236.39 2105.36C2238.61 2103.41 2239.71 2100.68 2239.71 2097.2C2239.71 2093.71 2238.61 2090.88 2236.39 2088.93C2234.18 2086.97 2230.83 2085.99 2226.33 2085.99H2204.81L2214.37 2076.07V2118.22Z" fill="#FAFAFA"/>
<path d="M2311.33 2146.76C2305.25 2146.76 2299.63 2145.77 2294.49 2143.82C2289.34 2141.87 2284.87 2139.09 2281.07 2135.49C2277.27 2131.89 2274.31 2127.7 2272.21 2122.92C2270.11 2118.13 2269.06 2112.87 2269.06 2107.12C2269.06 2101.38 2270.11 2096.12 2272.21 2091.33C2274.31 2086.54 2277.27 2082.34 2281.07 2078.76C2284.87 2075.16 2289.34 2072.38 2294.49 2070.43C2299.63 2068.48 2305.25 2067.49 2311.33 2067.49C2317.42 2067.49 2323.12 2068.48 2328.24 2070.43C2333.34 2072.38 2337.79 2075.16 2341.56 2078.76C2345.33 2082.36 2348.27 2086.54 2350.41 2091.33C2352.55 2096.12 2353.62 2101.38 2353.62 2107.12C2353.62 2112.87 2352.55 2118.14 2350.41 2122.97C2348.27 2127.81 2345.33 2131.99 2341.56 2135.55C2337.79 2139.1 2333.34 2141.87 2328.24 2143.82C2323.14 2145.77 2317.49 2146.76 2311.33 2146.76ZM2311.33 2128.89C2314.24 2128.89 2316.94 2128.38 2319.43 2127.37C2321.94 2126.35 2324.11 2124.88 2325.95 2122.96C2327.8 2121.04 2329.25 2118.73 2330.29 2116.04C2331.35 2113.35 2331.88 2110.39 2331.88 2107.11C2331.88 2103.83 2331.35 2100.78 2330.29 2098.12C2329.24 2095.48 2327.8 2093.18 2325.95 2091.26C2324.11 2089.34 2321.94 2087.87 2319.43 2086.85C2316.92 2085.84 2314.22 2085.33 2311.33 2085.33C2308.45 2085.33 2305.73 2085.84 2303.24 2086.85C2300.73 2087.87 2298.56 2089.34 2296.71 2091.26C2294.87 2093.18 2293.42 2095.48 2292.37 2098.12C2291.32 2100.76 2290.79 2103.76 2290.79 2107.11C2290.79 2110.46 2291.32 2113.35 2292.37 2116.04C2293.43 2118.73 2294.87 2121.04 2296.71 2122.96C2298.56 2124.88 2300.73 2126.35 2303.24 2127.37C2305.75 2128.38 2308.43 2128.89 2311.33 2128.89Z" fill="#FAFAFA"/>
<path d="M2373.71 2146.2C2370.09 2146.2 2367.11 2145.07 2364.8 2142.83C2362.48 2140.58 2361.32 2137.89 2361.32 2134.76C2361.32 2131.63 2362.48 2128.9 2364.8 2126.76C2367.11 2124.61 2370.09 2123.54 2373.71 2123.54C2377.33 2123.54 2380.28 2124.61 2382.57 2126.76C2384.86 2128.9 2385.98 2131.56 2385.98 2134.76C2385.98 2137.96 2384.84 2140.56 2382.57 2142.83C2380.28 2145.07 2377.33 2146.2 2373.71 2146.2ZM2365.46 2117.46L2361.44 2069.01H2386L2381.86 2117.46H2365.46Z" fill="#FAFAFA"/>
<path d="M1362.26 2275.87V2262.37L1390.73 2235.7C1392.76 2233.82 1394.27 2232.14 1395.25 2230.69C1396.23 2229.23 1396.88 2227.91 1397.2 2226.71C1397.52 2225.5 1397.68 2224.4 1397.68 2223.39C1397.68 2220.92 1396.86 2219 1395.23 2217.61C1393.61 2216.23 1391.16 2215.54 1387.9 2215.54C1385.15 2215.54 1382.58 2216.16 1380.19 2217.39C1377.8 2218.63 1375.85 2220.48 1374.32 2222.95L1358.34 2214.02C1361.17 2209.23 1365.26 2205.38 1370.63 2202.47C1376 2199.56 1382.4 2198.12 1389.87 2198.12C1395.73 2198.12 1400.88 2199.06 1405.31 2200.96C1409.72 2202.85 1413.18 2205.53 1415.69 2209.02C1418.2 2212.52 1419.44 2216.6 1419.44 2221.33C1419.44 2223.8 1419.12 2226.25 1418.46 2228.68C1417.82 2231.11 1416.56 2233.69 1414.71 2236.4C1412.86 2239.12 1410.12 2242.16 1406.5 2245.5L1383.88 2266.4L1380.29 2258.78H1421.48V2275.87H1362.24H1362.26Z" fill="#FAFAFA"/>
<path d="M1461.38 2277.42C1454.85 2277.42 1449.08 2275.87 1444.05 2272.74C1439 2269.62 1435.04 2265.11 1432.14 2259.24C1429.24 2253.36 1427.8 2246.21 1427.8 2237.79C1427.8 2229.37 1429.25 2222.22 1432.14 2216.34C1435.04 2210.47 1439 2205.96 1444.05 2202.84C1449.08 2199.73 1454.87 2198.16 1461.38 2198.16C1467.89 2198.16 1473.56 2199.71 1478.61 2202.84C1483.64 2205.96 1487.61 2210.47 1490.52 2216.34C1493.42 2222.22 1494.86 2229.37 1494.86 2237.79C1494.86 2246.21 1493.4 2253.36 1490.52 2259.24C1487.61 2265.11 1483.65 2269.62 1478.61 2272.74C1473.56 2275.85 1467.83 2277.42 1461.38 2277.42ZM1461.38 2259.78C1463.7 2259.78 1465.75 2259.06 1467.52 2257.61C1469.3 2256.15 1470.69 2253.82 1471.7 2250.58C1472.71 2247.35 1473.23 2243.09 1473.23 2237.79C1473.23 2232.49 1472.71 2228.14 1471.7 2224.94C1470.69 2221.75 1469.3 2219.43 1467.52 2217.97C1465.75 2216.52 1463.7 2215.8 1461.38 2215.8C1459.06 2215.8 1457.01 2216.53 1455.23 2217.97C1453.46 2219.43 1452.05 2221.75 1451 2224.94C1449.94 2228.12 1449.41 2232.41 1449.41 2237.79C1449.41 2243.17 1449.94 2247.35 1451 2250.58C1452.05 2253.82 1453.46 2256.15 1455.23 2257.61C1457.01 2259.06 1459.06 2259.78 1461.38 2259.78Z" fill="#FAFAFA"/>
<path d="M1501.05 2275.87V2262.37L1529.53 2235.7C1531.55 2233.82 1533.06 2232.14 1534.04 2230.69C1535.03 2229.23 1535.67 2227.91 1535.99 2226.71C1536.32 2225.5 1536.48 2224.4 1536.48 2223.39C1536.48 2220.92 1535.66 2219 1534.03 2217.61C1532.4 2216.23 1529.95 2215.54 1526.7 2215.54C1523.94 2215.54 1521.37 2216.16 1518.98 2217.39C1516.59 2218.63 1514.64 2220.48 1513.12 2222.95L1497.13 2214.02C1499.96 2209.23 1504.06 2205.38 1509.42 2202.47C1514.79 2199.56 1521.2 2198.12 1528.66 2198.12C1534.53 2198.12 1539.67 2199.06 1544.1 2200.96C1548.52 2202.85 1551.98 2205.53 1554.48 2209.02C1556.99 2212.52 1558.24 2216.6 1558.24 2221.33C1558.24 2223.8 1557.92 2226.25 1557.26 2228.68C1556.61 2231.11 1555.35 2233.69 1553.5 2236.4C1551.65 2239.12 1548.91 2242.16 1545.29 2245.5L1522.68 2266.4L1519.09 2258.78H1560.28V2275.87H1501.04H1501.05Z" fill="#FAFAFA"/>
<path d="M1565.27 2261.29V2247.25L1599.41 2199.67H1621.68L1588.53 2247.25L1578.3 2244.19H1637.75V2261.29H1565.25H1565.27ZM1605.49 2275.88V2261.29L1606.14 2244.19V2231.24H1626.46V2275.88H1605.48H1605.49Z" fill="#FAFAFA"/>
</svg>
