<svg width="3000" height="3000" viewBox="0 0 3000 3000" fill="none" xmlns="http://www.w3.org/2000/svg">
<rect width="3000" height="3000" fill="#0F936D"/>
<path fill-rule="evenodd" clip-rule="evenodd" d="M721.524 836.096C719.125 836.641 712.115 837.732 705.946 838.521C636.209 847.437 568.877 879.407 531.394 921.396C484.74 973.664 469.357 1026.87 482.114 1091.85C488.457 1124.17 504.535 1154.97 527.732 1179.25C546.646 1199.04 563.1 1210.84 588.798 1223.01C629.221 1242.17 667.939 1249.78 759.535 1256.58C781.788 1258.23 810.173 1261.7 829.948 1265.18C872.44 1272.66 904.747 1291.87 915.549 1316.09C924.269 1335.63 924.295 1366.53 915.606 1385.93C906.379 1406.52 883.918 1428.22 861.353 1438.33C833.326 1450.9 784.791 1457.59 743.645 1454.55C701.399 1451.44 675.147 1444.26 653.366 1429.88C626.731 1412.29 605.374 1380.35 600.24 1350.42C598.196 1338.52 596.776 1335.56 591.906 1333.04C588.635 1331.35 585.96 1331.35 567.33 1332.96C555.832 1333.95 530.442 1335.95 510.907 1337.41C466.304 1340.72 467.629 1340.51 463.236 1345.2C459.975 1348.68 459.67 1349.71 460.218 1355.37C461.78 1371.44 467.792 1394.53 474.469 1410.1C499.012 1467.31 548.213 1514.63 609.984 1540.44C653.253 1558.52 704.85 1567.81 762.027 1567.82C816.489 1567.83 867.757 1559.98 910.331 1545.11C924.715 1540.08 951.395 1527.03 962.913 1519.37C1004.39 1491.82 1037.14 1451.11 1049.76 1411.42C1056.89 1389.02 1058.57 1376.45 1058.6 1345.49C1058.62 1320.58 1058.26 1315.18 1055.85 1303.81C1050.22 1277.31 1042.05 1257.97 1026.7 1234.78C999.551 1193.77 950.582 1162.4 889.768 1147.05C864.469 1140.66 841.823 1137.69 752.057 1129.01C707.143 1124.66 681.489 1120.92 670.113 1117.07C643.036 1107.89 626.63 1093.04 618.429 1070.3C615.246 1061.48 615.308 1029.72 618.527 1020.2C627.87 992.551 656.542 966.573 688.498 956.8C721.772 946.623 770.634 943.911 801.907 950.504C829.394 956.3 852.277 965.592 867.11 976.979C884.611 990.416 900.919 1015.89 905.921 1037.61C909.644 1053.78 910.948 1054.18 948.342 1050.67C964.449 1049.15 985.76 1047.22 995.699 1046.37C1029.25 1043.5 1039.33 1041.89 1042.27 1038.95C1048.68 1032.53 1042.78 1004.7 1029.21 977.351C1006.62 931.808 967.062 892.296 920.924 869.18C891.606 854.492 852.679 842.893 818.108 838.544C811.939 837.768 804.864 836.619 802.386 835.991C796.933 834.609 727.677 834.699 721.524 836.096ZM2144.74 839.288C2099.09 844.197 2057.57 856.589 2015.32 877.924C1944.79 913.537 1890.12 968.376 1854.8 1038.94C1835.59 1077.34 1824.91 1112.01 1818.64 1156.41C1815.55 1178.25 1815.56 1225.7 1818.64 1247.22C1823.81 1283.21 1833.32 1318.96 1843.89 1342.1C1845.54 1345.71 1846.89 1349.15 1846.89 1349.73C1846.89 1351.78 1841.08 1352.3 1817.6 1352.33C1804.58 1352.35 1793.31 1352.78 1792.55 1353.28C1789.68 1355.19 1788.47 1359.66 1788.09 1369.77C1787.7 1380.09 1787.74 1380.25 1791.1 1381.88C1795.51 1384.03 1821.13 1386.86 1845.87 1387.93C1856.62 1388.4 1865.89 1389.11 1866.47 1389.52C1867.04 1389.93 1871.89 1396.87 1877.24 1404.94C1892.15 1427.44 1905.23 1443.24 1925.86 1463.69C1972.43 1509.83 2029.69 1542.08 2092.46 1557.54C2098.25 1558.96 2104.96 1560.65 2107.36 1561.28C2109.76 1561.92 2120.13 1563.71 2130.41 1565.27C2146.32 1567.69 2154.02 1568.11 2182.13 1568.1C2218.54 1568.09 2235.53 1566.2 2266.56 1558.72C2399.76 1526.61 2504.66 1423.36 2537.31 1292.23C2542.25 1272.41 2542.23 1266.68 2537.25 1261.02C2532.74 1255.88 2529.64 1254.8 2512.39 1252.3C2505.19 1251.25 2484.16 1248.14 2465.66 1245.39C2428.88 1239.91 2427.16 1239.95 2420.99 1246.38C2418.63 1248.84 2416.75 1253.36 2414.52 1261.92C2409.73 1280.31 2405.9 1290.29 2395.78 1310.66C2365.06 1372.55 2304.29 1420.18 2235.72 1436.13C2220.52 1439.67 2214.96 1440.53 2198.34 1441.94C2175.33 1443.89 2153.03 1442.07 2127.3 1436.15C2100.01 1429.87 2071.59 1417.26 2047.55 1400.78C2032.65 1390.56 2015.25 1375.74 2015.19 1373.22C2015.15 1371.73 2016.52 1370.86 2019.81 1370.28C2026.35 1369.14 2045.46 1364.16 2063.11 1359.01C2114.07 1344.13 2169.04 1321.47 2215.78 1296.05C2232.4 1287.01 2237.23 1284.25 2251.92 1275.39C2361.99 1209.01 2454.99 1115.64 2488.09 1038.3C2498.34 1014.33 2498.38 1014.52 2477.84 987.111C2452.17 952.876 2415.57 918.117 2382.78 896.835C2340.16 869.181 2294.57 851.085 2245.69 842.427C2217.47 837.429 2174.48 836.091 2144.74 839.288ZM1163.82 850.112C1161.49 851.664 1158.6 854.884 1157.4 857.264C1155.33 861.363 1155.23 879.793 1155.53 1203.06C1155.83 1530.13 1155.94 1544.66 1158.1 1547.83C1162.99 1555.02 1163.59 1555.09 1223.68 1555.09C1283.82 1555.09 1284.55 1555.01 1289.62 1547.9L1292.3 1544.15L1292.61 1416.21L1292.93 1288.27L1363.97 1287.88C1443.52 1287.45 1446.58 1287.67 1462.91 1295.24C1471.3 1299.13 1475.18 1301.92 1482.5 1309.35C1490.43 1317.39 1492.64 1320.72 1499.26 1334.54C1507.95 1352.72 1511.18 1359.58 1516.4 1370.99C1518.44 1375.43 1522.47 1384.11 1525.36 1390.27C1528.25 1396.43 1532.17 1404.82 1534.07 1408.93C1535.97 1413.03 1541.31 1424.51 1545.92 1434.43C1550.53 1444.35 1555.87 1455.82 1557.77 1459.93C1559.67 1464.03 1565.82 1477.19 1571.43 1489.16C1577.04 1501.14 1583.96 1515.97 1586.81 1522.13C1598.14 1546.6 1600.54 1550.63 1605.12 1552.91C1609.1 1554.9 1614.98 1555.09 1672.18 1555.09C1717.47 1555.09 1735.65 1554.69 1737.61 1553.64C1745.28 1549.57 1745.19 1544.03 1737.22 1527.85C1733.79 1520.89 1730.99 1514.99 1730.99 1514.74C1730.99 1514.49 1726.5 1504.94 1721.02 1493.52C1715.53 1482.09 1711.05 1472.6 1711.05 1472.42C1711.05 1472.25 1706.63 1462.93 1701.23 1451.71C1695.83 1440.5 1690 1428.24 1688.27 1424.48C1686.54 1420.71 1681.36 1409.8 1676.77 1400.22C1672.17 1390.64 1666.85 1379.45 1664.95 1375.34C1663.04 1371.24 1658.26 1361.16 1654.33 1352.95C1650.4 1344.74 1645.63 1334.66 1643.73 1330.56C1632.71 1306.73 1629.71 1300.74 1625.14 1293.52C1619.62 1284.8 1609.91 1274.98 1601.65 1269.78C1598.76 1267.96 1596.39 1266.02 1596.39 1265.47C1596.39 1264.92 1600.46 1262.92 1605.43 1261.01C1625.54 1253.31 1650.41 1237.29 1667.19 1221.21C1698.48 1191.23 1717.52 1156.69 1725.98 1114.56C1735.95 1064.92 1729.62 1012.62 1708.47 969.816C1696.81 946.222 1681.99 927.084 1661.82 909.598C1626.9 879.317 1578.11 858.206 1526.6 851.091C1503.27 847.869 1473.61 847.312 1324.58 847.3L1168.05 847.288L1163.82 850.112ZM1293.54 960.279C1292.74 960.549 1292.31 997.616 1292.31 1065.76V1170.83L1396.68 1170.39C1498.02 1169.95 1501.39 1169.86 1512.45 1167.28C1558.85 1156.47 1586.33 1129.48 1592.56 1088.61C1595.03 1072.39 1595.19 1064.85 1593.31 1053.19C1586.11 1008.51 1556.55 977.469 1509.05 964.716L1496.07 961.231L1420.67 960.853C1379.2 960.646 1333.91 960.338 1320.02 960.17C1306.13 960.002 1294.22 960.051 1293.54 960.279ZM2160.32 964.261C2101.16 970.218 2050.39 995.057 2008.88 1038.36C1957.33 1092.13 1934.68 1162.72 1944.86 1237.89C1945.86 1245.27 1949.9 1263.04 1952.35 1270.85C1959.5 1293.63 1973.34 1322.86 1977.27 1323.46C1981.12 1324.04 2016.7 1311.89 2043.17 1300.95C2087.87 1282.49 2121.6 1264.85 2157.83 1240.99C2204.44 1210.3 2238.14 1179.41 2286.76 1122.8C2319.11 1085.14 2352.72 1038.18 2350.83 1033.28C2349.69 1030.31 2327.66 1012.32 2314.16 1003.32C2293.72 989.695 2264.51 976.823 2239.67 970.493C2216.44 964.571 2183.18 961.96 2160.32 964.261Z" fill="white"/>
<path fill-rule="evenodd" clip-rule="evenodd" d="M813.901 1747.62C813.294 1748.22 812.986 1751.53 812.986 1757.44C812.986 1764.86 813.187 1766.43 814.193 1766.81C816.384 1767.65 831.168 1767.33 831.725 1766.43C832.725 1764.81 832.208 1748.03 831.137 1747.35C829.541 1746.34 814.954 1746.57 813.901 1747.62ZM1385.17 1747.62C1384.47 1748.31 1384.26 1764.67 1384.26 1816.57C1384.26 1880.84 1384.33 1884.61 1385.59 1884.67C1386.85 1884.73 1396.77 1884.71 1399.7 1884.64C1400.92 1884.61 1401.04 1883.49 1401.04 1872.14C1401.04 1860.46 1401.14 1859.53 1402.72 1857.47C1404.83 1854.71 1417.17 1840.99 1418.2 1840.25C1419.4 1839.4 1418.58 1838.22 1440.91 1873.18C1444.26 1878.42 1447.4 1883.14 1447.9 1883.67C1448.51 1884.33 1451.59 1884.69 1457.52 1884.78C1465.05 1884.89 1466.25 1884.74 1466.25 1883.7C1466.25 1882.6 1457.79 1869.23 1437.53 1838.32C1433.47 1832.14 1430.39 1826.69 1430.66 1826.21C1430.94 1825.73 1438.31 1817.4 1447.05 1807.69C1457.85 1795.69 1462.8 1789.66 1462.49 1788.86C1462.23 1788.17 1461.55 1787.88 1460.84 1788.15C1460.18 1788.4 1455.98 1788.61 1451.5 1788.61L1443.37 1788.61L1426.59 1807.39C1417.36 1817.73 1408.09 1828.15 1406 1830.56C1403.91 1832.97 1401.93 1834.78 1401.61 1834.59C1401.3 1834.39 1401.04 1814.95 1401.04 1791.38C1401.04 1759.07 1400.81 1748.31 1400.12 1747.62C1399.55 1747.05 1396.73 1746.7 1392.65 1746.7C1388.56 1746.7 1385.74 1747.05 1385.17 1747.62ZM1709.16 1748.24C1708.59 1749.31 1708.41 1767.95 1708.58 1810.14C1708.79 1865.58 1708.92 1870.79 1710.15 1873.89C1712.24 1879.15 1715.1 1882.33 1719.61 1884.39C1723.28 1886.07 1724.55 1886.24 1731.21 1886.01C1740.77 1885.68 1741.21 1885.34 1741.19 1878.23C1741.19 1875.24 1740.9 1872.35 1740.55 1871.8C1740.15 1871.17 1738.04 1870.75 1734.78 1870.66C1730.18 1870.53 1729.44 1870.29 1727.79 1868.37L1725.95 1866.24V1807.67C1725.95 1755.44 1725.82 1748.97 1724.75 1747.9C1723.84 1746.99 1721.92 1746.7 1716.77 1746.7C1710.75 1746.7 1709.9 1746.87 1709.16 1748.24ZM1977.38 1748.1C1976.38 1749.21 1976.12 1751.12 1976.12 1757.59C1976.12 1764.83 1976.28 1765.78 1977.6 1766.49C1979.17 1767.33 1992.73 1767.58 1994.75 1766.81C1995.75 1766.43 1995.95 1764.86 1995.95 1757.44C1995.95 1751.53 1995.64 1748.22 1995.04 1747.62C1994.45 1747.03 1991.39 1746.7 1986.38 1746.7C1979.86 1746.7 1978.45 1746.92 1977.38 1748.1ZM471.037 1750.26C470.136 1751.16 470.435 1883.7 471.339 1884.26C471.997 1884.66 483.356 1884.97 487.117 1884.68C487.872 1884.62 488.071 1870.57 488.071 1817.18V1749.75H479.808C475.263 1749.75 471.316 1749.98 471.037 1750.26ZM1159.59 1750.75C1159.37 1751.31 1159.3 1755 1159.42 1758.95L1159.64 1766.13L1179.28 1766.33L1198.92 1766.54V1825.15C1198.92 1866.91 1199.16 1883.9 1199.76 1884.27C1200.85 1884.95 1215.29 1884.95 1216.38 1884.27C1216.98 1883.9 1217.22 1866.91 1217.22 1825.15V1766.54L1236.86 1766.33L1256.5 1766.13V1758.13V1750.13L1208.24 1749.94C1168.6 1749.77 1159.91 1749.92 1159.59 1750.75ZM751.129 1761.88C747.941 1762.62 744.937 1763.48 744.455 1763.78C743.857 1764.14 743.579 1768.02 743.579 1776C743.579 1785.95 743.4 1787.75 742.372 1788.14C741.709 1788.4 737.627 1788.61 733.301 1788.61C724.259 1788.61 724.511 1788.4 724.511 1795.76C724.511 1802.75 724.877 1803.01 734.808 1803.26L743.198 1803.46L743.612 1836.23C743.84 1854.25 744.326 1869.85 744.692 1870.89C746.808 1876.95 752.041 1882.15 758.418 1884.53C765.284 1887.1 784.603 1886.49 788.417 1883.6C789.115 1883.07 789.335 1880.96 789.179 1876.3L788.96 1869.75L786.672 1869.88C785.414 1869.96 780.78 1870.24 776.376 1870.51C769.475 1870.94 767.998 1870.82 765.698 1869.62C760.419 1866.87 760.361 1866.47 760.36 1832.99L760.359 1803.08H773.262C780.359 1803.08 786.709 1802.88 787.372 1802.62C788.347 1802.25 788.579 1800.86 788.579 1795.4V1788.64L774.66 1788.43L760.74 1788.23L760.359 1774.51C759.917 1758.63 760.668 1759.65 751.129 1761.88ZM878.579 1762.19L872.096 1763.85L871.715 1776.04L871.333 1788.23L862.343 1788.44L853.353 1788.66L853.572 1795.68L853.791 1802.7L862.715 1802.92L871.64 1803.13L871.868 1836.06L872.096 1868.99L874.083 1873.22C876.484 1878.32 881.134 1882.5 886.746 1884.6C889.975 1885.81 892.647 1886.13 899.392 1886.1C906.729 1886.08 916.046 1884.77 917.225 1883.59C918.049 1882.77 917.879 1870.78 917.032 1870.08C916.469 1869.61 914.256 1869.62 910.903 1870.11C898.667 1871.87 892.555 1870.52 889.986 1865.49C888.581 1862.74 888.494 1860.85 888.494 1832.83V1803.08H901.788C911.819 1803.08 915.329 1802.84 916.093 1802.07C916.928 1801.24 917.342 1793.53 916.787 1789.18C916.747 1788.86 910.908 1788.61 903.811 1788.61C896.714 1788.61 890.364 1788.4 889.701 1788.14C888.663 1787.75 888.494 1785.78 888.494 1774.05V1760.42L886.778 1760.47C885.834 1760.5 882.145 1761.27 878.579 1762.19ZM1065.44 1762.16L1058.96 1763.85L1058.75 1775.62C1058.6 1783.87 1058.26 1787.58 1057.6 1787.99C1057.09 1788.32 1052.98 1788.59 1048.47 1788.6C1042.47 1788.6 1040.25 1788.86 1040.19 1789.56C1039.81 1793.92 1039.96 1800.66 1040.45 1801.72C1040.97 1802.83 1042.41 1803.07 1049.63 1803.25L1058.2 1803.46L1058.58 1836.23C1058.96 1868.64 1058.98 1869.03 1060.76 1872.97C1063.07 1878.08 1067.84 1882.44 1073.35 1884.5C1076.85 1885.81 1079.38 1886.13 1086.26 1886.13C1090.96 1886.12 1096.01 1885.82 1097.48 1885.44C1098.95 1885.06 1101.1 1884.54 1102.27 1884.28L1104.4 1883.8L1104.18 1876.78L1103.96 1869.75L1101.67 1869.88C1100.41 1869.96 1095.78 1870.24 1091.38 1870.52C1084.31 1870.96 1083.05 1870.84 1080.7 1869.55C1075.47 1866.67 1075.44 1866.4 1075.4 1832.99L1075.36 1803.08H1089.04C1097.6 1803.08 1102.91 1802.79 1103.21 1802.3C1103.62 1801.65 1103.83 1795.3 1103.63 1789.96C1103.58 1788.77 1102.24 1788.62 1089.66 1788.43L1075.74 1788.23L1075.36 1774.51C1074.91 1758.51 1075.71 1759.5 1065.44 1762.16ZM1943.58 1778.67C1938.13 1779.97 1931.77 1785.14 1930.11 1789.64C1929.74 1790.63 1929.19 1790.88 1928.26 1790.48C1918.95 1786.52 1917.02 1786.1 1907.86 1786.06C1895.28 1786.02 1888.54 1788.26 1881.08 1794.96C1873.32 1801.93 1870.08 1809.09 1869.99 1819.43C1869.91 1828.89 1872.09 1834.92 1878.87 1843.97C1879.43 1844.72 1878.59 1845.88 1875.6 1848.49C1870.04 1853.36 1868.3 1856.96 1868.27 1863.71C1868.24 1868.47 1868.52 1869.52 1870.66 1872.85C1871.98 1874.92 1874.12 1877.23 1875.4 1877.99C1878.21 1879.64 1878.29 1880.26 1875.91 1881.82C1872.3 1884.18 1868.54 1888.88 1866.98 1892.99C1863.67 1901.65 1866.41 1913.1 1873.27 1919.29C1877.48 1923.08 1885.96 1926.98 1893.31 1928.49C1901.73 1930.21 1923.04 1929.66 1930.77 1927.5C1942.17 1924.33 1949.85 1918.48 1953.88 1909.88C1955.61 1906.21 1955.91 1904.54 1955.91 1898.7C1955.91 1892.86 1955.61 1891.2 1953.87 1887.51C1949.99 1879.23 1942.31 1873.58 1931.54 1871.1C1928.68 1870.44 1920.4 1869.89 1909.77 1869.66C1891.18 1869.26 1887.25 1868.55 1885.04 1865.17C1882.49 1861.27 1884.34 1856.25 1889.26 1853.7C1891.03 1852.79 1892.1 1852.72 1894.34 1853.35C1904.1 1856.11 1916.66 1855.48 1924.64 1851.83C1942.78 1843.52 1950.49 1822.51 1941.84 1804.95C1939.17 1799.53 1939.07 1798.71 1940.87 1796.58C1943.37 1793.64 1945.89 1792.42 1949.5 1792.42C1951.46 1792.42 1953.38 1791.99 1953.79 1791.46C1954.62 1790.39 1954.55 1780.2 1953.7 1778.83C1953.1 1777.85 1947.4 1777.76 1943.58 1778.67ZM566.249 1786.07C558.535 1787.02 548.194 1792.57 545.022 1797.46C542.585 1801.22 541.463 1800.78 541.45 1796.04C541.43 1788.45 541.512 1788.52 533.547 1788.77L526.588 1788.99L526.391 1836.8C526.205 1881.96 526.269 1884.61 527.535 1884.64C536.536 1884.88 541.663 1884.71 542.21 1884.15C542.576 1883.77 543.011 1870.09 543.177 1853.75C543.501 1821.62 543.733 1819.65 547.99 1812.91C552.898 1805.15 558.949 1801.56 567.139 1801.56C575.483 1801.56 580.429 1803.81 583.685 1809.07C587.064 1814.53 587.223 1816.42 587.223 1850.94C587.223 1873.86 587.475 1883.91 588.057 1884.27C588.721 1884.68 598.348 1884.93 603.049 1884.66C603.797 1884.62 604.003 1876.94 604.003 1848.97C604.003 1809.9 603.785 1807.66 599.217 1799.88C593.283 1789.76 580.328 1784.34 566.249 1786.07ZM663.113 1786.27C643.308 1789.22 630.44 1805.77 634.783 1822.7C636.312 1828.66 639.094 1832.9 643.587 1836.1C649.924 1840.62 652.547 1841.32 672.973 1843.92C678.396 1844.61 683.933 1845.64 685.275 1846.2C691.504 1848.8 694.612 1853.81 693.669 1859.73C692.345 1868.06 684.222 1873.15 672.235 1873.17C659.1 1873.19 650.612 1867.96 648.107 1858.31C647.564 1856.22 646.773 1854.26 646.346 1853.95C645.246 1853.16 632.821 1853.26 631.536 1854.07C629.931 1855.08 630.975 1861.79 633.608 1867.38C637.977 1876.65 645.918 1883.01 656.716 1885.88C660.044 1886.77 664.607 1887.18 671.121 1887.19C681.963 1887.21 688.94 1885.79 695.147 1882.28C714.221 1871.52 715.88 1845.88 698.224 1834.71C691.951 1830.74 689.849 1830.21 669.737 1827.48C653.457 1825.27 650.233 1823.01 650.713 1814.13C651.018 1808.49 652.93 1805.63 658.436 1802.58C662.015 1800.6 663.003 1800.42 669.977 1800.44C676.376 1800.45 678.188 1800.74 681.228 1802.22C685.664 1804.38 689.145 1808.43 690.483 1812.99L691.49 1816.42L699.519 1816.63C708.712 1816.88 708.989 1816.69 707.715 1811.01C705.259 1800.06 697.477 1792.05 685.19 1787.83C680.676 1786.28 668.716 1785.43 663.113 1786.27ZM1308.37 1786.03C1293.31 1788.14 1280.75 1798.03 1274.63 1812.61C1270.96 1821.35 1269.41 1838.96 1271.43 1848.95C1273.78 1860.56 1279.1 1870.47 1286.6 1877.2C1300.49 1889.66 1322.57 1890.93 1339.08 1880.2C1346.37 1875.46 1352.95 1865.69 1353.23 1859.19L1353.37 1856.04H1345.8H1338.24L1336.11 1860.15C1334.94 1862.42 1333.06 1865.23 1331.93 1866.41C1325.28 1873.35 1309.43 1874.34 1300.61 1868.36C1294.27 1864.07 1289.14 1854.49 1288.7 1846.13L1288.54 1843.08L1321.27 1842.88C1343.88 1842.75 1354.31 1842.42 1355.02 1841.84C1356.66 1840.48 1356.34 1826.1 1354.51 1818.83C1350.74 1803.89 1341.1 1792.69 1327.82 1787.85C1323.99 1786.45 1312.81 1785.4 1308.37 1786.03ZM1527.34 1786.32C1521.53 1787.36 1514.01 1791.45 1509.57 1795.98C1507.38 1798.21 1505.41 1800.04 1505.18 1800.04C1504.95 1800.04 1504.77 1798.13 1504.77 1795.8C1504.77 1788.97 1504.34 1788.61 1496.35 1788.61H1489.51V1836.61C1489.51 1878.74 1489.65 1884.61 1490.66 1884.66C1491.28 1884.7 1494.37 1884.72 1497.52 1884.72C1500.67 1884.72 1503.93 1884.7 1504.77 1884.66C1506.26 1884.61 1506.29 1884.08 1506.29 1856C1506.29 1823.23 1506.69 1819.95 1511.6 1812.36C1516.58 1804.67 1522.04 1801.56 1530.56 1801.56C1539.76 1801.56 1544.53 1804.21 1547.99 1811.27L1550.15 1815.65L1550.38 1850.13C1550.6 1881.89 1550.72 1884.61 1551.91 1884.69C1555.49 1884.91 1566.72 1884.69 1567.02 1884.39C1567.7 1883.71 1567.27 1816.28 1566.55 1811.9C1564.61 1799.96 1557.39 1791.11 1546.71 1787.56C1542.33 1786.11 1532.18 1785.46 1527.34 1786.32ZM1630.23 1786.29C1614.25 1788.81 1601.2 1800.66 1596.62 1816.8C1594.72 1823.53 1594.27 1844.73 1595.87 1852.67C1599.57 1871.09 1612.44 1884.08 1629.8 1886.91C1651.98 1890.54 1671.74 1878.3 1677.81 1857.18C1680.58 1847.51 1680.85 1827.44 1678.33 1817.94C1673.37 1799.27 1658.92 1787.11 1640.43 1786.05C1636.92 1785.85 1632.33 1785.96 1630.23 1786.29ZM1794.6 1786.31C1782.95 1788.02 1772.17 1795.21 1766.03 1805.33C1756.96 1820.27 1756.29 1847.95 1764.56 1865.45C1767.64 1871.96 1776.23 1880.16 1783.46 1883.5C1795.15 1888.9 1808.99 1888.83 1820.53 1883.31C1827.95 1879.76 1835.94 1871.91 1839.37 1864.8C1845.49 1852.14 1846.5 1831.1 1841.78 1814.89C1838.17 1802.54 1828.18 1792.18 1815.73 1787.9C1810.83 1786.21 1800.49 1785.43 1794.6 1786.31ZM1985.27 1788.61L1978.03 1788.99L1977.83 1836.8C1977.65 1881.96 1977.71 1884.61 1978.98 1884.66C1987.77 1885 1992.75 1884.92 1993.85 1884.41C1995.1 1883.83 1995.19 1880.8 1995.19 1836.61C1995.19 1792.41 1995.1 1789.39 1993.85 1788.82C1993.12 1788.5 1989.26 1788.4 1985.27 1788.61ZM814.281 1789.09C813.337 1790.03 813.643 1883.69 814.593 1884.28C815.87 1885.07 829.777 1884.9 830.591 1884.09C831.02 1883.66 831.225 1864.64 831.106 1836.18L830.91 1788.99L822.861 1788.77C818.435 1788.66 814.574 1788.8 814.281 1789.09ZM940.656 1789.69C940.426 1790.29 940.368 1806.66 940.528 1826.07L940.818 1861.37L942.792 1866.87C947.232 1879.24 954.521 1885.07 967.78 1886.89C980.25 1888.59 993.507 1883.9 998.995 1875.84C999.993 1874.38 1001.07 1873.18 1001.4 1873.18C1001.72 1873.18 1002.23 1875.58 1002.52 1878.52C1002.81 1881.45 1003.37 1884.05 1003.76 1884.29C1005.07 1885.09 1015.97 1885.08 1017.08 1884.27C1018.01 1883.58 1018.14 1876.54 1017.97 1836.23L1017.77 1788.99L1009.83 1788.77C1003.98 1788.61 1001.72 1788.81 1001.26 1789.53C1000.92 1790.07 1000.62 1803.37 1000.6 1819.08C1000.56 1849.24 1000.23 1852.74 996.907 1859.25C994.703 1863.57 990.717 1867.42 985.976 1869.82C982.534 1871.57 981.335 1871.77 975.896 1871.54C968.481 1871.22 964.563 1869.46 961.575 1865.11C958.014 1859.93 957.812 1857.64 957.876 1823.26C957.909 1805.58 957.72 1790.55 957.456 1789.86C957.053 1788.81 955.695 1788.61 949.025 1788.61C942.843 1788.61 940.98 1788.85 940.656 1789.69ZM1902.06 1800.37C1891.64 1802.65 1885.31 1811.68 1886.32 1822.8C1887.04 1830.78 1892 1837.42 1899.16 1839.99C1904.81 1842.02 1913.68 1841.4 1918.38 1838.64C1927.23 1833.46 1931.05 1822.63 1927.4 1813.04C1924.67 1805.88 1920.45 1802.26 1912.67 1800.43C1907.16 1799.13 1907.68 1799.14 1902.06 1800.37ZM1309.3 1800.81C1305.41 1801.48 1300.49 1804.03 1297.2 1807.09C1292.92 1811.05 1288.92 1819.69 1288.92 1824.93V1827.46H1313.8H1338.69L1338.17 1822.86C1336.41 1807.36 1324.43 1798.21 1309.3 1800.81ZM1629 1801.85C1621.18 1804.64 1615.19 1812.29 1613.11 1822.13C1611.47 1829.92 1611.28 1840.27 1612.62 1847.97C1614.04 1856.1 1616.48 1861.57 1620.56 1865.82C1631.73 1877.44 1651.44 1874.24 1658.71 1859.63C1661.61 1853.8 1662.27 1849.54 1662.27 1836.61C1662.27 1823.67 1661.61 1819.41 1658.71 1813.58C1656.38 1808.9 1652.63 1805.26 1647.78 1802.96C1643.98 1801.17 1642.22 1800.8 1637.48 1800.83C1634.33 1800.85 1630.52 1801.31 1629 1801.85ZM1791.85 1802.62C1781.35 1807.51 1776.27 1818.66 1776.3 1836.77C1776.33 1853.19 1780.37 1863.62 1788.76 1868.92C1798.38 1875 1810.65 1873.9 1818.28 1866.28C1824.76 1859.81 1827.01 1852.16 1827.01 1836.61C1827.01 1817.29 1823.02 1808.26 1812.07 1802.81C1806.49 1800.03 1797.6 1799.95 1791.85 1802.62ZM1890.72 1885.15C1884.76 1887.19 1880.12 1895.01 1881.22 1901.19C1882.91 1910.67 1891.99 1915.08 1909.77 1915.05C1924.32 1915.02 1933.31 1912.17 1937.38 1906.28C1939.07 1903.84 1939.46 1902.42 1939.48 1898.7C1939.52 1891.58 1936.18 1887.57 1928.45 1885.44C1924.03 1884.22 1894.12 1883.99 1890.72 1885.15ZM498.784 1985.99C485.304 1989.51 474.651 1997.57 469.129 2008.43C466.262 2014.07 465.232 2018.37 465.208 2024.83C465.145 2041.6 475.914 2054.48 493.791 2059.02C497.147 2059.88 505.872 2061.47 513.181 2062.55C528.226 2064.8 533.486 2066.47 537.802 2070.36C542.701 2074.78 544.11 2078.22 544.121 2085.75C544.129 2091.47 543.894 2092.59 542.123 2095.31C539.824 2098.83 535.653 2102.69 532.211 2104.47C522.568 2109.45 501.265 2108.86 492.416 2103.36C485.871 2099.29 480.143 2090.78 478.97 2083.36C478.633 2081.23 477.882 2079.19 477.303 2078.82C475.796 2077.87 463.096 2077.97 461.262 2078.95C459.91 2079.68 459.785 2080.25 460.232 2083.72C461.929 2096.88 470.272 2110.01 481.054 2116.49C504.223 2130.42 540.123 2125.95 554.773 2107.3C560.598 2099.89 562.257 2095.59 562.653 2086.89C563.241 2073.96 560.348 2066.15 552.046 2058.25C544.392 2050.96 536.15 2047.76 517.816 2044.95C500.526 2042.3 497.241 2041.6 493.608 2039.76C486.174 2035.99 482.909 2029.94 483.781 2021.54C484.297 2016.57 485.514 2013.83 488.952 2009.92C494.143 2004.02 501.712 2001.2 512.477 2001.18C528.234 2001.15 537.545 2007.89 541.391 2022.12L542.627 2026.7H551.387H560.147L560.386 2024.63C560.717 2021.77 558.621 2013.97 556.26 2009.27C548.288 1993.41 532.222 1984.39 512.096 1984.47C507.071 1984.49 502.529 1985.01 498.784 1985.99ZM923.681 1985.44C923.018 1986.24 922.844 2001.7 922.995 2046.61C923.185 2103.08 923.283 2106.93 924.618 2110.49C928.069 2119.67 933.476 2123.07 944.695 2123.08C948.548 2123.08 952.594 2122.74 953.686 2122.33C955.643 2121.59 955.669 2121.48 955.452 2114.9L955.232 2108.23L949.721 2107.85C945.318 2107.54 943.861 2107.12 942.475 2105.73L940.74 2103.99L940.359 2044.4L939.977 1984.8L932.274 1984.58C926.385 1984.42 924.362 1984.62 923.681 1985.44ZM1093.43 1984.9C1093.14 1985.19 1092.9 2016.03 1092.9 2053.42C1092.9 2114.7 1093.02 2121.44 1094.11 2121.86C1095.67 2122.46 1106.91 2122.46 1108.47 2121.86C1109.54 2121.45 1109.68 2118.33 1109.7 2094.62C1109.7 2079.9 1110.06 2065.46 1110.48 2062.54C1111.85 2053.05 1116.37 2045.72 1123.79 2040.97C1126.09 2039.5 1128.14 2038.94 1132.18 2038.68C1141.74 2038.08 1147.46 2040.77 1151.25 2047.68L1153.54 2051.85L1153.76 2086.1C1153.92 2109.06 1154.26 2120.68 1154.81 2121.34C1155.74 2122.45 1168.11 2122.73 1169.78 2121.67C1171.14 2120.81 1171.2 2052.69 1169.85 2047.14C1166.51 2033.37 1157.29 2025.08 1143.38 2023.34C1131.91 2021.9 1120.86 2025.18 1113.98 2032.06C1112.1 2033.93 1110.37 2035.47 1110.13 2035.47C1109.89 2035.47 1109.61 2024.07 1109.5 2010.13L1109.3 1984.8L1101.63 1984.58C1097.42 1984.46 1093.73 1984.61 1093.43 1984.9ZM1888.12 1985.6C1887.27 1987.81 1887.58 2119.24 1888.44 2120.85C1889.11 2122.11 1890.07 2122.32 1895.25 2122.32C1902.72 2122.32 1903.66 2121.59 1903.66 2115.79C1903.66 2113.52 1903.93 2111.66 1904.26 2111.66C1904.59 2111.66 1906.02 2112.89 1907.44 2114.4C1911.07 2118.24 1914.9 2120.48 1921.76 2122.8C1927.03 2124.57 1928.5 2124.75 1934.94 2124.39C1956.15 2123.22 1969.22 2109.25 1973.02 2083.7C1975.81 2064.91 1970.4 2044.45 1959.76 2033.56C1950.18 2023.76 1933.53 2020.3 1919.6 2025.21C1915.22 2026.75 1910.58 2029.53 1908.3 2031.96C1907.28 2033.05 1906.17 2033.94 1905.83 2033.94C1905.49 2033.94 1905.12 2022.88 1905.01 2009.37L1904.81 1984.8L1896.7 1984.58C1889.81 1984.4 1888.52 1984.55 1888.12 1985.6ZM1253.22 1987.62C1251.9 1988.94 1251.9 2120.08 1253.22 2121.41C1254.32 2122.5 1268.01 2122.68 1268.68 2121.61C1268.92 2121.22 1269.12 2097.54 1269.13 2068.98C1269.13 2029.63 1269.35 2017.14 1270.03 2017.37C1270.86 2017.64 1273.38 2021.62 1288.5 2046.51C1298.2 2062.47 1304.48 2072.79 1313.3 2087.27C1318.03 2095.03 1324.34 2105.42 1327.33 2110.37C1335.02 2123.09 1333.97 2122.32 1343.67 2122.31C1348.17 2122.3 1352.28 2122.02 1352.81 2121.69C1353.58 2121.2 1353.78 2107.42 1353.79 2054.62C1353.79 2018.07 1353.6 1987.83 1353.35 1987.43C1352.76 1986.48 1338.72 1986.48 1338.13 1987.44C1337.88 1987.85 1337.69 2011.71 1337.72 2040.46C1337.75 2082.39 1337.57 2092.68 1336.79 2092.42C1336.26 2092.25 1333.91 2088.87 1331.56 2084.93C1329.22 2080.98 1321.87 2068.84 1315.24 2057.94C1308.6 2047.05 1301.73 2035.73 1299.97 2032.8C1298.21 2029.87 1292.89 2021.12 1288.15 2013.37C1283.41 2005.62 1278.33 1997.22 1276.87 1994.7C1272.16 1986.59 1272.35 1986.7 1262.62 1986.7C1257.04 1986.7 1253.83 1987.02 1253.22 1987.62ZM620.782 2023.32C614.246 2024.19 610.05 2025.82 603.833 2029.9C591.933 2037.72 585.029 2051.05 583.795 2068.61C581.972 2094.56 593.648 2115.53 613.78 2122.46C620.582 2124.8 634.221 2124.97 640.613 2122.78C654.034 2118.2 663.046 2109.37 666.61 2097.31C667.434 2094.52 667.416 2093.91 666.493 2093.32C665.19 2092.5 652.774 2092.39 651.651 2093.19C651.22 2093.5 650.237 2095.18 649.466 2096.93C647.337 2101.75 642.858 2105.94 637.791 2107.85C631.799 2110.11 622.121 2109.77 616.829 2107.13C612.328 2104.88 607.79 2100.22 605.195 2095.19C603.132 2091.18 600.898 2082.31 601.526 2080.61C601.8 2079.87 609.028 2079.66 634.149 2079.66C651.898 2079.66 666.963 2079.45 667.626 2079.19C669.565 2078.45 669.32 2061.96 667.259 2054.5C664.097 2043.05 656.725 2033.15 647.545 2028.02C639.667 2023.62 630.576 2022.03 620.782 2023.32ZM1420.58 2023.37C1417.17 2023.81 1413.08 2025.11 1408.86 2027.08C1397.16 2032.56 1389.03 2043.31 1386.09 2057.18C1384.38 2065.3 1384.38 2082.47 1386.1 2090.32C1389.83 2107.38 1401.55 2119.77 1417.52 2123.53C1424.89 2125.27 1435.54 2124.65 1442.32 2122.09C1462.2 2114.57 1471.45 2097.29 1470.23 2069.92C1469.74 2059.06 1467.86 2050.55 1464.56 2044.36C1461.87 2039.31 1452.89 2030.33 1447.86 2027.65C1440.63 2023.81 1430.02 2022.15 1420.58 2023.37ZM1643.74 2023.33C1629.61 2025.16 1618.74 2033.21 1611.84 2046.93C1606.73 2057.1 1604.94 2072.2 1607.3 2085.37C1609.37 2096.92 1613.37 2105 1620.71 2112.43C1629.54 2121.37 1640.61 2125.35 1653.87 2124.35C1664.95 2123.51 1673.66 2119.59 1680.58 2112.34C1685.08 2107.63 1689.18 2099.92 1689.52 2095.5L1689.72 2092.99L1683.24 2092.76C1674.49 2092.46 1673.78 2092.71 1672.26 2096.7C1670.62 2100.99 1666.39 2105.34 1661.94 2107.31C1657.58 2109.24 1648.84 2109.87 1643.65 2108.63C1636.09 2106.81 1629.16 2099.86 1626.17 2091.08C1624.28 2085.53 1623.55 2080.63 1624.51 2080.04C1624.94 2079.77 1639.64 2079.59 1657.19 2079.63C1674.74 2079.67 1689.67 2079.48 1690.36 2079.22C1691.44 2078.8 1691.63 2077.43 1691.62 2069.86C1691.61 2064.61 1691.13 2058.97 1690.44 2056.04C1686.27 2038.31 1672.62 2025.41 1655.8 2023.32C1652.25 2022.88 1649.16 2022.56 1648.94 2022.61C1648.72 2022.66 1646.38 2022.99 1643.74 2023.33ZM1757.22 2023.37C1750.86 2024.4 1744.11 2028.04 1740.12 2032.6C1738.22 2034.76 1736.54 2036.37 1736.38 2036.19C1736.22 2036 1735.78 2033.62 1735.4 2030.89L1734.72 2025.94H1727.48H1720.23L1720.03 2073.09C1719.89 2107.29 1720.08 2120.53 1720.7 2121.28C1721.73 2122.52 1735.5 2122.78 1736.24 2121.57C1736.49 2121.16 1736.68 2109.08 1736.65 2094.72C1736.58 2060.72 1737.75 2053.27 1744.31 2045.81C1748.46 2041.09 1752.28 2039.1 1757.96 2038.7C1760.7 2038.5 1764.49 2038.76 1766.38 2039.26C1770.96 2040.5 1775.74 2045.43 1776.94 2050.17C1777.53 2052.55 1777.82 2064.34 1777.82 2087.08C1777.82 2112.05 1778.05 2120.72 1778.73 2121.41C1779.97 2122.65 1793.2 2122.65 1794.44 2121.41C1795.12 2120.73 1795.36 2113.11 1795.36 2091.83C1795.36 2061.58 1795.77 2056.66 1798.78 2050.72C1801.1 2046.15 1807.34 2040.38 1811.08 2039.34C1814.44 2038.41 1820.62 2038.26 1824.41 2039.02C1827.69 2039.68 1833.55 2045.51 1834.99 2049.56C1835.85 2051.97 1836.13 2059.76 1836.35 2086.88C1836.56 2112.32 1836.87 2121.29 1837.54 2121.72C1838.04 2122.04 1841.41 2122.3 1845.03 2122.31C1849.81 2122.32 1851.86 2122.03 1852.52 2121.24C1853.19 2120.42 1853.35 2111.12 1853.13 2084.09C1852.82 2045.21 1852.88 2045.89 1848.51 2037.26C1846.16 2032.64 1841.01 2027.78 1836.21 2025.66C1828.69 2022.34 1815.94 2022.15 1808 2025.25C1802.73 2027.31 1796.82 2031.77 1794.33 2035.58C1793.01 2037.6 1791.7 2039.25 1791.43 2039.26C1791.15 2039.27 1790.06 2037.79 1788.99 2035.97C1786.51 2031.74 1781.65 2027.37 1777.42 2025.55C1774.66 2024.37 1763.74 2022.29 1761.94 2022.6C1761.65 2022.65 1759.53 2023 1757.22 2023.37ZM2032.68 2023.33C2018.82 2025.14 2007.43 2033.26 2001.22 2045.75C1996.95 2054.34 1995.92 2058.77 1995.42 2070.55C1995.08 2078.61 1995.27 2082.27 1996.29 2087.31C2002.46 2117.83 2031.67 2133.01 2059.07 2119.94C2068.29 2115.55 2077.47 2103.88 2077.81 2096.14L2077.94 2092.99H2070.33H2062.73L2060.69 2097.18C2056.81 2105.2 2050.99 2108.76 2041 2109.22C2032.52 2109.61 2026.99 2107.69 2021.9 2102.59C2016.93 2097.63 2012.77 2088.15 2012.74 2081.75L2012.73 2079.66H2045.76C2070.43 2079.66 2079.01 2079.42 2079.7 2078.74C2080.86 2077.58 2080.92 2065.62 2079.8 2059.42C2077.14 2044.72 2069.48 2033.65 2057.35 2026.97C2051.59 2023.8 2041 2022.23 2032.68 2023.33ZM732.138 2024.31C726.609 2025.81 721.412 2028.73 717.295 2032.64L713.452 2036.28L712.926 2031.69C712.637 2029.16 712.188 2026.75 711.928 2026.32C711.245 2025.22 699.093 2025.35 697.969 2026.47C696.756 2027.69 696.634 2160.5 697.843 2162.75C698.536 2164.05 699.493 2164.23 705.699 2164.23C710.178 2164.23 713.1 2163.89 713.681 2163.31C714.354 2162.64 714.596 2156 714.596 2138.17C714.596 2124.84 714.812 2113.94 715.076 2113.94C715.34 2113.94 716.911 2115.17 718.569 2116.66C724.08 2121.64 732.969 2124.59 742.487 2124.6C760.802 2124.63 774.843 2113.07 780.442 2093.37C783.431 2082.85 783.46 2065.06 780.507 2054.7C778.409 2047.33 773.992 2039.24 769.373 2034.3C764.485 2029.08 759.657 2026.15 753.086 2024.44C747.781 2023.06 736.98 2022.99 732.138 2024.31ZM1535.17 2024.04C1529.75 2025.41 1523.82 2028.56 1520.08 2032.05C1517.99 2034.01 1515.92 2035.38 1515.48 2035.11C1515.04 2034.84 1514.68 2032.96 1514.68 2030.94C1514.68 2028.72 1514.26 2026.92 1513.61 2026.38C1512.93 2025.82 1510.21 2025.58 1506.17 2025.72L1499.81 2025.94L1499.61 2094.05C1499.47 2143.74 1499.65 2162.44 1500.28 2163.19C1501.61 2164.8 1515.12 2164.65 1515.74 2163.02C1516 2162.36 1516.21 2151.05 1516.21 2137.88C1516.21 2121.29 1516.46 2113.94 1517.03 2113.94C1517.48 2113.94 1518.89 2114.99 1520.17 2116.26C1527.58 2123.67 1544.03 2126.8 1556.03 2123.1C1568.24 2119.33 1577.89 2109.04 1581.75 2095.66C1582.29 2093.77 1583.07 2091.2 1583.46 2089.94C1584.65 2086.21 1585.13 2068.37 1584.2 2062.47C1581.27 2043.82 1572.21 2030.86 1558.16 2025.24C1554.2 2023.66 1539.68 2022.9 1535.17 2024.04ZM2144.09 2025.98C2136.91 2027.91 2129.75 2032.68 2127.49 2037.05C2126.85 2038.27 2126.05 2039.27 2125.71 2039.27C2125.36 2039.27 2124.77 2036.28 2124.39 2032.61L2123.71 2025.94L2116.27 2025.72C2110.61 2025.56 2108.83 2025.74 2108.82 2026.49C2108.81 2027.02 2108.8 2048.52 2108.8 2074.26C2108.79 2111.48 2108.99 2121.19 2109.76 2121.68C2111.39 2122.71 2123.79 2122.45 2124.69 2121.37C2125.19 2120.77 2125.59 2110.21 2125.79 2092.61C2126.08 2066.41 2126.19 2064.5 2127.78 2059.69C2129.81 2053.54 2133.1 2049.05 2138.07 2045.64C2143.03 2042.24 2146.9 2041.22 2154.41 2041.34L2160.7 2041.44V2033.58C2160.7 2027.12 2160.48 2025.64 2159.49 2025.26C2157.35 2024.44 2148.23 2024.87 2144.09 2025.98ZM810.275 2027.36C810.02 2028.37 809.957 2044.58 810.135 2063.38C810.479 2099.69 810.595 2100.91 814.445 2108.85C819.929 2120.17 833.576 2126.29 848.258 2124.03C855.912 2122.84 864.323 2118.5 867.768 2113.94C869.195 2112.06 870.625 2110.41 870.946 2110.29C871.267 2110.17 871.777 2112.4 872.079 2115.24C872.381 2118.09 872.979 2120.85 873.408 2121.37C874.527 2122.73 885.736 2122.66 886.881 2121.28C887.507 2120.53 887.69 2107.29 887.547 2073.09L887.35 2025.94L879.151 2025.73C872.866 2025.56 870.956 2025.74 870.967 2026.49C870.976 2027.02 870.844 2040.32 870.673 2056.04C870.347 2086.31 870.068 2088.96 866.402 2096.63C864.449 2100.72 860.131 2104.76 855.135 2107.17C852.297 2108.55 850.779 2108.74 845.126 2108.47C839.289 2108.19 838.052 2107.87 835.152 2105.91C833.086 2104.5 831.092 2102.22 829.849 2099.85L827.859 2096.04L827.477 2060.99L827.096 2025.94L818.917 2025.73C810.821 2025.51 810.735 2025.53 810.275 2027.36ZM979.79 2026.04C979.497 2026.34 979.257 2042.21 979.257 2061.32C979.257 2094.09 979.347 2096.39 980.833 2101.77C984.624 2115.48 993.791 2122.99 1008.39 2124.35C1018.96 2125.33 1030.03 2121.31 1036.39 2114.19C1038.38 2111.95 1040.24 2110.35 1040.52 2110.64C1040.81 2110.92 1041.04 2113.12 1041.04 2115.54C1041.04 2121.55 1041.95 2122.32 1049.05 2122.32C1053.13 2122.32 1054.98 2122 1055.86 2121.13C1056.92 2120.06 1057.05 2114.72 1057.04 2073.7C1057.04 2048.27 1056.75 2027.02 1056.41 2026.48C1055.95 2025.76 1053.68 2025.56 1047.84 2025.72L1039.89 2025.94L1039.47 2056.42C1039.07 2085.19 1038.96 2087.18 1037.37 2091.96C1034.01 2102.06 1025.57 2108.59 1015.87 2108.6C1006.4 2108.6 1001.54 2105.83 998.23 2098.52C996.43 2094.54 996.416 2094.3 996.037 2060.23L995.655 2025.94L987.989 2025.73C983.774 2025.61 980.084 2025.75 979.79 2026.04ZM621.759 2038.12C613.697 2039.9 608.199 2044.65 604.514 2053.03C602.395 2057.85 601.196 2064.41 602.431 2064.43C616.388 2064.73 650.942 2064.31 651.411 2063.84C652.415 2062.84 650.604 2054.58 648.387 2050.05C643.679 2040.44 632.986 2035.65 621.759 2038.12ZM1645.87 2037.78C1641.28 2038.56 1639.24 2039.44 1635.38 2042.25C1630.9 2045.52 1628.11 2049.65 1626.11 2055.98C1623.16 2065.3 1621.06 2064.52 1649.22 2064.51C1662.59 2064.51 1673.84 2064.21 1674.21 2063.84C1675.14 2062.91 1673.19 2054.21 1671.06 2049.74C1666.95 2041.11 1656.2 2036.01 1645.87 2037.78ZM1926.93 2037.57C1921.45 2038.16 1913.95 2042.94 1910.35 2048.13C1902.94 2058.81 1902.05 2083.72 1908.62 2096.41C1910.67 2100.37 1915.88 2105.53 1920.03 2107.72C1923.34 2109.46 1924.77 2109.74 1930.36 2109.7C1935.59 2109.67 1937.57 2109.31 1940.62 2107.83C1947.73 2104.4 1952.38 2097.94 1954.86 2088.04C1956.26 2082.47 1956.25 2064.62 1954.85 2059.08C1951.12 2044.29 1940.48 2036.1 1926.93 2037.57ZM2034.75 2037.81C2024.39 2039.42 2016.48 2047.4 2013.78 2058.96C2013.24 2061.32 2013.06 2063.53 2013.4 2063.87C2013.85 2064.32 2047.4 2064.71 2062.12 2064.44C2064.62 2064.39 2061.8 2052.2 2058.02 2046.77C2053.22 2039.84 2044.16 2036.36 2034.75 2037.81ZM730.726 2039.24C720.293 2044.12 715.662 2051.77 713.763 2067.28C712.994 2073.55 713.045 2075.98 714.086 2082.93C716.021 2095.84 719.588 2102.03 728.019 2107.08C732.284 2109.64 732.759 2109.75 739.738 2109.72C745.778 2109.7 747.566 2109.41 750.284 2107.98C760.73 2102.49 765.397 2091.51 765.232 2072.8C765.081 2055.72 760.68 2045.65 751.096 2040.43C745.568 2037.42 735.841 2036.85 730.726 2039.24ZM1419.72 2038.76C1414.1 2040.97 1408.85 2045.33 1406.46 2049.78C1402.26 2057.63 1400.69 2073.53 1402.9 2085.91C1404.85 2096.81 1409.73 2104.15 1417.44 2107.77C1422.69 2110.23 1432.92 2110.05 1438.25 2107.4C1445.77 2103.66 1450.24 2096.57 1452.21 2085.29C1453.25 2079.31 1452.72 2061.86 1451.35 2057.18C1447.59 2044.34 1439.26 2037.67 1427.13 2037.81C1424.32 2037.84 1420.98 2038.27 1419.72 2038.76ZM1534.13 2038.69C1531.19 2039.73 1526.3 2043.09 1523.7 2045.87C1514.87 2055.25 1512.68 2081.04 1519.48 2095.6C1521.36 2099.64 1527.59 2106.17 1531.46 2108.17C1535.32 2110.16 1543.94 2110.6 1549.17 2109.09C1557.83 2106.57 1564.56 2097.7 1566.5 2086.23C1567.62 2079.63 1567.62 2067.32 1566.51 2061.15C1564.57 2050.38 1557.72 2041.33 1549.72 2038.95C1545.15 2037.6 1537.56 2037.47 1534.13 2038.69Z" fill="white"/>
</svg>
