<svg width="3000" height="3000" viewBox="0 0 3000 3000" fill="none" xmlns="http://www.w3.org/2000/svg">
<path fill-rule="evenodd" clip-rule="evenodd" d="M721.524 789.403C719.125 789.948 712.115 791.039 705.946 791.827C636.209 800.744 568.877 832.713 531.394 874.703C484.74 926.971 469.357 980.173 482.114 1045.15C488.457 1077.48 504.535 1108.28 527.732 1132.55C546.646 1152.35 563.1 1164.14 588.798 1176.32C629.221 1195.48 667.939 1203.09 759.535 1209.89C781.788 1211.54 810.173 1215.01 829.948 1218.49C872.44 1225.97 904.747 1245.18 915.549 1269.39C924.269 1288.94 924.295 1319.84 915.606 1339.23C906.379 1359.83 883.918 1381.52 861.353 1391.64C833.326 1404.21 784.791 1410.89 743.645 1407.86C701.399 1404.75 675.147 1397.57 653.366 1383.19C626.731 1365.59 605.374 1333.65 600.24 1303.73C598.196 1291.83 596.776 1288.86 591.906 1286.35C588.635 1284.66 585.96 1284.65 567.33 1286.26C555.832 1287.26 530.442 1289.26 510.907 1290.71C466.304 1294.03 467.629 1293.81 463.236 1298.51C459.975 1301.99 459.67 1303.02 460.218 1308.67C461.78 1324.75 467.792 1347.84 474.469 1363.4C499.012 1420.61 548.213 1467.93 609.984 1493.74C653.253 1511.82 704.85 1521.11 762.027 1521.12C816.489 1521.13 867.757 1513.28 910.331 1498.41C924.715 1493.39 951.395 1480.33 962.913 1472.68C1004.39 1445.13 1037.14 1404.41 1049.76 1364.72C1056.89 1342.33 1058.57 1329.76 1058.6 1298.79C1058.62 1273.89 1058.26 1268.49 1055.85 1257.12C1050.22 1230.62 1042.05 1211.28 1026.7 1188.08C999.551 1147.08 950.582 1115.7 889.768 1100.35C864.469 1093.97 841.823 1091 752.057 1082.31C707.143 1077.97 681.489 1074.23 670.113 1070.37C643.036 1061.19 626.63 1046.35 618.429 1023.61C615.246 1014.78 615.308 983.029 618.527 973.503C627.87 945.857 656.542 919.88 688.498 910.106C721.772 899.93 770.634 897.218 801.907 903.811C829.394 909.606 852.277 918.899 867.11 930.286C884.611 943.723 900.919 969.2 905.921 990.918C909.644 1007.09 910.948 1007.49 948.342 1003.97C964.449 1002.46 985.76 1000.52 995.699 999.673C1029.25 996.802 1039.33 995.196 1042.27 992.255C1048.68 985.84 1042.78 958.007 1029.21 930.658C1006.62 885.114 967.062 845.603 920.924 822.487C891.606 807.798 852.679 796.2 818.108 791.851C811.939 791.075 804.864 789.925 802.386 789.297C796.933 787.915 727.677 788.006 721.524 789.403ZM2144.74 792.595C2099.09 797.503 2057.57 809.896 2015.32 831.23C1944.79 866.843 1890.12 921.683 1854.8 992.251C1835.59 1030.64 1824.91 1065.32 1818.64 1109.71C1815.55 1131.56 1815.56 1179.01 1818.64 1200.52C1823.81 1236.52 1833.32 1272.27 1843.89 1295.41C1845.54 1299.02 1846.89 1302.45 1846.89 1303.04C1846.89 1305.09 1841.08 1305.6 1817.6 1305.64C1804.58 1305.66 1793.31 1306.08 1792.55 1306.59C1789.68 1308.5 1788.47 1312.97 1788.09 1323.08C1787.7 1333.4 1787.74 1333.56 1791.1 1335.19C1795.51 1337.34 1821.13 1340.17 1845.87 1341.24C1856.62 1341.7 1865.89 1342.42 1866.47 1342.83C1867.04 1343.24 1871.89 1350.18 1877.24 1358.25C1892.15 1380.75 1905.23 1396.54 1925.86 1416.99C1972.43 1463.14 2029.69 1495.39 2092.46 1510.84C2098.25 1512.27 2104.96 1513.96 2107.36 1514.59C2109.76 1515.22 2120.13 1517.02 2130.41 1518.58C2146.32 1520.99 2154.02 1521.41 2182.13 1521.41C2218.54 1521.4 2235.53 1519.51 2266.56 1512.03C2399.76 1479.92 2504.66 1376.66 2537.31 1245.54C2542.25 1225.71 2542.23 1219.99 2537.25 1214.32C2532.74 1209.19 2529.64 1208.11 2512.39 1205.6C2505.19 1204.56 2484.16 1201.45 2465.66 1198.7C2428.88 1193.22 2427.16 1193.26 2420.99 1199.69C2418.63 1202.15 2416.75 1206.67 2414.52 1215.22C2409.73 1233.61 2405.9 1243.59 2395.78 1263.96C2365.06 1325.85 2304.29 1373.49 2235.72 1389.44C2220.52 1392.97 2214.96 1393.84 2198.34 1395.25C2175.33 1397.19 2153.03 1395.38 2127.3 1389.46C2100.01 1383.18 2071.59 1370.57 2047.55 1354.09C2032.65 1343.86 2015.25 1329.05 2015.19 1326.53C2015.15 1325.04 2016.52 1324.16 2019.81 1323.59C2026.35 1322.44 2045.46 1317.47 2063.11 1312.32C2114.07 1297.44 2169.04 1274.77 2215.78 1249.36C2232.4 1240.32 2237.23 1237.55 2251.92 1228.7C2361.99 1162.32 2454.99 1068.95 2488.09 991.607C2498.34 967.635 2498.38 967.825 2477.84 940.418C2452.17 906.183 2415.57 871.424 2382.78 850.142C2340.16 822.488 2294.57 804.391 2245.69 795.733C2217.47 790.735 2174.48 789.398 2144.74 792.595ZM1163.82 803.418C1161.49 804.971 1158.6 808.19 1157.4 810.571C1155.33 814.67 1155.23 833.1 1155.53 1156.36C1155.83 1483.44 1155.94 1497.96 1158.1 1501.14C1162.99 1508.33 1163.59 1508.4 1223.68 1508.4C1283.82 1508.4 1284.55 1508.32 1289.62 1501.2L1292.3 1497.46L1292.61 1369.51L1292.93 1241.57L1363.97 1241.19C1443.52 1240.75 1446.58 1240.98 1462.91 1248.55C1471.3 1252.43 1475.18 1255.23 1482.5 1262.66C1490.43 1270.7 1492.64 1274.03 1499.25 1287.85C1507.95 1306.02 1511.18 1312.88 1516.4 1324.29C1518.44 1328.74 1522.47 1337.42 1525.36 1343.58C1528.25 1349.73 1532.17 1358.13 1534.07 1362.23C1535.97 1366.34 1541.31 1377.82 1545.92 1387.74C1550.53 1397.66 1555.87 1409.13 1557.77 1413.24C1559.67 1417.34 1565.82 1430.5 1571.43 1442.47C1577.04 1454.44 1583.96 1469.28 1586.81 1475.43C1598.14 1499.9 1600.54 1503.93 1605.12 1506.22C1609.1 1508.2 1614.98 1508.39 1672.18 1508.4C1717.47 1508.4 1735.65 1508 1737.61 1506.95C1745.28 1502.88 1745.19 1497.34 1737.22 1481.15C1733.79 1474.2 1730.99 1468.3 1730.99 1468.05C1730.99 1467.8 1726.5 1458.25 1721.02 1446.82C1715.53 1435.4 1711.05 1425.9 1711.05 1425.73C1711.05 1425.55 1706.63 1416.23 1701.23 1405.02C1695.83 1393.8 1690 1381.55 1688.27 1377.78C1686.54 1374.02 1681.36 1363.11 1676.77 1353.53C1672.17 1343.95 1666.85 1332.75 1664.95 1328.65C1663.04 1324.54 1658.26 1314.47 1654.33 1306.26C1650.4 1298.05 1645.63 1287.97 1643.73 1283.87C1632.71 1260.03 1629.71 1254.04 1625.14 1246.82C1619.62 1238.11 1609.91 1228.29 1601.65 1223.09C1598.76 1221.26 1596.39 1219.32 1596.39 1218.78C1596.39 1218.23 1600.46 1216.22 1605.43 1214.32C1625.54 1206.62 1650.41 1190.59 1667.19 1174.51C1698.48 1144.54 1717.52 1110 1725.98 1067.87C1735.95 1018.23 1729.62 965.93 1708.47 923.123C1696.81 899.529 1681.99 880.391 1661.82 862.905C1626.9 832.624 1578.11 811.513 1526.6 804.397C1503.27 801.176 1473.61 800.618 1324.58 800.607L1168.05 800.595L1163.82 803.418ZM1293.54 913.586C1292.74 913.856 1292.31 950.923 1292.31 1019.07V1124.14L1396.68 1123.69C1498.02 1123.26 1501.39 1123.17 1512.45 1120.59C1558.85 1109.78 1586.33 1082.79 1592.56 1041.92C1595.03 1025.7 1595.19 1018.16 1593.31 1006.5C1586.11 961.815 1556.55 930.776 1509.05 918.023L1496.07 914.537L1420.67 914.159C1379.2 913.953 1333.91 913.644 1320.02 913.476C1306.13 913.308 1294.22 913.358 1293.54 913.586ZM2160.32 917.568C2101.16 923.525 2050.39 948.364 2008.88 991.662C1957.33 1045.43 1934.68 1116.02 1944.86 1191.19C1945.86 1198.57 1949.9 1216.35 1952.35 1224.16C1959.5 1246.94 1973.34 1276.17 1977.27 1276.76C1981.12 1277.34 2016.7 1265.19 2043.17 1254.26C2087.87 1235.8 2121.6 1218.15 2157.83 1194.3C2204.44 1163.61 2238.14 1132.72 2286.76 1076.11C2319.11 1038.45 2352.72 991.488 2350.83 986.583C2349.69 983.621 2327.66 965.622 2314.16 956.625C2293.72 943.001 2264.51 930.13 2239.67 923.8C2216.44 917.877 2183.18 915.266 2160.32 917.568Z" fill="#0F936D"/>
<path fill-rule="evenodd" clip-rule="evenodd" d="M893.039 1701.13C892.296 1701.87 891.919 1705.91 891.919 1713.15C891.919 1722.23 892.165 1724.14 893.395 1724.61C896.077 1725.64 914.167 1725.25 914.848 1724.14C916.072 1722.17 915.439 1701.64 914.129 1700.81C912.177 1699.57 894.327 1699.84 893.039 1701.13ZM1592.06 1701.13C1591.2 1701.98 1590.94 1721.99 1590.94 1785.5C1590.94 1864.14 1591.03 1868.76 1592.57 1868.83C1594.1 1868.9 1606.24 1868.87 1609.83 1868.79C1611.32 1868.76 1611.47 1867.39 1611.47 1853.5C1611.47 1839.2 1611.6 1838.07 1613.53 1835.55C1616.11 1832.17 1631.21 1815.38 1632.47 1814.48C1633.93 1813.43 1632.93 1811.99 1660.26 1854.77C1664.36 1861.18 1668.2 1866.96 1668.81 1867.61C1669.55 1868.42 1673.32 1868.85 1680.58 1868.96C1689.8 1869.1 1691.26 1868.92 1691.26 1867.64C1691.26 1866.29 1680.91 1849.94 1656.12 1812.11C1651.16 1804.55 1647.38 1797.89 1647.72 1797.3C1648.05 1796.71 1657.08 1786.51 1667.77 1774.63C1680.99 1759.95 1687.04 1752.57 1686.66 1751.6C1686.34 1750.75 1685.51 1750.39 1684.64 1750.72C1683.84 1751.03 1678.7 1751.29 1673.22 1751.29L1663.26 1751.29L1642.73 1774.27C1631.44 1786.91 1620.1 1799.67 1617.54 1802.62C1614.98 1805.57 1612.56 1807.79 1612.17 1807.55C1611.79 1807.31 1611.47 1783.52 1611.47 1754.68C1611.47 1715.14 1611.19 1701.97 1610.35 1701.13C1609.65 1700.43 1606.2 1700.01 1601.2 1700.01C1596.2 1700.01 1592.75 1700.43 1592.06 1701.13ZM1988.5 1701.89C1987.79 1703.21 1987.58 1726.01 1987.78 1777.64C1988.04 1845.47 1988.2 1851.84 1989.71 1855.64C1992.26 1862.07 1995.76 1865.96 2001.28 1868.48C2005.76 1870.54 2007.32 1870.75 2015.47 1870.47C2027.17 1870.06 2027.71 1869.64 2027.69 1860.95C2027.68 1857.29 2027.33 1853.75 2026.9 1853.08C2026.41 1852.31 2023.83 1851.8 2019.84 1851.68C2014.21 1851.52 2013.3 1851.23 2011.29 1848.89L2009.04 1846.27V1774.61C2009.04 1710.7 2008.88 1702.78 2007.57 1701.47C2006.46 1700.36 2004.11 1700.01 1997.81 1700.01C1990.44 1700.01 1989.39 1700.22 1988.5 1701.89ZM2316.69 1701.71C2315.46 1703.08 2315.15 1705.42 2315.15 1713.33C2315.15 1722.18 2315.34 1723.35 2316.95 1724.22C2318.88 1725.25 2335.47 1725.56 2337.94 1724.61C2339.17 1724.14 2339.41 1722.23 2339.41 1713.15C2339.41 1705.91 2339.04 1701.87 2338.29 1701.13C2337.57 1700.4 2333.83 1700.01 2327.71 1700.01C2319.72 1700.01 2318 1700.28 2316.69 1701.71ZM473.505 1704.36C472.403 1705.46 472.769 1867.64 473.875 1868.32C474.68 1868.82 488.579 1869.19 493.181 1868.84C494.105 1868.77 494.348 1851.58 494.348 1786.24V1703.74H484.238C478.676 1703.74 473.847 1704.02 473.505 1704.36ZM1316.02 1704.97C1315.76 1705.65 1315.67 1710.16 1315.82 1715L1316.09 1723.78L1340.12 1724.03L1364.15 1724.28V1795.99C1364.15 1847.09 1364.45 1867.89 1365.18 1868.34C1366.51 1869.17 1384.19 1869.17 1385.52 1868.34C1386.26 1867.89 1386.55 1847.09 1386.55 1795.99V1724.28L1410.58 1724.03L1434.61 1723.78V1713.99V1704.2L1375.56 1703.96C1327.06 1703.77 1316.42 1703.95 1316.02 1704.97ZM816.23 1718.58C812.329 1719.49 808.654 1720.53 808.064 1720.9C807.331 1721.35 806.992 1726.09 806.992 1735.86C806.992 1748.03 806.772 1750.24 805.515 1750.72C804.703 1751.03 799.708 1751.28 794.416 1751.28C783.352 1751.28 783.66 1751.03 783.66 1760.04C783.66 1768.58 784.108 1768.91 796.259 1769.21L806.525 1769.46L807.032 1809.55C807.311 1831.6 807.905 1850.69 808.353 1851.97C810.943 1859.38 817.346 1865.74 825.149 1868.66C833.55 1871.8 857.189 1871.06 861.856 1867.51C862.71 1866.86 862.979 1864.29 862.789 1858.59L862.521 1850.57L859.721 1850.73C858.181 1850.82 852.512 1851.17 847.122 1851.5C838.679 1852.03 836.871 1851.88 834.056 1850.41C827.597 1847.04 827.526 1846.56 827.525 1805.59L827.523 1769H843.312C851.997 1769 859.766 1768.74 860.578 1768.43C861.771 1767.97 862.054 1766.28 862.054 1759.6V1751.33L845.022 1751.07L827.99 1750.82L827.523 1734.04C826.983 1714.6 827.902 1715.86 816.23 1718.58ZM972.18 1718.96L964.247 1720.99L963.78 1735.9L963.314 1750.82L952.313 1751.08L941.313 1751.34L941.581 1759.94L941.848 1768.53L952.769 1768.79L963.689 1769.06L963.968 1809.35L964.247 1849.64L966.679 1854.81C969.617 1861.06 975.306 1866.18 982.173 1868.74C986.124 1870.22 989.394 1870.61 997.647 1870.58C1006.62 1870.55 1018.03 1868.95 1019.47 1867.51C1020.48 1866.5 1020.27 1851.83 1019.23 1850.97C1018.54 1850.4 1015.84 1850.41 1011.73 1851.01C996.76 1853.17 989.281 1851.52 986.138 1845.36C984.419 1842 984.312 1839.68 984.312 1805.39V1769H1000.58C1012.85 1769 1017.15 1768.69 1018.08 1767.76C1019.1 1766.74 1019.61 1757.31 1018.93 1751.98C1018.88 1751.6 1011.74 1751.28 1003.05 1751.28C994.37 1751.28 986.6 1751.03 985.788 1750.72C984.518 1750.23 984.312 1747.82 984.312 1733.47V1716.79L982.212 1716.86C981.057 1716.9 976.543 1717.84 972.18 1718.96ZM1200.83 1718.93L1192.9 1720.99L1192.64 1735.4C1192.46 1745.49 1192.04 1750.02 1191.24 1750.53C1190.61 1750.93 1185.58 1751.26 1180.06 1751.27C1172.72 1751.28 1170.01 1751.6 1169.93 1752.45C1169.46 1757.79 1169.64 1766.03 1170.25 1767.34C1170.88 1768.69 1172.65 1768.98 1181.48 1769.2L1191.96 1769.46L1192.43 1809.55C1192.89 1849.21 1192.92 1849.69 1195.1 1854.51C1197.93 1860.76 1203.76 1866.11 1210.51 1868.63C1214.79 1870.23 1217.89 1870.62 1226.3 1870.61C1232.05 1870.61 1238.23 1870.23 1240.03 1869.77C1241.82 1869.31 1244.46 1868.67 1245.89 1868.35L1248.5 1867.77L1248.23 1859.17L1247.96 1850.57L1245.16 1850.73C1243.62 1850.82 1237.95 1851.17 1232.56 1851.51C1223.91 1852.05 1222.38 1851.91 1219.5 1850.32C1213.1 1846.8 1213.06 1846.48 1213.01 1805.59L1212.96 1769H1229.71C1240.18 1769 1246.67 1768.64 1247.04 1768.04C1247.54 1767.24 1247.8 1759.47 1247.55 1752.94C1247.5 1751.48 1245.85 1751.3 1230.46 1751.07L1213.43 1750.82L1212.96 1734.04C1212.42 1714.46 1213.39 1715.67 1200.83 1718.93ZM2275.33 1739.13C2268.66 1740.71 2260.88 1747.05 2258.84 1752.55C2258.4 1753.76 2257.72 1754.07 2256.58 1753.58C2245.2 1748.73 2242.83 1748.21 2231.62 1748.17C2216.23 1748.12 2207.99 1750.86 2198.85 1759.06C2189.36 1767.58 2185.39 1776.35 2185.29 1789C2185.19 1800.58 2187.86 1807.96 2196.15 1819.03C2196.84 1819.94 2195.81 1821.36 2192.15 1824.56C2185.34 1830.51 2183.21 1834.93 2183.17 1843.18C2183.15 1849.01 2183.48 1850.29 2186.1 1854.36C2187.73 1856.9 2190.34 1859.72 2191.91 1860.65C2195.34 1862.68 2195.44 1863.43 2192.53 1865.34C2188.11 1868.23 2183.52 1873.97 2181.6 1879.01C2177.56 1889.61 2180.91 1903.61 2189.3 1911.19C2194.45 1915.83 2204.82 1920.6 2213.82 1922.44C2224.13 1924.56 2250.2 1923.87 2259.66 1921.24C2273.61 1917.36 2283 1910.2 2287.94 1899.68C2290.05 1895.18 2290.42 1893.14 2290.42 1886C2290.42 1878.85 2290.05 1876.82 2287.93 1872.3C2283.17 1862.17 2273.77 1855.26 2260.6 1852.22C2257.1 1851.42 2246.97 1850.75 2233.96 1850.47C2211.21 1849.97 2206.41 1849.1 2203.7 1844.96C2200.58 1840.2 2202.84 1834.05 2208.86 1830.94C2211.03 1829.82 2212.33 1829.73 2215.08 1830.5C2227.02 1833.88 2242.39 1833.11 2252.15 1828.64C2274.35 1818.48 2283.79 1792.76 2273.2 1771.28C2269.93 1764.66 2269.82 1763.64 2272.02 1761.04C2275.07 1757.44 2278.16 1755.95 2282.58 1755.95C2284.97 1755.95 2287.33 1755.42 2287.82 1754.78C2288.83 1753.46 2288.75 1740.99 2287.72 1739.32C2286.98 1738.12 2280 1738.02 2275.33 1739.13ZM590.007 1748.18C580.569 1749.34 567.916 1756.13 564.035 1762.12C561.052 1766.72 559.679 1766.17 559.663 1760.37C559.639 1751.09 559.74 1751.18 549.993 1751.48L541.478 1751.75L541.237 1810.25C541.01 1865.52 541.087 1868.75 542.637 1868.79C553.65 1869.09 559.924 1868.87 560.594 1868.19C561.042 1867.73 561.574 1850.99 561.776 1830.99C562.174 1791.68 562.457 1789.27 567.666 1781.03C573.672 1771.52 581.076 1767.13 591.096 1767.13C601.306 1767.13 607.359 1769.88 611.343 1776.32C615.477 1783.01 615.672 1785.31 615.672 1827.55C615.672 1855.6 615.98 1867.9 616.692 1868.34C617.505 1868.84 629.285 1869.15 635.037 1868.82C635.953 1868.77 636.204 1859.37 636.204 1825.15C636.204 1777.34 635.937 1774.6 630.348 1765.08C623.087 1752.7 607.236 1746.06 590.007 1748.18ZM708.532 1748.42C684.299 1752.03 668.553 1772.28 673.868 1793C675.738 1800.3 679.142 1805.48 684.639 1809.4C692.394 1814.93 695.604 1815.78 720.597 1818.97C727.233 1819.81 734.007 1821.07 735.65 1821.75C743.272 1824.94 747.075 1831.07 745.922 1838.32C744.301 1848.5 734.361 1854.73 719.694 1854.76C703.622 1854.78 693.236 1848.38 690.17 1836.57C689.506 1834.02 688.538 1831.62 688.016 1831.24C686.669 1830.27 671.467 1830.39 669.894 1831.38C667.93 1832.63 669.207 1840.83 672.43 1847.67C677.775 1859.01 687.492 1866.79 700.705 1870.31C704.777 1871.4 710.36 1871.9 718.331 1871.92C731.598 1871.94 740.134 1870.2 747.729 1865.91C771.069 1852.73 773.098 1821.37 751.495 1807.7C743.819 1802.84 741.247 1802.19 716.638 1798.85C696.717 1796.15 692.772 1793.38 693.359 1782.52C693.732 1775.62 696.072 1772.12 702.809 1768.39C707.189 1765.96 708.398 1765.74 716.931 1765.76C724.762 1765.77 726.978 1766.13 730.698 1767.94C736.126 1770.58 740.385 1775.54 742.023 1781.12L743.255 1785.31L753.08 1785.58C764.328 1785.88 764.667 1785.65 763.108 1778.7C760.103 1765.3 750.58 1755.5 735.546 1750.33C730.022 1748.44 715.388 1747.4 708.532 1748.42ZM1498.08 1748.13C1479.65 1750.72 1464.29 1762.82 1456.8 1780.65C1452.3 1791.35 1450.41 1812.9 1452.88 1825.12C1455.75 1839.33 1462.26 1851.46 1471.44 1859.69C1488.44 1874.94 1515.46 1876.48 1535.65 1863.36C1544.58 1857.55 1552.63 1845.6 1552.97 1837.65L1553.14 1833.79H1543.88H1534.63L1532.02 1838.83C1530.59 1841.6 1528.28 1845.04 1526.9 1846.48C1518.76 1854.97 1499.37 1856.18 1488.58 1848.88C1480.82 1843.62 1474.54 1831.9 1474.01 1821.67L1473.81 1817.94L1513.86 1817.7C1541.53 1817.53 1554.29 1817.14 1555.15 1816.42C1557.16 1814.75 1556.78 1797.16 1554.53 1788.27C1549.92 1769.98 1538.12 1756.28 1521.87 1750.35C1517.19 1748.64 1503.51 1747.36 1498.08 1748.13ZM1766.01 1748.49C1758.9 1749.76 1749.7 1754.76 1744.27 1760.31C1741.59 1763.04 1739.18 1765.27 1738.9 1765.27C1738.62 1765.27 1738.39 1762.93 1738.39 1760.08C1738.39 1751.72 1737.88 1751.28 1728.09 1751.28H1719.73V1810.02C1719.73 1861.57 1719.9 1868.76 1721.13 1868.82C1721.9 1868.86 1725.68 1868.89 1729.53 1868.89C1733.38 1868.89 1737.36 1868.86 1738.39 1868.82C1740.22 1868.75 1740.26 1868.11 1740.26 1833.74C1740.26 1793.65 1740.75 1789.64 1746.75 1780.35C1752.85 1770.94 1759.52 1767.13 1769.95 1767.13C1781.21 1767.13 1787.04 1770.38 1791.28 1779.01L1793.92 1784.38L1794.21 1826.57C1794.47 1865.43 1794.62 1868.76 1796.07 1868.85C1800.46 1869.13 1814.2 1868.85 1814.57 1868.48C1815.4 1867.65 1814.87 1785.14 1814 1779.79C1811.62 1765.18 1802.78 1754.34 1789.72 1750.01C1784.36 1748.23 1771.93 1747.43 1766.01 1748.49ZM1891.91 1748.44C1872.36 1751.53 1856.39 1766.03 1850.79 1785.78C1848.46 1794.02 1847.91 1819.95 1849.86 1829.68C1854.4 1852.21 1870.15 1868.1 1891.39 1871.57C1918.53 1876.01 1942.71 1861.03 1950.13 1835.19C1953.52 1823.36 1953.85 1798.8 1950.77 1787.18C1944.7 1764.33 1927.02 1749.45 1904.4 1748.16C1900.1 1747.91 1894.48 1748.04 1891.91 1748.44ZM2093.03 1748.47C2078.79 1750.57 2065.59 1759.36 2058.07 1771.75C2046.98 1790.03 2046.16 1823.9 2056.28 1845.31C2060.05 1853.28 2070.56 1863.31 2079.4 1867.4C2093.72 1874 2110.64 1873.91 2124.76 1867.16C2133.84 1862.82 2143.62 1853.21 2147.82 1844.51C2155.31 1829.02 2156.54 1803.28 2150.76 1783.45C2146.36 1768.33 2134.12 1755.65 2118.89 1750.42C2112.89 1748.36 2100.24 1747.4 2093.03 1748.47ZM2326.35 1751.28L2317.48 1751.75L2317.24 1810.25C2317.02 1865.51 2317.09 1868.76 2318.64 1868.82C2329.41 1869.24 2335.5 1869.14 2336.85 1868.51C2338.38 1867.8 2338.48 1864.1 2338.48 1810.02C2338.48 1755.93 2338.38 1752.24 2336.85 1751.55C2335.95 1751.15 2331.23 1751.03 2326.35 1751.28ZM893.504 1751.88C892.349 1753.03 892.723 1867.63 893.885 1868.35C895.448 1869.31 912.465 1869.11 913.461 1868.12C913.986 1867.59 914.236 1844.32 914.091 1809.5L913.851 1751.75L904.003 1751.49C898.587 1751.34 893.863 1751.52 893.504 1751.88ZM1048.14 1752.61C1047.86 1753.35 1047.79 1773.38 1047.98 1797.13L1048.34 1840.32L1050.75 1847.04C1056.18 1862.18 1065.1 1869.32 1081.33 1871.54C1096.59 1873.63 1112.81 1867.89 1119.52 1858.03C1120.74 1856.23 1122.07 1854.77 1122.46 1854.77C1122.86 1854.77 1123.48 1857.71 1123.84 1861.3C1124.2 1864.89 1124.88 1868.07 1125.35 1868.36C1126.95 1869.35 1140.3 1869.33 1141.65 1868.34C1142.79 1867.5 1142.95 1858.88 1142.74 1809.55L1142.5 1751.75L1132.78 1751.48C1125.63 1751.29 1122.85 1751.53 1122.29 1752.42C1121.87 1753.08 1121.51 1769.35 1121.48 1788.58C1121.43 1825.47 1121.04 1829.76 1116.97 1837.73C1114.27 1843.01 1109.39 1847.73 1103.59 1850.66C1099.38 1852.79 1097.91 1853.04 1091.26 1852.76C1082.18 1852.37 1077.39 1850.22 1073.73 1844.89C1069.38 1838.55 1069.13 1835.75 1069.21 1793.68C1069.25 1772.05 1069.02 1753.66 1068.69 1752.82C1068.2 1751.53 1066.54 1751.28 1058.38 1751.28C1050.81 1751.28 1048.53 1751.58 1048.14 1752.61ZM2224.52 1765.67C2211.78 1768.47 2204.03 1779.51 2205.26 1793.13C2206.15 1802.88 2212.22 1811.01 2220.98 1814.15C2227.89 1816.64 2238.74 1815.88 2244.49 1812.51C2255.32 1806.17 2259.99 1792.91 2255.53 1781.18C2252.2 1772.41 2247.03 1767.99 2237.51 1765.75C2230.77 1764.16 2231.4 1764.17 2224.52 1765.67ZM1499.22 1766.22C1494.46 1767.04 1488.44 1770.16 1484.41 1773.9C1479.18 1778.75 1474.28 1789.31 1474.28 1795.73V1798.83H1504.73H1535.18L1534.54 1793.2C1532.39 1774.23 1517.73 1763.03 1499.22 1766.22ZM1890.41 1767.49C1880.84 1770.9 1873.51 1780.26 1870.97 1792.3C1868.96 1801.84 1868.72 1814.5 1870.37 1823.92C1872.11 1833.87 1875.08 1840.56 1880.08 1845.76C1893.75 1859.98 1917.87 1856.07 1926.76 1838.19C1930.31 1831.06 1931.11 1825.85 1931.11 1810.02C1931.11 1794.19 1930.31 1788.98 1926.76 1781.84C1923.91 1776.12 1919.32 1771.66 1913.39 1768.85C1908.73 1766.65 1906.59 1766.21 1900.78 1766.24C1896.93 1766.26 1892.26 1766.82 1890.41 1767.49ZM2089.67 1768.43C2076.82 1774.41 2070.61 1788.05 2070.65 1810.21C2070.68 1830.31 2075.63 1843.07 2085.89 1849.56C2097.66 1857 2112.68 1855.65 2122.01 1846.33C2129.94 1838.41 2132.7 1829.05 2132.7 1810.02C2132.7 1786.39 2127.81 1775.33 2114.42 1768.67C2107.58 1765.26 2096.71 1765.16 2089.67 1768.43ZM2210.65 1869.41C2203.35 1871.91 2197.69 1881.48 2199.03 1889.04C2201.1 1900.64 2212.21 1906.03 2233.96 1906C2251.76 1905.96 2262.76 1902.48 2267.74 1895.27C2269.81 1892.28 2270.3 1890.54 2270.32 1886C2270.36 1877.28 2266.28 1872.38 2256.82 1869.77C2251.41 1868.27 2214.81 1867.99 2210.65 1869.41ZM507.457 1992.8C490.962 1997.12 477.928 2006.98 471.171 2020.26C467.662 2027.16 466.402 2032.43 466.372 2040.33C466.296 2060.85 479.472 2076.62 501.347 2082.17C505.453 2083.21 516.13 2085.16 525.073 2086.49C543.482 2089.24 549.918 2091.28 555.199 2096.04C561.194 2101.45 562.918 2105.65 562.931 2114.87C562.942 2121.87 562.654 2123.24 560.487 2126.57C557.673 2130.88 552.57 2135.6 548.359 2137.78C536.559 2143.87 510.492 2143.14 499.665 2136.42C491.656 2131.44 484.647 2121.02 483.212 2111.95C482.799 2109.35 481.881 2106.84 481.172 2106.4C479.329 2105.23 463.789 2105.36 461.544 2106.56C459.89 2107.44 459.737 2108.15 460.283 2112.38C462.361 2128.49 472.569 2144.56 485.762 2152.49C514.112 2169.54 558.039 2164.06 575.965 2141.25C583.094 2132.17 585.123 2126.92 585.608 2116.27C586.328 2100.45 582.788 2090.89 572.629 2081.22C563.263 2072.31 553.179 2068.39 530.745 2064.95C509.588 2061.71 505.569 2060.84 501.123 2058.59C492.026 2053.99 488.032 2046.59 489.099 2036.31C489.73 2030.22 491.219 2026.88 495.426 2022.09C501.778 2014.86 511.039 2011.42 524.212 2011.39C543.492 2011.35 554.885 2019.6 559.591 2037.02L561.104 2042.62H571.823H582.541L582.834 2040.08C583.238 2036.58 580.674 2027.04 577.785 2021.29C568.031 2001.89 548.373 1990.85 523.745 1990.95C517.597 1990.97 512.04 1991.6 507.457 1992.8ZM1027.37 1992.13C1026.56 1993.11 1026.34 2012.03 1026.53 2066.97C1026.76 2136.07 1026.88 2140.79 1028.51 2145.14C1032.74 2156.38 1039.35 2160.53 1053.08 2160.55C1057.79 2160.55 1062.75 2160.14 1064.08 2159.63C1066.48 2158.72 1066.51 2158.59 1066.24 2150.54L1065.97 2142.38L1059.23 2141.91C1053.84 2141.54 1052.06 2141.02 1050.36 2139.32L1048.24 2137.2L1047.77 2064.27L1047.31 1991.35L1037.88 1991.08C1030.68 1990.88 1028.2 1991.13 1027.37 1992.13ZM1235.08 1991.47C1234.72 1991.83 1234.43 2029.56 1234.43 2075.31C1234.43 2150.3 1234.57 2158.55 1235.9 2159.06C1237.82 2159.79 1251.57 2159.79 1253.48 2159.06C1254.79 2158.56 1254.96 2154.73 1254.98 2125.73C1254.99 2107.71 1255.42 2090.04 1255.94 2086.47C1257.62 2074.86 1263.15 2065.89 1272.22 2060.08C1275.03 2058.28 1277.54 2057.59 1282.48 2057.28C1294.19 2056.54 1301.18 2059.84 1305.82 2068.29L1308.62 2073.39L1308.9 2115.3C1309.09 2143.4 1309.51 2157.61 1310.18 2158.42C1311.32 2159.78 1326.45 2160.12 1328.5 2158.83C1330.16 2157.78 1330.24 2074.41 1328.59 2067.63C1324.49 2050.78 1313.21 2040.63 1296.2 2038.5C1282.16 2036.75 1268.64 2040.75 1260.22 2049.17C1257.92 2051.47 1255.8 2053.34 1255.51 2053.34C1255.22 2053.34 1254.87 2039.39 1254.74 2022.35L1254.49 1991.35L1245.11 1991.08C1239.95 1990.94 1235.44 1991.11 1235.08 1991.47ZM2207.47 1992.32C2206.43 1995.04 2206.8 2155.86 2207.86 2157.82C2208.69 2159.37 2209.86 2159.62 2216.19 2159.62C2225.34 2159.62 2226.49 2158.73 2226.49 2151.63C2226.49 2148.85 2226.82 2146.57 2227.22 2146.57C2227.62 2146.57 2229.37 2148.08 2231.11 2149.92C2235.55 2154.62 2240.24 2157.37 2248.64 2160.2C2255.07 2162.37 2256.88 2162.59 2264.75 2162.15C2290.71 2160.72 2306.71 2143.63 2311.35 2112.36C2314.77 2089.37 2308.15 2064.34 2295.13 2051.01C2283.41 2039.03 2263.03 2034.79 2245.99 2040.79C2240.63 2042.68 2234.95 2046.08 2232.16 2049.06C2230.91 2050.39 2229.56 2051.48 2229.14 2051.48C2228.72 2051.48 2228.27 2037.95 2228.14 2021.41L2227.89 1991.35L2217.97 1991.08C2209.54 1990.86 2207.96 1991.05 2207.47 1992.32ZM1430.6 1994.8C1428.98 1996.42 1428.98 2156.88 1430.6 2158.5C1431.94 2159.85 1448.7 2160.07 1449.51 2158.75C1449.8 2158.27 1450.05 2129.3 1450.06 2094.36C1450.07 2046.21 1450.33 2030.92 1451.16 2031.2C1452.18 2031.53 1455.26 2036.4 1473.77 2066.86C1485.63 2086.39 1493.31 2099.01 1504.11 2116.74C1509.89 2126.22 1517.62 2138.94 1521.28 2145C1530.69 2160.56 1529.4 2159.63 1541.28 2159.61C1546.77 2159.6 1551.8 2159.26 1552.45 2158.85C1553.39 2158.25 1553.64 2141.39 1553.65 2076.78C1553.66 2032.06 1553.42 1995.06 1553.11 1994.57C1552.39 1993.4 1535.22 1993.41 1534.49 1994.58C1534.18 1995.08 1533.96 2024.27 1533.99 2059.46C1534.03 2110.76 1533.81 2123.35 1532.86 2123.04C1532.21 2122.82 1529.33 2118.69 1526.46 2113.86C1523.59 2109.04 1514.6 2094.18 1506.48 2080.85C1498.36 2067.51 1489.95 2053.67 1487.8 2050.08C1485.65 2046.49 1479.14 2035.79 1473.34 2026.31C1467.54 2016.82 1461.33 2006.54 1459.54 2003.47C1453.77 1993.55 1454.01 1993.68 1442.1 1993.68C1435.27 1993.68 1431.34 1994.06 1430.6 1994.8ZM656.736 2038.49C648.738 2039.55 643.604 2041.54 635.997 2046.54C621.435 2056.1 612.987 2072.42 611.478 2093.9C609.247 2125.65 623.534 2151.32 648.168 2159.8C656.49 2162.66 673.179 2162.86 681.001 2160.19C697.423 2154.58 708.45 2143.77 712.811 2129.02C713.82 2125.61 713.797 2124.85 712.668 2124.14C711.074 2123.13 695.882 2123 694.507 2123.98C693.98 2124.35 692.777 2126.41 691.833 2128.55C689.228 2134.45 683.747 2139.58 677.548 2141.92C670.216 2144.68 658.374 2144.27 651.899 2141.03C646.391 2138.28 640.838 2132.58 637.663 2126.42C635.139 2121.52 632.405 2110.66 633.174 2108.58C633.509 2107.67 642.353 2107.42 673.091 2107.42C694.809 2107.42 713.243 2107.16 714.055 2106.85C716.427 2105.94 716.127 2085.76 713.605 2076.63C709.736 2062.63 700.716 2050.51 689.483 2044.24C679.844 2038.85 668.719 2036.9 656.736 2038.49ZM1635.39 2038.54C1631.21 2039.09 1626.21 2040.67 1621.04 2043.09C1606.72 2049.79 1596.77 2062.95 1593.18 2079.91C1591.08 2089.85 1591.08 2110.86 1593.18 2120.47C1597.75 2141.34 1612.1 2156.5 1631.64 2161.11C1640.65 2163.23 1653.69 2162.47 1661.98 2159.33C1686.31 2150.14 1697.62 2128.99 1696.13 2095.5C1695.54 2082.21 1693.23 2071.8 1689.2 2064.23C1685.91 2058.05 1674.92 2047.06 1668.76 2043.79C1659.92 2039.09 1646.94 2037.05 1635.39 2038.54ZM1908.44 2038.49C1891.16 2040.74 1877.85 2050.58 1869.41 2067.37C1863.15 2079.81 1860.97 2098.29 1863.85 2114.41C1866.38 2128.54 1871.28 2138.42 1880.26 2147.52C1891.06 2158.46 1904.61 2163.33 1920.84 2162.1C1934.4 2161.07 1945.05 2156.28 1953.52 2147.41C1959.03 2141.64 1964.04 2132.21 1964.47 2126.8L1964.71 2123.73L1956.78 2123.46C1946.07 2123.08 1945.2 2123.39 1943.34 2128.27C1941.33 2133.52 1936.15 2138.85 1930.71 2141.26C1925.38 2143.62 1914.68 2144.39 1908.33 2142.86C1899.08 2140.65 1890.6 2132.14 1886.95 2121.4C1884.63 2114.6 1883.73 2108.61 1884.92 2107.88C1885.43 2107.56 1903.43 2107.34 1924.9 2107.39C1946.37 2107.43 1964.64 2107.2 1965.49 2106.88C1966.81 2106.37 1967.04 2104.69 1967.03 2095.43C1967.02 2089.01 1966.43 2082.1 1965.59 2078.52C1960.49 2056.83 1943.78 2041.04 1923.2 2038.48C1918.85 2037.94 1915.07 2037.55 1914.8 2037.61C1914.53 2037.68 1911.67 2038.07 1908.44 2038.49ZM2047.3 2038.54C2039.51 2039.81 2031.25 2044.26 2026.37 2049.84C2024.06 2052.48 2022 2054.46 2021.8 2054.23C2021.6 2054 2021.06 2051.08 2020.6 2047.75L2019.77 2041.69H2010.91H2002.04L2001.8 2099.39C2001.62 2141.23 2001.85 2157.43 2002.61 2158.35C2003.87 2159.87 2020.72 2160.18 2021.63 2158.71C2021.94 2158.2 2022.16 2143.42 2022.13 2125.85C2022.05 2084.24 2023.47 2075.14 2031.5 2066C2036.57 2060.23 2041.26 2057.79 2048.2 2057.3C2051.56 2057.06 2056.19 2057.37 2058.5 2057.99C2064.12 2059.5 2069.96 2065.54 2071.42 2071.34C2072.16 2074.25 2072.5 2088.67 2072.5 2116.5C2072.5 2147.06 2072.78 2157.67 2073.62 2158.5C2075.14 2160.02 2091.33 2160.02 2092.85 2158.5C2093.68 2157.67 2093.97 2148.35 2093.97 2122.32C2093.97 2085.3 2094.47 2079.28 2098.16 2072.01C2100.99 2066.42 2108.63 2059.36 2113.21 2058.09C2117.31 2056.95 2124.87 2056.77 2129.51 2057.7C2133.53 2058.5 2140.7 2065.64 2142.46 2070.59C2143.51 2073.54 2143.86 2083.07 2144.13 2116.25C2144.38 2147.38 2144.76 2158.36 2145.58 2158.89C2146.19 2159.28 2150.32 2159.6 2154.75 2159.61C2160.6 2159.62 2163.1 2159.26 2163.9 2158.29C2164.73 2157.29 2164.92 2145.92 2164.66 2112.84C2164.27 2065.27 2164.35 2066.1 2159 2055.54C2156.13 2049.89 2149.82 2043.94 2143.95 2041.35C2134.75 2037.28 2119.15 2037.05 2109.44 2040.84C2102.98 2043.36 2095.75 2048.82 2092.7 2053.48C2091.09 2055.95 2089.49 2057.98 2089.15 2057.99C2088.82 2058 2087.48 2056.19 2086.17 2053.96C2083.13 2048.78 2077.19 2043.43 2072.02 2041.22C2068.64 2039.77 2055.28 2037.22 2053.07 2037.6C2052.72 2037.66 2050.13 2038.09 2047.3 2038.54ZM2384.36 2038.49C2367.4 2040.71 2353.46 2050.65 2345.86 2065.93C2340.64 2076.44 2339.37 2081.86 2338.77 2096.27C2338.35 2106.13 2338.58 2110.62 2339.83 2116.78C2347.38 2154.12 2383.12 2172.7 2416.65 2156.71C2427.93 2151.33 2439.17 2137.06 2439.57 2127.59L2439.74 2123.73H2430.43H2421.12L2418.63 2128.86C2413.88 2138.67 2406.76 2143.02 2394.53 2143.59C2384.16 2144.06 2377.39 2141.72 2371.16 2135.48C2365.08 2129.41 2359.99 2117.81 2359.96 2109.98L2359.95 2107.42H2400.36C2430.54 2107.42 2441.05 2107.13 2441.89 2106.3C2443.31 2104.88 2443.38 2090.24 2442.01 2082.65C2438.75 2064.66 2429.38 2051.12 2414.54 2042.94C2407.5 2039.07 2394.54 2037.15 2384.36 2038.49ZM792.993 2039.69C786.226 2041.54 779.868 2045.1 774.83 2049.88L770.128 2054.34L769.485 2048.72C769.131 2045.63 768.581 2042.67 768.263 2042.16C767.428 2040.81 752.558 2040.97 751.182 2042.34C749.698 2043.82 749.549 2206.33 751.028 2209.1C751.877 2210.68 753.048 2210.9 760.641 2210.9C766.122 2210.9 769.697 2210.49 770.408 2209.78C771.232 2208.96 771.528 2200.83 771.528 2179.02C771.528 2162.71 771.792 2149.37 772.114 2149.37C772.437 2149.37 774.361 2150.87 776.389 2152.7C783.133 2158.78 794.009 2162.39 805.655 2162.41C828.066 2162.44 845.247 2148.3 852.097 2124.2C855.755 2111.32 855.791 2089.56 852.177 2076.87C849.61 2067.87 844.206 2057.97 838.554 2051.92C832.573 2045.52 826.665 2041.95 818.625 2039.86C812.133 2038.17 798.917 2038.08 792.993 2039.69ZM1775.6 2039.36C1768.97 2041.04 1761.71 2044.89 1757.13 2049.17C1754.58 2051.56 1752.04 2053.24 1751.5 2052.91C1750.97 2052.57 1750.52 2050.28 1750.52 2047.81C1750.52 2045.09 1750.01 2042.89 1749.21 2042.23C1748.38 2041.54 1745.06 2041.25 1740.12 2041.42L1732.33 2041.69L1732.09 2125.03C1731.91 2185.83 1732.13 2208.71 1732.9 2209.63C1734.53 2211.6 1751.06 2211.42 1751.82 2209.42C1752.14 2208.61 1752.39 2194.77 1752.39 2178.66C1752.39 2158.36 1752.7 2149.37 1753.4 2149.37C1753.95 2149.37 1755.68 2150.65 1757.24 2152.21C1766.31 2161.27 1786.44 2165.1 1801.12 2160.57C1816.06 2155.96 1827.86 2143.37 1832.59 2126.99C1833.26 2124.69 1834.2 2121.54 1834.69 2120C1836.14 2115.43 1836.72 2093.6 1835.59 2086.39C1832.01 2063.56 1820.91 2047.71 1803.72 2040.83C1798.88 2038.89 1781.12 2037.97 1775.6 2039.36ZM2520.68 2041.74C2511.89 2044.1 2503.13 2049.94 2500.36 2055.28C2499.59 2056.78 2498.61 2058.01 2498.19 2058.01C2497.77 2058.01 2497.04 2054.33 2496.58 2049.85L2495.74 2041.69L2486.64 2041.42C2479.71 2041.22 2477.53 2041.44 2477.52 2042.36C2477.51 2043.01 2477.5 2069.32 2477.49 2100.82C2477.48 2146.35 2477.73 2158.24 2478.68 2158.84C2480.66 2160.1 2495.84 2159.78 2496.94 2158.46C2497.55 2157.72 2498.05 2144.81 2498.28 2123.26C2498.64 2091.21 2498.78 2088.87 2500.72 2082.98C2503.2 2075.47 2507.23 2069.97 2513.32 2065.79C2519.38 2061.63 2524.12 2060.38 2533.3 2060.53L2541 2060.66V2051.04C2541 2043.13 2540.74 2041.32 2539.52 2040.86C2536.91 2039.85 2525.75 2040.38 2520.68 2041.74ZM888.602 2043.42C888.29 2044.66 888.213 2064.5 888.431 2087.5C888.852 2131.93 888.993 2133.42 893.704 2143.14C900.414 2156.99 917.113 2164.48 935.078 2161.71C944.444 2160.26 954.736 2154.94 958.952 2149.37C960.698 2147.06 962.447 2145.05 962.84 2144.9C963.233 2144.75 963.857 2147.48 964.226 2150.96C964.595 2154.44 965.328 2157.82 965.853 2158.46C967.222 2160.13 980.937 2160.04 982.338 2158.35C983.104 2157.43 983.327 2141.23 983.153 2099.39L982.912 2041.69L972.88 2041.43C965.19 2041.22 962.852 2041.44 962.866 2042.36C962.876 2043.02 962.715 2059.29 962.506 2078.52C962.107 2115.56 961.765 2118.8 957.28 2128.18C954.89 2133.19 949.607 2138.13 943.494 2141.09C940.02 2142.77 938.163 2143.01 931.247 2142.68C924.104 2142.33 922.591 2141.94 919.041 2139.53C916.514 2137.82 914.074 2135.03 912.553 2132.12L910.118 2127.46L909.651 2084.58L909.184 2041.69L899.177 2041.43C889.269 2041.16 889.165 2041.18 888.602 2043.42ZM1096.02 2041.81C1095.66 2042.17 1095.37 2061.6 1095.37 2084.98C1095.37 2125.08 1095.48 2127.89 1097.3 2134.47C1101.94 2151.25 1113.16 2160.44 1131.02 2162.1C1143.95 2163.3 1157.5 2158.38 1165.28 2149.67C1167.71 2146.93 1169.99 2144.98 1170.34 2145.32C1170.68 2145.67 1170.97 2148.37 1170.97 2151.32C1170.97 2158.68 1172.08 2159.62 1180.76 2159.62C1185.76 2159.62 1188.03 2159.22 1189.1 2158.16C1190.4 2156.86 1190.56 2150.32 1190.55 2100.12C1190.54 2069.01 1190.19 2043.01 1189.77 2042.35C1189.21 2041.47 1186.44 2041.23 1179.29 2041.42L1169.57 2041.69L1169.05 2078.98C1168.56 2114.19 1168.42 2116.62 1166.47 2122.48C1162.37 2134.83 1152.04 2142.82 1140.17 2142.83C1128.58 2142.84 1122.63 2139.44 1118.59 2130.5C1116.38 2125.63 1116.37 2125.33 1115.9 2083.64L1115.44 2041.69L1106.06 2041.43C1100.9 2041.28 1096.38 2041.46 1096.02 2041.81ZM657.931 2056.6C648.066 2058.77 641.339 2064.59 636.83 2074.83C634.237 2080.73 632.77 2088.76 634.28 2088.79C651.359 2089.15 693.639 2088.64 694.214 2088.06C695.442 2086.84 693.226 2076.73 690.514 2071.19C684.752 2059.43 671.669 2053.57 657.931 2056.6ZM1911.05 2056.17C1905.43 2057.14 1902.93 2058.2 1898.22 2061.64C1892.73 2065.65 1889.31 2070.71 1886.87 2078.44C1883.27 2089.85 1880.69 2088.89 1915.14 2088.89C1931.51 2088.88 1945.28 2088.51 1945.73 2088.06C1946.86 2086.93 1944.48 2076.27 1941.87 2070.81C1936.85 2060.25 1923.69 2054.01 1911.05 2056.17ZM2254.95 2055.91C2248.26 2056.64 2239.07 2062.49 2234.67 2068.84C2225.6 2081.9 2224.51 2112.38 2232.55 2127.91C2235.06 2132.76 2241.44 2139.08 2246.52 2141.75C2250.57 2143.89 2252.32 2144.22 2259.15 2144.18C2265.55 2144.14 2267.98 2143.7 2271.71 2141.9C2280.42 2137.69 2286.1 2129.79 2289.13 2117.67C2290.84 2110.86 2290.83 2089.02 2289.12 2082.24C2284.55 2064.15 2271.54 2054.12 2254.95 2055.91ZM2386.89 2056.22C2374.21 2058.18 2364.53 2067.95 2361.23 2082.1C2360.56 2084.98 2360.35 2087.68 2360.77 2088.1C2361.32 2088.65 2402.36 2089.13 2420.38 2088.79C2423.44 2088.73 2419.98 2073.83 2415.37 2067.17C2409.49 2058.7 2398.4 2054.44 2386.89 2056.22ZM791.264 2057.97C778.498 2063.93 772.832 2073.29 770.508 2092.27C769.568 2099.95 769.629 2102.92 770.903 2111.42C773.271 2127.22 777.636 2134.79 787.952 2140.98C793.171 2144.11 793.752 2144.24 802.292 2144.21C809.682 2144.18 811.871 2143.82 815.196 2142.07C827.978 2135.36 833.688 2121.92 833.487 2099.03C833.302 2078.13 827.917 2065.8 816.19 2059.42C809.426 2055.74 797.523 2055.04 791.264 2057.97ZM1634.33 2057.38C1627.45 2060.08 1621.02 2065.41 1618.1 2070.86C1612.96 2080.46 1611.04 2099.92 1613.75 2115.07C1616.13 2128.41 1622.1 2137.38 1631.54 2141.81C1637.96 2144.83 1650.48 2144.61 1657 2141.37C1666.2 2136.79 1671.67 2128.11 1674.08 2114.31C1675.36 2106.99 1674.7 2085.64 1673.03 2079.91C1668.43 2064.2 1658.23 2056.04 1643.4 2056.21C1639.95 2056.25 1635.87 2056.78 1634.33 2057.38ZM1774.32 2057.28C1770.72 2058.57 1764.75 2062.68 1761.56 2066.07C1750.75 2077.55 1748.07 2109.11 1756.39 2126.92C1758.7 2131.87 1766.32 2139.86 1771.06 2142.3C1775.78 2144.74 1786.32 2145.28 1792.72 2143.43C1803.33 2140.35 1811.56 2129.5 1813.93 2115.47C1815.3 2107.38 1815.3 2092.32 1813.95 2084.77C1811.57 2071.6 1803.19 2060.51 1793.4 2057.61C1787.81 2055.95 1778.51 2055.79 1774.32 2057.28Z" fill="#0F936D"/>
</svg>
