<svg width="3000" height="3000" viewBox="0 0 3000 3000" fill="none" xmlns="http://www.w3.org/2000/svg">
<path d="M387.327 1671.12L357.671 1627.64H386.019L401.719 1651.72L417.418 1627.64H444.676L415.02 1670.68L448.382 1719.52H420.253L401.5 1690.52L382.53 1719.52H355.055L387.327 1671.12Z" fill="#FF0000"/>
<path d="M565.26 1665.1H477.602V1646.15H565.478V1665.1H565.26ZM565.26 1703.24H477.602V1684.28H565.478V1703.24H565.26Z" fill="black"/>
<path d="M632.64 1613.36H608V1592.62H632.64V1613.36ZM607.782 1627.63H632.64V1719.52H608V1627.63H607.782Z" fill="black"/>
<path d="M648.556 1627.63H672.106V1640.35H672.542C678.865 1630.09 689.55 1624.96 700.018 1624.96C726.183 1624.96 732.945 1640.12 732.945 1662.87V1719.29H708.302V1667.33C708.302 1652.17 703.944 1644.81 692.387 1644.81C679.083 1644.81 673.195 1652.39 673.195 1671.12V1719.29H648.556V1627.63Z" fill="black"/>
<path d="M812.315 1707.92H811.879C806.21 1717.95 795.96 1722.19 784.621 1722.19C757.584 1722.19 744.284 1698.33 744.284 1672.91C744.284 1648.15 757.584 1625.18 784.185 1625.18C794.871 1625.18 805.12 1629.87 811.008 1638.79H810.79H811.225V1592.62H835.865V1719.52H812.315V1707.92ZM790.727 1644.14C774.593 1644.14 768.923 1658.41 768.923 1673.58C768.923 1688.07 775.465 1703.01 790.727 1703.01C807.082 1703.01 811.879 1688.52 811.879 1673.35C811.879 1658.41 806.646 1644.14 790.727 1644.14Z" fill="black"/>
<path d="M871.192 1679.82C871.846 1695.88 879.48 1703.01 893.216 1703.01C903.03 1703.01 911.097 1696.77 912.622 1691.19H934.429C927.452 1712.82 912.622 1722.19 892.345 1722.19C863.997 1722.19 846.552 1702.34 846.552 1673.8C846.552 1646.15 865.086 1625.18 892.345 1625.18C922.872 1625.18 937.698 1651.5 935.954 1679.82H871.192ZM911.315 1663.76C909.135 1651.05 903.684 1644.14 891.691 1644.14C875.99 1644.14 871.628 1656.63 871.192 1663.76H911.315Z" fill="black"/>
<path d="M947.076 1627.63H970.626V1639.45H971.062C976.95 1629.64 986.763 1625.18 997.884 1625.18C1026.01 1625.18 1038.66 1648.37 1038.66 1674.69C1038.66 1699.22 1025.36 1722.19 999.192 1722.19C988.507 1722.19 978.257 1717.29 972.152 1708.36H971.716V1752.07H947.076V1627.63ZM1014.02 1673.8C1014.02 1659.3 1008.35 1644.14 992.433 1644.14C976.296 1644.14 971.062 1658.86 971.062 1673.8C971.062 1688.74 976.732 1703.01 992.651 1703.01C1008.78 1703.01 1014.02 1688.74 1014.02 1673.8Z" fill="black"/>
<path d="M1070.28 1679.82C1070.93 1695.88 1078.56 1703.01 1092.3 1703.01C1102.11 1703.01 1110.18 1696.77 1111.71 1691.19H1133.51C1126.54 1712.82 1111.71 1722.19 1091.43 1722.19C1063.08 1722.19 1045.64 1702.34 1045.64 1673.8C1045.64 1646.15 1064.17 1625.18 1091.43 1625.18C1121.96 1625.18 1136.78 1651.5 1135.04 1679.82H1070.28ZM1110.4 1663.76C1108.22 1651.05 1102.77 1644.14 1090.77 1644.14C1075.07 1644.14 1070.71 1656.63 1070.28 1663.76H1110.4Z" fill="black"/>
<path d="M1146.16 1627.63H1169.71V1640.35H1170.15C1176.47 1630.09 1187.16 1624.96 1197.62 1624.96C1223.79 1624.96 1230.55 1640.12 1230.55 1662.87V1719.29H1205.91V1667.33C1205.91 1652.17 1201.55 1644.81 1190.21 1644.81C1176.91 1644.81 1171.02 1652.39 1171.02 1671.12V1719.29H1146.38V1627.63H1146.16Z" fill="black"/>
<path d="M1309.92 1707.92H1309.49C1303.82 1717.95 1293.57 1722.19 1282.23 1722.19C1255.19 1722.19 1241.89 1698.33 1241.89 1672.91C1241.89 1648.15 1255.19 1625.18 1281.79 1625.18C1292.48 1625.18 1302.72 1629.87 1308.61 1638.79H1308.39H1308.83V1592.62H1333.47V1719.52H1309.92V1707.92ZM1288.33 1644.14C1272.2 1644.14 1266.53 1658.41 1266.53 1673.58C1266.53 1688.07 1273.07 1703.01 1288.33 1703.01C1304.69 1703.01 1309.49 1688.52 1309.49 1673.35C1309.7 1658.41 1304.47 1644.14 1288.33 1644.14Z" fill="black"/>
<path d="M1368.79 1679.82C1369.45 1695.88 1377.08 1703.01 1390.82 1703.01C1400.63 1703.01 1408.7 1696.77 1410.22 1691.19H1432.03C1425.05 1712.82 1410.22 1722.19 1389.94 1722.19C1361.6 1722.19 1344.15 1702.34 1344.15 1673.8C1344.15 1646.15 1362.69 1625.18 1389.94 1625.18C1420.47 1625.18 1435.3 1651.5 1433.56 1679.82H1368.79ZM1408.91 1663.76C1406.73 1651.05 1401.28 1644.14 1389.29 1644.14C1373.59 1644.14 1369.23 1656.63 1368.79 1663.76H1408.91Z" fill="black"/>
<path d="M1444.9 1627.63H1468.45V1640.35H1468.88C1475.21 1630.09 1485.89 1624.96 1496.36 1624.96C1522.53 1624.96 1529.28 1640.12 1529.28 1662.87V1719.29H1504.65V1667.33C1504.65 1652.17 1500.28 1644.81 1488.73 1644.81C1475.43 1644.81 1469.54 1652.39 1469.54 1671.12V1719.29H1444.9V1627.63Z" fill="black"/>
<path d="M1575.73 1627.63H1593.83V1644.58H1575.73V1690.08C1575.73 1698.55 1577.91 1700.78 1586.2 1700.78C1588.81 1700.78 1591.21 1700.56 1593.83 1700.11V1719.96C1589.69 1720.63 1584.23 1720.86 1579.44 1720.86C1564.39 1720.86 1551.09 1717.29 1551.09 1699V1644.81H1536.26V1627.86H1551.09V1600.2H1575.73V1627.63Z" fill="black"/>
<path d="M1627.41 1592.62H1602.77V1719.52H1627.41V1592.62Z" fill="black"/>
<path d="M1687.81 1731.11C1682.36 1745.83 1673.85 1751.85 1656.85 1751.85C1651.83 1751.85 1646.81 1751.41 1641.8 1750.96V1730.22C1646.6 1730.67 1651.39 1731.34 1656.19 1731.11C1664.7 1730.22 1667.53 1721.08 1664.7 1713.94L1633.08 1627.64H1659.46L1679.74 1690.52H1680.18L1699.8 1627.64H1725.31L1687.81 1731.11Z" fill="black"/>
<path d="M398.667 1815.19C427.014 1815.19 445.33 1834.37 445.33 1863.8C445.33 1893.02 427.014 1912.2 398.667 1912.2C370.537 1912.2 352.221 1893.02 352.221 1863.8C352.221 1834.37 370.537 1815.19 398.667 1815.19ZM398.667 1893.02C415.457 1893.02 420.472 1878.3 420.472 1863.8C420.472 1849.09 415.457 1834.37 398.667 1834.37C381.876 1834.37 376.861 1849.09 376.861 1863.8C377.079 1878.3 382.094 1893.02 398.667 1893.02Z" fill="black"/>
<path d="M454.27 1817.64H477.82V1834.81H478.256C482.835 1823.22 495.046 1815.19 507.039 1815.19C508.784 1815.19 510.964 1815.63 512.49 1816.08V1839.5C510.31 1839.05 506.603 1838.6 503.55 1838.6C485.451 1838.6 479.128 1851.98 479.128 1868.04V1909.52H454.27V1817.64Z" fill="black"/>
<path d="M604.946 1903.72C604.946 1918.89 599.712 1944.53 558.282 1944.53C540.619 1944.53 519.904 1936.06 518.596 1915.1H543.236C545.416 1924.46 553.048 1927.81 561.771 1927.81C575.508 1927.81 581.832 1918.22 581.614 1905.06V1893.02H581.178C575.726 1902.61 565.041 1907.29 554.139 1907.29C527.1 1907.29 515.761 1886.33 515.761 1861.13C515.761 1837.27 529.062 1815.63 554.357 1815.63C566.132 1815.63 575.29 1819.65 581.178 1830.35H581.614V1818.09H605.164V1903.72H604.946ZM581.396 1862.47C581.396 1847.52 576.38 1834.14 560.462 1834.14C546.507 1834.14 540.401 1846.63 540.401 1860.24C540.401 1873.39 545.198 1887.89 560.462 1887.89C574.418 1887.89 581.396 1875.63 581.396 1862.47Z" fill="black"/>
<path d="M616.722 1845.96C618.031 1822.32 638.746 1815.19 659.025 1815.19C676.905 1815.19 698.494 1819.2 698.494 1841.28V1889C698.494 1897.48 699.366 1905.73 701.545 1909.52H676.47C675.598 1906.62 674.944 1903.72 674.726 1900.6C666.874 1908.85 655.317 1911.97 644.416 1911.97C627.407 1911.97 613.888 1903.28 613.888 1884.32C613.888 1863.58 629.152 1858.45 644.416 1856.44C659.461 1854.21 673.636 1854.66 673.636 1844.4C673.636 1833.48 666.438 1831.91 657.717 1831.91C648.34 1831.91 642.235 1835.93 641.363 1845.74H616.722V1845.96ZM673.636 1864.7C669.492 1868.49 660.768 1868.71 653.137 1870.05C645.506 1871.61 638.528 1874.28 638.528 1883.65C638.528 1893.02 645.724 1895.47 653.573 1895.47C672.979 1895.47 673.636 1879.86 673.636 1874.28V1864.7Z" fill="black"/>
<path d="M713.973 1817.64H737.523V1830.35H737.959C744.285 1820.09 754.967 1814.96 765.435 1814.96C791.603 1814.96 798.362 1830.13 798.362 1852.88V1909.3H773.723V1857.34C773.723 1842.17 769.361 1834.81 757.804 1834.81C744.503 1834.81 738.616 1842.39 738.616 1861.13V1909.3H713.973V1817.64Z" fill="black"/>
<path d="M835.43 1803.59H810.791V1782.63H835.43V1803.59ZM810.791 1817.64H835.43V1909.52H810.791V1817.64Z" fill="black"/>
<path d="M845.897 1890.56L892.779 1836.82H849.384V1817.64H925.268V1836.82L878.386 1890.56H928.54V1909.52H845.897V1890.56Z" fill="black"/>
<path d="M958.632 1869.82C959.286 1885.88 966.917 1893.02 980.656 1893.02C990.467 1893.02 998.537 1886.77 1000.06 1881.2H1021.87C1014.89 1902.83 1000.06 1912.2 979.785 1912.2C951.437 1912.2 933.992 1892.35 933.992 1863.8C933.992 1836.15 952.526 1815.19 979.785 1815.19C1010.31 1815.19 1025.14 1841.5 1023.39 1869.82H958.632ZM998.755 1853.77C996.572 1841.06 991.12 1834.14 979.128 1834.14C963.43 1834.14 959.068 1846.63 958.632 1853.77H998.755Z" fill="black"/>
<path d="M1098.62 1897.93H1098.19C1092.52 1907.96 1082.49 1912.2 1070.93 1912.2C1043.89 1912.2 1030.59 1888.34 1030.59 1862.91C1030.59 1838.16 1043.89 1815.19 1070.49 1815.19C1081.18 1815.19 1091.43 1819.87 1097.32 1828.79H1097.1H1097.53V1782.63H1122.17V1909.52H1098.62V1897.93ZM1077.25 1834.14C1061.12 1834.14 1055.45 1848.42 1055.45 1863.58C1055.45 1878.08 1061.99 1893.02 1077.25 1893.02C1093.61 1893.02 1098.41 1878.52 1098.41 1863.36C1098.41 1848.42 1093.17 1834.14 1077.25 1834.14Z" fill="black"/>
<path d="M1212.23 1806.05H1174.94V1782.63H1276.78V1806.05H1239.49V1909.52H1212.23V1806.05Z" fill="black"/>
<path d="M1287.46 1782.63H1380.35V1806.05H1314.71V1833.25H1374.9V1855.11H1314.71V1886.11H1381.66V1909.52H1287.46V1782.63Z" fill="black"/>
<path d="M1393.22 1782.63H1446.86C1478.91 1782.63 1503.11 1803.37 1503.11 1845.29C1503.11 1882.09 1484.8 1909.52 1446.86 1909.52H1393.22V1782.63ZM1420.47 1886.11H1444.9C1460.59 1886.11 1475.86 1876.07 1475.86 1847.97C1475.86 1822.33 1467.13 1806.05 1440.1 1806.05H1420.69V1886.11H1420.47Z" fill="black"/>
<path d="M1580.96 1869.82C1581.62 1885.88 1589.25 1893.02 1602.99 1893.02C1612.8 1893.02 1620.87 1886.77 1622.39 1881.2H1644.2C1637.22 1902.83 1622.39 1912.2 1602.11 1912.2C1573.77 1912.2 1556.32 1892.35 1556.32 1863.8C1556.32 1836.15 1574.86 1815.19 1602.11 1815.19C1632.64 1815.19 1647.47 1841.5 1645.73 1869.82H1580.96ZM1621.3 1853.77C1619.12 1841.06 1613.67 1834.14 1601.68 1834.14C1585.98 1834.14 1581.62 1846.63 1581.18 1853.77H1621.3Z" fill="black"/>
<path d="M1703.29 1909.52H1675.82L1645.07 1817.64H1670.8L1689.77 1880.53H1690.21L1709.18 1817.64H1733.6L1703.29 1909.52Z" fill="black"/>
<path d="M1757.37 1869.82C1758.02 1885.88 1765.65 1893.02 1779.39 1893.02C1789.2 1893.02 1797.27 1886.77 1798.8 1881.2H1820.6C1813.63 1902.83 1798.8 1912.2 1778.52 1912.2C1750.17 1912.2 1732.73 1892.35 1732.73 1863.8C1732.73 1836.15 1751.26 1815.19 1778.52 1815.19C1809.05 1815.19 1823.87 1841.5 1822.13 1869.82H1757.37ZM1797.49 1853.77C1795.31 1841.06 1789.86 1834.14 1777.86 1834.14C1762.16 1834.14 1757.8 1846.63 1757.37 1853.77H1797.49Z" fill="black"/>
<path d="M1833.25 1817.64H1856.8V1830.35H1857.24C1863.56 1820.09 1874.25 1814.96 1884.71 1814.96C1910.88 1814.96 1917.64 1830.13 1917.64 1852.88V1909.3H1893V1857.34C1893 1842.17 1888.64 1834.81 1877.08 1834.81C1863.78 1834.81 1857.89 1842.39 1857.89 1861.13V1909.3H1833.25V1817.64Z" fill="black"/>
<path d="M1964.09 1817.64H1982.19V1834.59H1964.09V1880.08C1964.09 1888.56 1966.27 1890.79 1974.55 1890.79C1977.17 1890.79 1979.57 1890.56 1982.19 1890.12V1909.74C1978.04 1910.41 1972.59 1910.64 1967.79 1910.64C1952.75 1910.64 1939.45 1907.07 1939.45 1888.78V1834.59H1924.4V1817.64H1939.45V1789.99H1964.09V1817.64Z" fill="black"/>
<path d="M461.684 1172.69H345.896V1064.31H704.816V1172.69H589.028V1486.91H461.684V1172.69Z" fill="#FF0000"/>
<path d="M724.439 1064.31H1072.89V1172.69H851.785V1225.32H1072.89V1325.9H851.785V1378.76H1072.89V1486.91H724.439V1064.31Z" fill="#FF0000"/>
<path d="M1094.26 1064.31H1303.16C1440.97 1064.31 1489.6 1168.45 1489.6 1275.05C1489.6 1404.85 1422.44 1486.91 1278.3 1486.91H1094.26V1064.31ZM1221.61 1378.76H1271.32C1350.7 1378.76 1362.25 1312.97 1362.25 1273.27C1362.25 1246.73 1354.19 1172.69 1262.17 1172.69H1221.61V1378.76Z" fill="#FF0000"/>
<path d="M1672.54 1324.12L1633.73 1258.33L1595.79 1324.12H1502.46L1591.21 1190.98L1505.73 1063.42H1599.06L1633.73 1126.53L1669.27 1063.42H1762.6L1677.34 1190.98L1765.87 1324.12H1672.54Z" fill="#FF0000"/>
<path d="M1841.54 1065.87H1869.23H1897.36V1486.91H1869.67H1841.54V1065.87Z" fill="black"/>
<path d="M2096.23 1116.27H1956.89V1091.07V1065.87H2291.17V1091.07V1116.27H2152.05V1486.91H2124.14H2096.23V1116.27Z" fill="black"/>
<path d="M2593.83 1187.86C2591.43 1161.32 2581.19 1140.8 2563.09 1126.31C2544.99 1111.81 2520.78 1104.67 2490.47 1104.67C2459.07 1104.67 2435.31 1110.92 2418.95 1123.18C2402.6 1135.67 2394.53 1153.74 2394.53 1177.6C2394.53 1193.88 2399.98 1205.92 2410.88 1213.95C2421.78 1221.98 2443.37 1230.01 2476.08 1237.81L2547.82 1255.21C2586.2 1264.57 2613.67 1278.4 2630.25 1296.69C2646.82 1314.75 2654.89 1340.62 2654.89 1373.85C2654.89 1411.98 2640.71 1442.31 2612.37 1464.61C2584.02 1486.91 2545.64 1498.06 2497.23 1498.06C2443.37 1498.06 2401.29 1485.13 2371.2 1459.49C2341.76 1434.06 2326.93 1399.27 2326.93 1355.11V1352.22H2378.17C2379.05 1382.77 2389.95 1406.41 2410.67 1422.91C2431.38 1439.64 2460.38 1447.89 2497.23 1447.89C2531.47 1447.89 2557.42 1441.87 2575.08 1429.82C2592.74 1417.78 2601.68 1400.16 2601.68 1376.75C2601.68 1356.45 2595.79 1341.51 2584.24 1331.7C2572.68 1322.11 2549.35 1313.19 2514.02 1304.49L2442.28 1287.1C2406.09 1278.4 2380.14 1266.13 2364.66 1250.52C2349.17 1234.91 2341.54 1213.28 2341.54 1185.4C2341.54 1145.04 2354.84 1113.15 2381.66 1089.51C2408.48 1065.87 2444.68 1054.05 2490.26 1054.05C2536.48 1054.05 2573.33 1065.87 2600.81 1089.51C2628.29 1113.15 2642.89 1145.93 2644.86 1187.41H2593.83V1187.86Z" fill="black"/>
</svg>
